<svg width="20" height="20" viewBox="0 0 20 20" fill="none" xmlns="http://www.w3.org/2000/svg">
<g id="icon">
<g id="Users">
<path id="Vector" d="M17.5 15.8359C17.5 14.3845 16.1087 13.1498 14.1667 12.6922M12.5 15.8359C12.5 13.995 10.2614 12.5026 7.5 12.5026C4.73858 12.5026 2.5 13.995 2.5 15.8359M12.5 10.0026C14.3409 10.0026 15.8333 8.51022 15.8333 6.66927C15.8333 4.82832 14.3409 3.33594 12.5 3.33594M7.5 10.0026C5.65905 10.0026 4.16667 8.51022 4.16667 6.66927C4.16667 4.82832 5.65905 3.33594 7.5 3.33594C9.34095 3.33594 10.8333 4.82832 10.8333 6.66927C10.8333 8.51022 9.34095 10.0026 7.5 10.0026Z" stroke="#7D7F82" stroke-width="1.25" stroke-linecap="round" stroke-linejoin="round"/>
</g>
</g>
</svg>
