<svg width="20" height="20" viewBox="0 0 20 20" fill="none" xmlns="http://www.w3.org/2000/svg">
<mask id="path-1-inside-1_602_20083" fill="white">
<path d="M10.5 20.0016C5.25953 20.0016 1 15.7417 1 10.5008C1 5.2599 5.25953 1 10.5 1C15.7405 1 20 5.2599 20 10.5008C20 15.7417 15.7405 20.0016 10.5 20.0016ZM10.5 2.32569C5.99302 2.32569 2.32558 5.99345 2.32558 10.5008C2.32558 15.0082 5.99302 18.6759 10.5 18.6759C15.007 18.6759 18.6744 15.0082 18.6744 10.5008C18.6744 5.99345 15.007 2.32569 10.5 2.32569Z"/>
</mask>
<path d="M10.5 18.5582C6.05682 18.5582 2.4434 14.9447 2.4434 10.5008H-0.443395C-0.443395 16.5388 4.46225 21.445 10.5 21.445V18.5582ZM2.4434 10.5008C2.4434 6.05695 6.05682 2.4434 10.5 2.4434V-0.443395C4.46225 -0.443395 -0.443395 4.46285 -0.443395 10.5008H2.4434ZM10.5 2.4434C14.9432 2.4434 18.5566 6.05695 18.5566 10.5008H21.4434C21.4434 4.46285 16.5377 -0.443395 10.5 -0.443395V2.4434ZM18.5566 10.5008C18.5566 14.9447 14.9432 18.5582 10.5 18.5582V21.445C16.5377 21.445 21.4434 16.5388 21.4434 10.5008H18.5566ZM10.5 0.882299C5.19574 0.882299 0.882186 5.1964 0.882186 10.5008H3.76898C3.76898 6.7905 6.7903 3.76909 10.5 3.76909V0.882299ZM0.882186 10.5008C0.882186 15.8052 5.19574 20.1193 10.5 20.1193V17.2325C6.7903 17.2325 3.76898 14.2111 3.76898 10.5008H0.882186ZM10.5 20.1193C15.8043 20.1193 20.1178 15.8052 20.1178 10.5008H17.231C17.231 14.2111 14.2097 17.2325 10.5 17.2325V20.1193ZM20.1178 10.5008C20.1178 5.1964 15.8043 0.882299 10.5 0.882299V3.76909C14.2097 3.76909 17.231 6.7905 17.231 10.5008H20.1178Z" fill="#D64657" mask="url(#path-1-inside-1_602_20083)"/>
<path d="M13.0431 8.04251L13.0432 8.04244M13.0431 8.04251L13.0433 8.04237C13.0432 8.04239 13.0432 8.04242 13.0432 8.04244M13.0431 8.04251C13.0431 8.04249 13.0432 8.04247 13.0432 8.04244M13.0431 8.04251L13.0432 8.04244" fill="#D64657" stroke="#D64657" stroke-width="1.4434"/>
<path d="M7.95748 8.04236L7.95756 8.04244L7.95748 8.04236ZM13.0433 12.9609L13.0432 12.9608L13.0433 12.9609Z" fill="#D64657" stroke="#D64657" stroke-width="1.4434"/>
</svg>
