<svg width="25" height="24" viewBox="0 0 25 24" fill="none" xmlns="http://www.w3.org/2000/svg">
<path d="M23.2315 12.2326C23.2315 11.3693 23.16 10.7393 23.0053 10.0859H12.9458V13.9826H18.8505C18.7315 14.9509 18.0887 16.4093 16.6601 17.3892L16.64 17.5197L19.8207 19.9344L20.041 19.9559C22.0648 18.1242 23.2315 15.4292 23.2315 12.2326Z" fill="#4285F4"/>
<path d="M12.9452 22.5006C15.838 22.5006 18.2665 21.5672 20.0404 19.9572L16.6594 17.3905C15.7547 18.0088 14.5404 18.4405 12.9452 18.4405C10.1119 18.4405 7.70716 16.6088 6.84994 14.0771L6.72429 14.0876L3.41703 16.596L3.37378 16.7138C5.13566 20.1438 8.7547 22.5006 12.9452 22.5006Z" fill="#34A853"/>
<path d="M6.85056 14.0765C6.62438 13.4232 6.49348 12.7231 6.49348 11.9998C6.49348 11.2764 6.62438 10.5764 6.83866 9.92313L6.83267 9.78398L3.48396 7.23535L3.3744 7.28642C2.64824 8.70977 2.23157 10.3081 2.23157 11.9998C2.23157 13.6915 2.64824 15.2897 3.3744 16.7131L6.85056 14.0765Z" fill="#FBBC05"/>
<path d="M12.9453 5.55997C14.9571 5.55997 16.3142 6.41163 17.0881 7.12335L20.1119 4.23C18.2548 2.53834 15.8381 1.5 12.9453 1.5C8.75473 1.5 5.13567 3.85665 3.37378 7.28662L6.83806 9.92332C7.70718 7.39166 10.1119 5.55997 12.9453 5.55997Z" fill="#EB4335"/>
</svg>
