<svg width="24" height="24" viewBox="0 0 24 24" fill="none" xmlns="http://www.w3.org/2000/svg">
<g id="icon">
<g id="call-calling">
<path id="Vector" d="M20.4745 17.3805C20.4745 17.6865 20.4065 18.001 20.262 18.307C20.1175 18.613 19.9305 18.902 19.684 19.174C19.2675 19.633 18.8085 19.9645 18.29 20.177C17.78 20.3895 17.2275 20.5 16.6325 20.5C15.7655 20.5 14.839 20.296 13.8615 19.8795C12.884 19.463 11.9065 18.902 10.9375 18.1965C9.96 17.4825 9.0335 16.692 8.1495 15.8165C7.274 14.9325 6.4835 14.006 5.778 13.037C5.081 12.068 4.52 11.099 4.112 10.1385C3.704 9.1695 3.5 8.243 3.5 7.359C3.5 6.781 3.602 6.2285 3.806 5.7185C4.01 5.2 4.333 4.724 4.7835 4.299C5.3275 3.7635 5.9225 3.5 6.5515 3.5C6.7895 3.5 7.0275 3.551 7.24 3.653C7.461 3.755 7.6565 3.908 7.8095 4.129L9.7815 6.9085C9.9345 7.121 10.045 7.3165 10.1215 7.5035C10.198 7.682 10.2405 7.8605 10.2405 8.022C10.2405 8.226 10.181 8.43 10.062 8.6255C9.9515 8.821 9.79 9.025 9.586 9.229L8.94 9.9005C8.8465 9.994 8.804 10.1045 8.804 10.2405C8.804 10.3085 8.8125 10.368 8.8295 10.436C8.855 10.504 8.8805 10.555 8.8975 10.606C9.0505 10.8865 9.314 11.252 9.688 11.694C10.0705 12.136 10.4785 12.5865 10.9205 13.037C11.3795 13.4875 11.8215 13.904 12.272 14.2865C12.714 14.6605 13.0795 14.9155 13.3685 15.0685C13.411 15.0855 13.462 15.111 13.5215 15.1365C13.5895 15.162 13.6575 15.1705 13.734 15.1705C13.8785 15.1705 13.989 15.1195 14.0825 15.026L14.7285 14.3885C14.941 14.176 15.145 14.0145 15.3405 13.9125C15.536 13.7935 15.7315 13.734 15.944 13.734C16.1055 13.734 16.2755 13.768 16.4625 13.8445C16.6495 13.921 16.845 14.0315 17.0575 14.176L19.871 16.1735C20.092 16.3265 20.245 16.505 20.3385 16.7175C20.4235 16.93 20.4745 17.1425 20.4745 17.3805Z" stroke="#D64657" stroke-width="1.275" stroke-miterlimit="10"/>
<path id="Vector_2" d="M17.5258 9.45156C17.5258 8.94156 17.1263 8.15956 16.5313 7.52206C15.9873 6.93556 15.2648 6.47656 14.5508 6.47656" stroke="#D64657" stroke-width="1.275" stroke-linecap="round" stroke-linejoin="round"/>
<path id="Vector_3" d="M20.5008 9.45C20.5008 6.1605 17.8403 3.5 14.5508 3.5" stroke="#D64657" stroke-width="1.275" stroke-linecap="round" stroke-linejoin="round"/>
</g>
</g>
</svg>
