<svg width="20" height="20" viewBox="0 0 20 20" fill="none" xmlns="http://www.w3.org/2000/svg">
<g id="Users" clip-path="url(#clip0_5546_52913)">
<rect width="20" height="20" fill="white"/>
<g id="Group 48096230">
<path id="Vector" d="M18.7505 14.75C18.7505 12.6768 16.7897 11 14.3755 11C12.9449 11 11.6735 11.5888 10.875 12.5" stroke="#0064FA" stroke-width="1.25" stroke-linecap="round" stroke-linejoin="round"/>
<path id="Vector_2" d="M14.375 9C15.7557 9 16.875 7.88071 16.875 6.5C16.875 5.11929 15.7557 4 14.375 4C12.9943 4 11.875 5.11929 11.875 6.5C11.875 7.88071 12.9943 9 14.375 9Z" stroke="#0064FA" stroke-width="1.25" stroke-linecap="round" stroke-linejoin="round"/>
</g>
<g id="Group 48096229">
<path id="Vector_3" d="M15 18C15 14.6829 11.8626 12 8 12C4.13737 12 1 14.6829 1 18" stroke="white" stroke-width="4" stroke-linecap="round" stroke-linejoin="round"/>
<path id="Vector_4" d="M8 10C10.2091 10 12 8.20914 12 6C12 3.79086 10.2091 2 8 2C5.79086 2 4 3.79086 4 6C4 8.20914 5.79086 10 8 10Z" stroke="white" stroke-width="4" stroke-linecap="round" stroke-linejoin="round"/>
</g>
<path id="Vector_5" d="M15 18C15 14.6829 11.8626 12 8 12C4.13737 12 1 14.6829 1 18" stroke="#0064FA" stroke-width="1.25" stroke-linecap="round" stroke-linejoin="round"/>
<path id="Vector_6" d="M8 10C10.2091 10 12 8.20914 12 6C12 3.79086 10.2091 2 8 2C5.79086 2 4 3.79086 4 6C4 8.20914 5.79086 10 8 10Z" stroke="#0064FA" stroke-width="1.25" stroke-linecap="round" stroke-linejoin="round"/>
</g>
<defs>
<clipPath id="clip0_5546_52913">
<rect width="20" height="20" fill="white"/>
</clipPath>
</defs>
</svg>
