<svg width="20" height="20" viewBox="0 0 20 20" fill="none" xmlns="http://www.w3.org/2000/svg">
<g id="vuesax/outline/archive-tick">
<g id="archive-tick">
<path id="Vector" d="M4.10781 18.9587C3.75781 18.9587 3.43281 18.8753 3.14115 18.7087C2.49948 18.3337 2.13281 17.5753 2.13281 16.6337V4.88366C2.13281 2.76699 3.85781 1.04199 5.97448 1.04199H14.0161C16.1328 1.04199 17.8578 2.76699 17.8578 4.88366V16.6253C17.8578 17.567 17.4911 18.3253 16.8495 18.7003C16.2078 19.0753 15.3661 19.0337 14.5411 18.5753L10.4745 16.317C10.2328 16.1837 9.75781 16.1837 9.51615 16.317L5.44948 18.5753C4.99948 18.8253 4.54115 18.9587 4.10781 18.9587ZM5.98281 2.29199C4.55781 2.29199 3.39115 3.45866 3.39115 4.88366V16.6253C3.39115 17.117 3.53281 17.4837 3.78281 17.6253C4.03281 17.767 4.42448 17.7253 4.84948 17.4837L8.91615 15.2253C9.53281 14.8837 10.4661 14.8837 11.0828 15.2253L15.1495 17.4837C15.5745 17.7253 15.9661 17.7753 16.2161 17.6253C16.4661 17.4753 16.6078 17.1087 16.6078 16.6253V4.88366C16.6078 3.45866 15.4411 2.29199 14.0161 2.29199H5.98281Z" fill="#D64657"/>
<path id="Vector_2" d="M9.2401 11.0422C9.08177 11.0422 8.92344 10.9839 8.79844 10.8589L7.54844 9.60885C7.30677 9.36719 7.30677 8.96719 7.54844 8.72552C7.7901 8.48385 8.1901 8.48385 8.43177 8.72552L9.2401 9.53385L12.1318 6.64219C12.3734 6.40052 12.7734 6.40052 13.0151 6.64219C13.2568 6.88385 13.2568 7.28385 13.0151 7.52552L9.68177 10.8589C9.55677 10.9839 9.39844 11.0422 9.2401 11.0422Z" fill="#D64657"/>
</g>
</g>
</svg>
