<svg width="20" height="20" viewBox="0 0 20 20" fill="none" xmlns="http://www.w3.org/2000/svg">
<g id="assigment">
<path id="Vector 67" d="M16.25 10.4163V11.458C16.25 13.9884 16.25 15.2536 15.7187 16.2023C15.3433 16.8727 14.7897 17.4263 14.1193 17.8017C13.1706 18.333 11.9054 18.333 9.375 18.333V18.333C6.84459 18.333 5.57939 18.333 4.63074 17.8017C3.9603 17.4263 3.40674 16.8727 3.03127 16.2023C2.5 15.2536 2.5 13.9884 2.5 11.458V9.99968C2.5 7.66612 2.5 6.49935 2.95414 5.60805C3.35361 4.82404 3.99103 4.18662 4.77504 3.78715C5.66634 3.33301 6.83311 3.33301 9.16667 3.33301V3.33301H10" stroke="#D64657" stroke-width="1.25" stroke-linecap="round"/>
<path id="Vector" d="M15.416 2.0832C15.7475 1.75168 16.1972 1.56543 16.666 1.56543C17.1349 1.56543 17.5845 1.75168 17.916 2.0832C18.2475 2.41472 18.4338 2.86436 18.4338 3.3332C18.4338 3.80204 18.2475 4.25168 17.916 4.5832L9.99935 12.4999L6.66602 13.3332L7.49935 9.99986L15.416 2.0832Z" stroke="#D64657" stroke-width="1.25" stroke-linecap="round" stroke-linejoin="round"/>
</g>
</svg>
