<svg width="20" height="20" viewBox="0 0 20 20" fill="none" xmlns="http://www.w3.org/2000/svg">
<g id="assigment">
<path id="Vector 67" d="M16.25 10.4168V11.4585C16.25 13.9889 16.25 15.2541 15.7187 16.2028C15.3433 16.8732 14.7897 17.4268 14.1193 17.8022C13.1706 18.3335 11.9054 18.3335 9.375 18.3335V18.3335C6.84459 18.3335 5.57939 18.3335 4.63074 17.8022C3.9603 17.4268 3.40674 16.8732 3.03127 16.2028C2.5 15.2541 2.5 13.9889 2.5 11.4585V10.0002C2.5 7.66661 2.5 6.49983 2.95414 5.60853C3.35361 4.82453 3.99103 4.18711 4.77504 3.78764C5.66634 3.3335 6.83311 3.3335 9.16667 3.3335V3.3335H10" stroke="#0064FA" stroke-width="1.25" stroke-linecap="round"/>
<path id="Vector" d="M15.416 2.08368C15.7475 1.75216 16.1972 1.56592 16.666 1.56592C17.1349 1.56592 17.5845 1.75216 17.916 2.08368C18.2475 2.41521 18.4338 2.86484 18.4338 3.33368C18.4338 3.80253 18.2475 4.25216 17.916 4.58368L9.99935 12.5004L6.66602 13.3337L7.49935 10.0004L15.416 2.08368Z" stroke="#0064FA" stroke-width="1.25" stroke-linecap="round" stroke-linejoin="round"/>
</g>
</svg>
