<svg width="20" height="20" viewBox="0 0 20 20" fill="none" xmlns="http://www.w3.org/2000/svg">
<g id="icon">
<g id="vuesax/linear/chart-square">
<g id="Group">
<path id="Vector" d="M8.42394 9.29199H6.21561C5.69061 9.29199 5.26562 9.71695 5.26562 10.242V14.5086H8.42394V9.29199V9.29199Z" stroke="#D64657" stroke-width="1.25" stroke-miterlimit="10" stroke-linecap="round" stroke-linejoin="round"/>
<path id="Vector_2" d="M10.6327 5.5H9.366C8.841 5.5 8.41602 5.92501 8.41602 6.45001V14.5H11.5744V6.45001C11.5744 5.92501 11.1577 5.5 10.6327 5.5Z" stroke="#D64657" stroke-width="1.25" stroke-miterlimit="10" stroke-linecap="round" stroke-linejoin="round"/>
<path id="Vector_3" d="M13.7884 10.708H11.5801V14.4997H14.7384V11.658C14.7301 11.133 14.3051 10.708 13.7884 10.708Z" stroke="#D64657" stroke-width="1.25" stroke-miterlimit="10" stroke-linecap="round" stroke-linejoin="round"/>
</g>
<path id="Vector_4" d="M7.49935 18.3337H12.4993C16.666 18.3337 18.3327 16.667 18.3327 12.5003V7.50033C18.3327 3.33366 16.666 1.66699 12.4993 1.66699H7.49935C3.33268 1.66699 1.66602 3.33366 1.66602 7.50033V12.5003C1.66602 16.667 3.33268 18.3337 7.49935 18.3337Z" stroke="#D64657" stroke-width="1.25" stroke-linecap="round" stroke-linejoin="round"/>
</g>
</g>
</svg>
