<svg width="24" height="24" viewBox="0 0 24 24" fill="none" xmlns="http://www.w3.org/2000/svg">
<g id="arrow-right">
<g id="vuesax/outline/arrow-right">
<g id="arrow-right_2">
<path id="Vector" d="M3.62734 8.11859C3.62734 7.92859 3.69734 7.73859 3.84734 7.58859C4.13734 7.29859 4.61734 7.29859 4.90734 7.58859L11.4273 14.1086C11.9073 14.5886 12.6873 14.5886 13.1673 14.1086L19.6873 7.58859C19.9773 7.29859 20.4573 7.29859 20.7473 7.58859C21.0373 7.87859 21.0373 8.35859 20.7473 8.64859L14.2273 15.1686C13.7173 15.6786 13.0273 15.9686 12.2973 15.9686C11.5673 15.9686 10.8773 15.6886 10.3673 15.1686L3.84734 8.64859C3.70734 8.49859 3.62734 8.30859 3.62734 8.11859Z" fill="#262626"/>
</g>
</g>
</g>
</svg>
