<svg width="20" height="20" viewBox="0 0 20 20" fill="none" xmlns="http://www.w3.org/2000/svg">
<g id="icon">
<g id="Read">
<path id="Shape" fill-rule="evenodd" clip-rule="evenodd" d="M16.0723 6.16918L9.10799 13.5813L9.04879 13.6568C8.91198 13.8683 8.94331 14.1527 9.13603 14.3295C9.35284 14.5285 9.69181 14.5161 9.89313 14.3018L16.8574 6.88969L16.9166 6.81415C17.0534 6.60266 17.0221 6.31833 16.8294 6.14147C16.6126 5.94251 16.2736 5.95491 16.0723 6.16918ZM12.3234 6.16737L5.68113 13.1706L2.92373 10.3079L2.85108 10.2449C2.64592 10.0969 2.35683 10.1103 2.16635 10.2895C1.95205 10.4911 1.9437 10.8262 2.1477 11.038L5.29613 14.3066L5.37181 14.3718C5.58572 14.5239 5.88785 14.5009 6.075 14.3036L13.1051 6.89151L13.1647 6.81624C13.3025 6.60539 13.2725 6.32091 13.0807 6.14317C12.8648 5.9432 12.5258 5.95403 12.3234 6.16737Z" fill="#0064FA"/>
</g>
</g>
</svg>
