<svg width="18" height="19" viewBox="0 0 18 19" fill="none" xmlns="http://www.w3.org/2000/svg">
<g id="icon" clip-path="url(#clip0_3485_66986)">
<g id="Group 48096139">
<g id="Vector">
<path fill-rule="evenodd" clip-rule="evenodd" d="M11.5098 8.09795C10.2398 8.09795 9.21018 9.07966 9.21018 10.2906C9.21018 11.5016 10.2398 12.4833 11.5098 12.4833C12.7799 12.4833 13.8095 11.5016 13.8095 10.2906C13.8095 9.07966 12.7799 8.09795 11.5098 8.09795ZM10.4645 10.2906C10.4645 9.7402 10.9325 9.29397 11.5098 9.29397C12.0871 9.29397 12.5551 9.7402 12.5551 10.2906C12.5551 10.8411 12.0871 11.2873 11.5098 11.2873C10.9325 11.2873 10.4645 10.8411 10.4645 10.2906Z" fill="#D64657"/>
<path fill-rule="evenodd" clip-rule="evenodd" d="M6.28335 7.10128C6.28335 6.33065 6.93854 5.70593 7.74676 5.70593C8.55498 5.70593 9.21018 6.33065 9.21018 7.10128C9.21018 7.87191 8.55498 8.49663 7.74676 8.49663C6.93854 8.49663 6.28335 7.87191 6.28335 7.10128ZM7.74676 6.90194C7.6313 6.90194 7.5377 6.99119 7.5377 7.10128C7.5377 7.21137 7.6313 7.30061 7.74676 7.30061C7.86222 7.30061 7.95582 7.21137 7.95582 7.10128C7.95582 6.99119 7.86222 6.90194 7.74676 6.90194Z" fill="#D64657"/>
<path d="M6.91052 11.088C7.37236 11.088 7.74676 10.731 7.74676 10.2906C7.74676 9.85029 7.37236 9.4933 6.91052 9.4933C6.44868 9.4933 6.07429 9.85029 6.07429 10.2906C6.07429 10.731 6.44868 11.088 6.91052 11.088Z" fill="#D64657"/>
<path fill-rule="evenodd" clip-rule="evenodd" d="M2.31122 0.921875C3.35036 0.921875 4.19275 1.72509 4.19275 2.71589C4.19275 2.99286 4.12693 3.25517 4.00938 3.48937L5.26866 4.69007C5.97618 4.13678 6.81179 3.72625 7.72825 3.50352C7.60621 3.26575 7.5377 2.99845 7.5377 2.71589C7.5377 1.72509 8.38009 0.921875 9.41923 0.921875C10.4584 0.921875 11.3008 1.72509 11.3008 2.71589C11.3008 3.01485 11.2241 3.29673 11.0884 3.54462C11.9843 3.78415 12.8044 4.20115 13.5039 4.75287L13.9928 4.28671C13.8753 4.05251 13.8095 3.7902 13.8095 3.51324C13.8095 2.52243 14.6519 1.71922 15.691 1.71922C16.7302 1.71922 17.5725 2.52243 17.5725 3.51324C17.5725 4.50405 16.7302 5.30726 15.691 5.30726C15.4005 5.30726 15.1254 5.24449 14.8798 5.13242L14.3909 5.59858C14.924 6.2131 15.3372 6.92524 15.5954 7.70157C15.6271 7.70005 15.659 7.69928 15.691 7.69928C16.7302 7.69928 17.5725 8.50249 17.5725 9.4933C17.5725 10.4841 16.7302 11.2873 15.691 11.2873C15.6772 11.2873 15.6634 11.2872 15.6496 11.2869C15.3507 12.2761 14.7972 13.1598 14.0604 13.8703L14.0852 13.8939C14.3308 13.7818 14.6059 13.7191 14.8964 13.7191C15.9356 13.7191 16.778 14.5223 16.778 15.5131C16.778 16.5039 15.9356 17.3071 14.8964 17.3071C13.8573 17.3071 13.0149 16.5039 13.0149 15.5131C13.0149 15.2361 13.0807 14.9738 13.1983 14.7396L13.0905 14.6368C12.4917 15.0216 11.8199 15.312 11.0983 15.486C10.7882 16.0693 10.1534 16.4701 9.41914 16.4701C8.66234 16.4701 8.01121 16.0443 7.71239 15.4318C7.03032 15.2452 6.39276 14.9556 5.81963 14.582C5.79343 14.6241 5.76134 14.6638 5.72337 14.7L4.85891 15.5243C4.96811 15.7516 5.02899 16.0044 5.02899 16.2707C5.02899 17.2615 4.1866 18.0647 3.14746 18.0647C2.10832 18.0647 1.26592 17.2615 1.26592 16.2707C1.26592 15.2799 2.10832 14.4767 3.14746 14.4767C3.44901 14.4767 3.734 14.5443 3.98663 14.6646L4.83641 13.8543C4.84621 13.845 4.85626 13.836 4.86654 13.8274C4.07887 13.0752 3.48909 12.1346 3.18037 11.0849C2.92039 11.2142 2.62476 11.2873 2.31122 11.2873C1.27208 11.2873 0.429688 10.4841 0.429688 9.4933C0.429688 8.50249 1.27208 7.69928 2.31122 7.69928C2.60756 7.69928 2.8879 7.76461 3.13726 7.88097C3.37086 7.00713 3.80142 6.21039 4.3817 5.53578L3.12242 4.33507C2.8768 4.44715 2.6017 4.50991 2.31122 4.50991C1.27208 4.50991 0.429688 3.7067 0.429688 2.71589C0.429688 1.72509 1.27208 0.921875 2.31122 0.921875ZM2.9384 2.71589C2.9384 2.38563 2.6576 2.11789 2.31122 2.11789C1.96484 2.11789 1.68404 2.38563 1.68404 2.71589C1.68404 3.04616 1.96484 3.3139 2.31122 3.3139C2.6576 3.3139 2.9384 3.04616 2.9384 2.71589ZM9.51458 14.4767C12.3627 14.4767 14.6457 12.2998 14.6457 9.58422L14.6455 9.54317C14.6222 6.78725 12.2573 4.53232 9.36694 4.51008C6.48449 4.4879 4.16967 6.69506 4.19293 9.44344C4.21625 12.1994 6.58118 14.4543 9.47153 14.4765C9.4859 14.4766 9.50025 14.4767 9.51458 14.4767ZM15.9001 8.92933C16.1437 9.01142 16.3182 9.23293 16.3182 9.4933C16.3182 9.75368 16.1437 9.97519 15.9001 10.0573V8.92933ZM15.691 2.91523C15.3446 2.91523 15.0638 3.18297 15.0638 3.51324C15.0638 3.84351 15.3446 4.11124 15.691 4.11124C16.0374 4.11124 16.3182 3.84351 16.3182 3.51324C16.3182 3.18297 16.0374 2.91523 15.691 2.91523ZM2.31122 8.8953C2.6576 8.8953 2.9384 9.16303 2.9384 9.4933C2.9384 9.82357 2.6576 10.0913 2.31122 10.0913C1.96484 10.0913 1.68404 9.82357 1.68404 9.4933C1.68404 9.16303 1.96484 8.8953 2.31122 8.8953ZM14.2692 15.5131C14.2692 15.8434 14.55 16.1111 14.8964 16.1111C15.2428 16.1111 15.5236 15.8434 15.5236 15.5131C15.5236 15.1828 15.2428 14.9151 14.8964 14.9151C14.55 14.9151 14.2692 15.1828 14.2692 15.5131ZM3.14746 16.8687C3.49384 16.8687 3.77464 16.601 3.77464 16.2707C3.77464 15.9404 3.49384 15.6727 3.14746 15.6727C2.80108 15.6727 2.52028 15.9404 2.52028 16.2707C2.52028 16.601 2.80108 16.8687 3.14746 16.8687ZM8.79206 2.71589C8.79206 2.38563 9.07285 2.11789 9.41923 2.11789C9.76561 2.11789 10.0464 2.38563 10.0464 2.71589C10.0464 3.04616 9.76561 3.3139 9.41923 3.3139C9.07285 3.3139 8.79206 3.04616 8.79206 2.71589Z" fill="#D64657"/>
</g>
</g>
</g>
<defs>
<clipPath id="clip0_3485_66986">
<rect width="17.1429" height="17.1429" fill="white" transform="translate(0.427734 0.929688)"/>
</clipPath>
</defs>
</svg>
