<svg width="24" height="24" viewBox="0 0 24 24" fill="none" xmlns="http://www.w3.org/2000/svg">
<path d="M15 22.25H9C6.3424 22.25 4.56492 21.6803 3.4423 20.5577C2.31968 19.4351 1.75 17.6576 1.75 15V9C1.75 6.3424 2.31968 4.56492 3.4423 3.4423C4.56492 2.31968 6.3424 1.75 9 1.75H15C17.6576 1.75 19.4351 2.31968 20.5577 3.4423C21.6803 4.56492 22.25 6.3424 22.25 9V15C22.25 17.6576 21.6803 19.4351 20.5577 20.5577C19.4351 21.6803 17.6576 22.25 15 22.25ZM9 2.25C6.65972 2.25 4.92432 2.66107 3.7927 3.7927C2.66107 4.92432 2.25 6.65972 2.25 9V15C2.25 17.3403 2.66107 19.0757 3.7927 20.2073C4.92432 21.3389 6.65972 21.75 9 21.75H15C17.3403 21.75 19.0757 21.3389 20.2073 20.2073C21.3389 19.0757 21.75 17.3403 21.75 15V9C21.75 6.65972 21.3389 4.92432 20.2073 3.7927C19.0757 2.66107 17.3403 2.25 15 2.25H9Z" fill="#B1B2B4" stroke="#B1B2B4"/>
<path d="M8.81945 9.75043C7.96945 9.75043 7.11945 9.43043 6.46945 8.78043C6.17945 8.49043 6.17945 8.01043 6.46945 7.72043C6.75945 7.43043 7.23945 7.43043 7.52945 7.72043C8.23945 8.43043 9.39945 8.43043 10.1095 7.72043C10.3995 7.43043 10.8795 7.43043 11.1695 7.72043C11.4595 8.01043 11.4595 8.49043 11.1695 8.78043C10.5195 9.42043 9.66945 9.75043 8.81945 9.75043Z" fill="#B1B2B4"/>
<path d="M15.1808 9.75043C14.3308 9.75043 13.4808 9.43043 12.8308 8.78043C12.5408 8.49043 12.5408 8.01043 12.8308 7.72043C13.1208 7.43043 13.6008 7.43043 13.8908 7.72043C14.6008 8.43043 15.7608 8.43043 16.4708 7.72043C16.7608 7.43043 17.2408 7.43043 17.5308 7.72043C17.8208 8.01043 17.8208 8.49043 17.5308 8.78043C16.8808 9.42043 16.0308 9.75043 15.1808 9.75043Z" fill="#B1B2B4"/>
<path d="M12 19.15C9.1 19.15 6.75 16.79 6.75 13.9C6.75 12.99 7.49 12.25 8.4 12.25H15.6C16.51 12.25 17.25 12.99 17.25 13.9C17.25 16.79 14.9 19.15 12 19.15ZM8.4 13.75C8.32 13.75 8.25 13.82 8.25 13.9C8.25 15.97 9.93 17.65 12 17.65C14.07 17.65 15.75 15.97 15.75 13.9C15.75 13.82 15.68 13.75 15.6 13.75H8.4Z" fill="#B1B2B4"/>
</svg>
