<svg width="20" height="20" viewBox="0 0 20 20" fill="none" xmlns="http://www.w3.org/2000/svg">
<path d="M7.50033 18.3307H12.5003C16.667 18.3307 18.3337 16.6641 18.3337 12.4974V7.4974C18.3337 3.33073 16.667 1.66406 12.5003 1.66406H7.50033C3.33366 1.66406 1.66699 3.33073 1.66699 7.4974V12.4974C1.66699 16.6641 3.33366 18.3307 7.50033 18.3307Z" stroke="#0064FA" stroke-width="1.25" stroke-linecap="round" stroke-linejoin="round"/>
<path d="M12.917 8.125C13.6073 8.125 14.167 7.56536 14.167 6.875C14.167 6.18464 13.6073 5.625 12.917 5.625C12.2266 5.625 11.667 6.18464 11.667 6.875C11.667 7.56536 12.2266 8.125 12.917 8.125Z" stroke="#0064FA" stroke-width="1.25" stroke-miterlimit="10" stroke-linecap="round" stroke-linejoin="round"/>
<path d="M7.08301 8.125C7.77336 8.125 8.33301 7.56536 8.33301 6.875C8.33301 6.18464 7.77336 5.625 7.08301 5.625C6.39265 5.625 5.83301 6.18464 5.83301 6.875C5.83301 7.56536 6.39265 8.125 7.08301 8.125Z" stroke="#0064FA" stroke-width="1.25" stroke-miterlimit="10" stroke-linecap="round" stroke-linejoin="round"/>
<path d="M7 11.0859H13C13.4167 11.0859 13.75 11.4193 13.75 11.8359C13.75 13.9109 12.075 15.5859 10 15.5859C7.925 15.5859 6.25 13.9109 6.25 11.8359C6.25 11.4193 6.58333 11.0859 7 11.0859Z" stroke="#0064FA" stroke-width="1.25" stroke-miterlimit="10" stroke-linecap="round" stroke-linejoin="round"/>
</svg>
