<svg width="170" height="170" viewBox="0 0 170 170" fill="none" xmlns="http://www.w3.org/2000/svg">
<path d="M148.484 78.9495C134.896 87.1581 113.128 95.0586 87.9693 100.718C63.9317 105.817 41.8832 107.778 26.3344 106.097C23.2246 98.4766 21.5156 90.2679 21.5156 81.7791C21.5156 80.3783 21.5156 78.6693 21.7958 77.2405C23.7849 44.1537 51.2125 18.127 84.8595 18.127C109.457 18.127 130.666 31.9948 141.143 52.3344C145.374 60.2629 147.923 69.312 148.484 78.9215V78.9495ZM91.9195 51.5219C91.9195 46.7032 87.9693 42.7529 83.1506 42.7529C78.3318 42.7529 74.3816 46.7032 74.3816 51.5219C74.3816 56.3406 78.3318 60.2909 83.1506 60.2909C87.9693 60.5711 91.9195 56.6208 91.9195 51.5219ZM60.2616 79.79C60.2616 76.9604 57.9923 74.4109 54.8825 74.4109C51.7728 74.4109 49.5035 76.6802 49.5035 79.79C49.5035 82.6196 51.7728 85.169 54.8825 85.169C57.7121 85.169 60.2616 82.8997 60.2616 79.79Z" fill="#C8DBF6"/>
<path d="M84.8597 148.791C57.7123 148.791 33.3945 132.682 22.9446 107.496C19.5547 99.2872 17.8457 90.5183 17.8457 81.7773C17.8457 80.0683 17.8457 78.6675 18.1259 76.9586C19.2465 59.9809 26.8948 44.1519 39.3339 32.5534C51.4928 20.9548 67.6019 14.4551 84.8597 14.4551C110.018 14.4551 132.655 28.323 144.253 50.3715C148.792 59.1404 151.313 68.7499 151.902 78.6395V81.4691C152.182 118.506 121.925 148.763 84.8877 148.763L84.8597 148.791ZM84.8597 21.5431C53.4819 21.5431 27.175 46.1411 24.9057 77.5189C24.9057 78.9197 24.6255 80.3485 24.6255 81.7493C24.6255 89.6778 26.0263 97.5783 29.1641 104.946C38.7736 127.275 60.5419 141.703 84.8597 141.703C117.946 141.703 145.094 114.836 145.094 81.4691V78.9197C144.814 69.8705 142.544 61.3817 138.314 53.4812C127.556 33.9822 107.216 21.5151 84.8597 21.5151V21.5431Z" fill="#0064FA"/>
<path d="M37.3473 110.046C33.1169 110.046 29.4188 109.766 25.7487 109.485C10.1999 108.085 1.71108 103.826 0.31029 96.7661C-1.39868 89.426 5.12902 81.7776 19.5292 73.8491C21.2382 73.0087 23.4794 73.569 24.3479 75.2499C25.1884 76.9589 24.6281 79.2002 22.9471 80.0687C10.5081 86.8485 6.55783 92.5077 7.11815 95.3373C7.67846 97.8868 13.0575 101.277 26.337 102.397C42.166 103.798 64.2425 101.837 86.8514 97.0183C110.889 91.9194 132.657 84.0189 146.245 75.8102C156.415 69.5907 159.244 65.0801 158.684 62.5307C158.124 59.9813 153.025 56.8715 140.586 55.4707C138.597 55.1905 137.196 53.4816 137.476 51.5204C137.756 49.5313 139.465 48.1305 141.426 48.4107C156.135 49.8115 164.343 54.0699 165.744 61.1299C167.145 67.6296 161.794 74.6896 149.915 82.0578C135.487 90.8268 113.158 98.7553 88.2802 104.106C70.1819 108.057 52.3638 110.046 37.3753 110.046H37.3473Z" fill="#0064FA"/>
<path d="M151.314 170C149.913 170 148.764 169.44 148.204 168.011L143.385 159.242L134.616 154.423C133.495 153.863 132.627 152.714 132.627 151.314C132.627 149.913 133.187 148.764 134.616 148.204L143.385 143.385L148.204 134.616C148.764 133.495 149.913 132.627 151.314 132.627C152.714 132.627 153.863 133.187 154.423 134.336L159.242 143.105L168.011 147.924C169.132 148.484 170 149.633 170 151.033C170 152.434 169.44 153.583 168.011 154.143L159.242 158.962L154.423 167.731C153.583 169.44 152.434 170 151.314 170ZM143.693 151.622L147.643 153.891C148.204 154.171 148.764 154.731 149.044 155.292L151.314 159.242L153.583 155.292C153.863 154.731 154.423 154.171 154.984 153.891L158.934 151.622L154.984 149.352C154.423 149.072 153.863 148.512 153.583 147.952L151.314 144.001L149.044 147.952C148.764 148.512 148.204 149.072 147.643 149.352L143.693 151.622Z" fill="#0064FA"/>
<path d="M18.4064 37.3732C17.0056 37.3732 15.857 36.8129 15.2967 35.6643L10.4779 26.8953L1.70897 22.0765C0.588335 21.2361 0 20.0874 0 18.6866C0 17.2858 0.560315 16.1372 1.98913 15.5768L10.7581 10.7581L15.5768 1.98913C16.1371 0.868496 17.2858 0 18.6866 0C20.0874 0 21.236 0.560321 21.7964 1.98913L26.6151 10.7581L35.3841 15.5768C36.5047 16.1372 37.3732 17.2858 37.3732 18.6866C37.3732 20.0874 36.8129 21.2361 35.3841 21.7964L26.6151 26.6151L21.7964 35.3841C20.9559 36.5047 19.8072 37.3732 18.4064 37.3732ZM11.0663 18.7146L15.0165 20.9839C15.5768 21.2641 16.1372 21.8244 16.4173 22.3847L18.6866 26.335L20.9559 22.3847C21.236 21.8244 21.7964 21.2641 22.3567 20.9839L26.3069 18.7146L22.3567 16.4453C21.7964 16.1652 21.236 15.6049 20.9559 15.0445L18.6866 11.0943L16.4173 15.0445C16.1372 15.6049 15.5768 16.1652 15.0165 16.4453L11.0663 18.7146Z" fill="#0064FA"/>
<path d="M83.152 63.9602C76.3721 63.9602 70.7129 58.3009 70.7129 51.5211C70.7129 44.7412 76.3721 39.082 83.152 39.082C89.9318 39.082 95.591 44.7412 95.591 51.5211C95.591 58.3009 89.9318 63.9602 83.152 63.9602ZM83.152 46.4222C80.3223 46.4222 77.7729 48.6915 77.7729 51.8013C77.7729 54.6309 80.0422 57.1803 83.152 57.1803C85.9816 57.1803 88.531 54.911 88.531 51.8013C88.531 48.6915 85.9816 46.4222 83.152 46.4222Z" fill="#0064FA"/>
<path d="M104.361 127.585C99.542 127.585 95.5918 123.635 95.5918 118.816C95.5918 113.997 99.542 110.047 104.361 110.047C109.18 110.047 113.13 113.997 113.13 118.816C113.13 123.635 109.18 127.585 104.361 127.585ZM104.361 117.107C103.52 117.107 102.652 117.947 102.652 118.816C102.652 119.684 103.492 120.525 104.361 120.525C105.229 120.525 106.07 119.684 106.07 118.816C106.07 117.947 105.229 117.107 104.361 117.107Z" fill="#0064FA"/>
<path d="M54.8842 88.8387C50.0655 88.8387 46.1152 84.8885 46.1152 80.0698C46.1152 75.251 50.0655 71.3008 54.8842 71.3008C59.7029 71.3008 63.6532 75.251 63.6532 80.0698C63.6532 84.5803 59.7029 88.8387 54.8842 88.8387ZM54.8842 78.0806C54.0437 78.0806 53.1752 78.9211 53.1752 79.7896C53.1752 80.6581 54.0157 81.4986 54.8842 81.4986C55.7527 81.4986 56.5932 80.6581 56.5932 79.7896C56.5932 78.9211 55.7527 78.0806 54.8842 78.0806Z" fill="#0064FA"/>
<path d="M24.9074 162.913C22.9183 162.913 21.2373 161.204 21.2373 159.243V148.485C21.2373 146.495 22.9463 144.814 24.9074 144.814C26.8685 144.814 28.5775 146.523 28.5775 148.485V159.243C28.2973 161.232 26.5883 162.913 24.9074 162.913Z" fill="#0064FA"/>
<path d="M30.0053 157.563H19.2472C17.2581 157.563 15.5771 155.854 15.5771 153.893C15.5771 151.932 17.2861 150.223 19.2472 150.223H30.0053C31.9945 150.223 33.6754 151.932 33.6754 153.893C33.6754 156.162 31.9664 157.563 30.0053 157.563Z" fill="#0064FA"/>
<path d="M146.776 35.6647C144.786 35.6647 143.105 33.9557 143.105 31.9946V21.2365C143.105 19.2474 144.814 17.5664 146.776 17.5664C148.737 17.5664 150.446 19.2754 150.446 21.2365V31.9946C150.165 33.9837 148.737 35.6647 146.776 35.6647Z" fill="#0064FA"/>
<path d="M152.155 30.3128H141.425C139.436 30.3128 137.755 28.6039 137.755 26.6427C137.755 24.6816 139.464 22.9727 141.425 22.9727H152.155C154.144 22.9727 155.825 24.6816 155.825 26.6427C155.545 28.912 153.836 30.3128 152.155 30.3128Z" fill="#0064FA"/>
</svg>
