<svg width="22" height="22" viewBox="0 0 22 22" fill="none" xmlns="http://www.w3.org/2000/svg">
<path d="M4.875 3.125L2.25 5.75M19.75 5.75L17.125 3.125M5.75 17.125L4 18.875M16.25 17.125L18 18.875M11 8.375V11.875L12.75 13.625M11 18.875C12.8565 18.875 14.637 18.1375 15.9497 16.8247C17.2625 15.512 18 13.7315 18 11.875C18 10.0185 17.2625 8.23801 15.9497 6.92525C14.637 5.6125 12.8565 4.875 11 4.875C9.14349 4.875 7.36301 5.6125 6.05025 6.92525C4.7375 8.23801 4 10.0185 4 11.875C4 13.7315 4.7375 15.512 6.05025 16.8247C7.36301 18.1375 9.14349 18.875 11 18.875Z" stroke="#D64657" stroke-width="1.3125" stroke-linecap="round" stroke-linejoin="round"/>
</svg>
