<svg width="33" height="33" viewBox="0 0 33 33" fill="none" xmlns="http://www.w3.org/2000/svg">
<path d="M25.6361 24.9899V24.9899C27.5537 24.9899 29.2495 23.4418 29.4236 21.532L29.6759 18.7657M25.6361 24.9899C25.5316 26.1358 24.5142 27.0646 23.3636 27.0646C22.213 27.0646 21.3649 26.1358 21.4694 24.9899M25.6361 24.9899C25.7406 23.8441 24.8925 22.9152 23.7419 22.9152C22.5913 22.9152 21.5739 23.8441 21.4694 24.9899M28.2179 12.5416L27.0559 10.192C26.5281 9.12482 26.2642 8.59124 25.8228 8.24562C25.6644 8.12151 25.4907 8.0167 25.3051 7.93317C24.7883 7.70054 24.168 7.70054 22.9274 7.70054V7.70054M28.2179 12.5416L29.2785 14.686C29.6014 15.3388 29.7628 15.6653 29.8278 16.0258C29.8928 16.3863 29.8584 16.7642 29.7894 17.5201L29.6759 18.7657M28.2179 12.5416H26.0767C25.6932 12.5416 25.3541 12.8512 25.3192 13.2331L24.9409 17.3826C24.8712 18.1465 25.4366 18.7657 26.2036 18.7657H29.6759M22.9274 7.70054C22.7149 6.89472 21.9958 6.31739 21.0887 6.31739H11.1781C11.1781 6.31739 7.01146 6.31738 6.31702 6.31739C4.92813 6.3174 4.92813 7.70627 4.92813 7.70627M22.9274 7.70054C22.9844 7.91685 23.005 8.14962 22.9829 8.39211L22.2892 15.9994C22.1847 17.1453 21.1673 18.0742 20.0167 18.0742H5.45646C4.79084 18.0742 4.45803 18.0742 4.23247 18.2801C4.00691 18.486 3.97669 18.8175 3.91625 19.4803L3.79223 20.8405C3.58327 23.1321 5.27935 24.9899 7.58053 24.9899H9.66387M21.4694 24.9899H13.8305M13.8305 24.9899C13.7261 26.1358 12.7086 27.0646 11.558 27.0646C10.4074 27.0646 9.55939 26.1358 9.66387 24.9899M13.8305 24.9899C13.935 23.8441 13.087 22.9152 11.9364 22.9152C10.7858 22.9152 9.76835 23.8441 9.66387 24.9899" stroke="#D64657" stroke-width="1.62662" stroke-linecap="round"/>
<path d="M3.5387 15.3447H6.31647" stroke="#D64657" stroke-width="1.62662" stroke-linecap="round"/>
<path d="M3.5387 12.5669H7.70536" stroke="#D64657" stroke-width="1.62662" stroke-linecap="round"/>
<path d="M3.5387 9.78906H9.09425" stroke="#D64657" stroke-width="1.62662" stroke-linecap="round"/>
<path d="M14.8216 9.52214C14.7571 9.64923 14.7424 9.81034 14.7131 10.1326L14.653 10.791C14.6516 10.8066 14.6509 10.8144 14.6456 10.8193C14.6402 10.8242 14.6324 10.8242 14.6167 10.8242H13.9555C13.632 10.8242 13.4702 10.8242 13.3378 10.8768C13.1612 10.947 13.0138 11.0816 12.9278 11.2511C12.8634 11.3782 12.8487 11.5393 12.8193 11.8615C12.7899 12.1837 12.7752 12.3449 12.8165 12.472C12.8715 12.6414 12.9944 12.776 13.1582 12.8462C13.281 12.8989 13.4428 12.8989 13.7664 12.8989H14.4275C14.4432 12.8989 14.4511 12.8989 14.4555 12.9037C14.4599 12.9086 14.4592 12.9164 14.4578 12.9321L14.3978 13.5905C14.3684 13.9127 14.3537 14.0738 14.395 14.2009C14.45 14.3704 14.5729 14.505 14.7367 14.5752C14.8595 14.6278 15.0213 14.6278 15.3448 14.6278C15.6684 14.6278 15.8302 14.6278 15.9626 14.5752C16.1392 14.505 16.2866 14.3704 16.3726 14.2009C16.437 14.0738 16.4517 13.9127 16.4811 13.5905L16.5411 12.9321C16.5425 12.9164 16.5433 12.9086 16.5486 12.9037C16.5539 12.8989 16.5618 12.8989 16.5775 12.8989H17.2386C17.5622 12.8989 17.7239 12.8989 17.8564 12.8462C18.0329 12.776 18.1804 12.6414 18.2663 12.472C18.3308 12.3449 18.3455 12.1837 18.3748 11.8615C18.4042 11.5393 18.4189 11.3782 18.3776 11.2511C18.3226 11.0816 18.1997 10.947 18.0359 10.8768C17.9131 10.8242 17.7513 10.8242 17.4278 10.8242H16.7667C16.7509 10.8242 16.7431 10.8242 16.7387 10.8193C16.7342 10.8144 16.7349 10.8066 16.7364 10.791L16.7964 10.1326C16.8258 9.81034 16.8405 9.64923 16.7992 9.52214C16.7442 9.35268 16.6212 9.21805 16.4575 9.14786C16.3347 9.09521 16.1729 9.09521 15.8493 9.09521C15.5257 9.09521 15.364 9.09521 15.2315 9.14786C15.055 9.21805 14.9075 9.35268 14.8216 9.52214Z" stroke="#D64657" stroke-width="1.62662"/>
</svg>
