<svg width="34" height="34" viewBox="0 0 34 34" fill="none" xmlns="http://www.w3.org/2000/svg">
<path d="M26.0505 25.3934V25.3934C28.0001 25.3934 29.724 23.8195 29.901 21.8779L30.1575 19.0656M26.0505 25.3934C25.9443 26.5583 24.9099 27.5026 23.7402 27.5026C22.5705 27.5026 21.7083 26.5583 21.8145 25.3934M26.0505 25.3934C26.1567 24.2285 25.2946 23.2841 24.1249 23.2841C22.9551 23.2841 21.9207 24.2285 21.8145 25.3934M28.6753 12.7379L27.4939 10.3492C26.946 9.24132 26.672 8.68737 26.2073 8.3359C26.0689 8.23129 25.9195 8.14111 25.761 8.06661C25.2287 7.81632 24.5847 7.81632 23.2967 7.81632V7.81632M28.6753 12.7379L29.7643 14.9398C30.0872 15.5927 30.2487 15.9191 30.3137 16.2796C30.3786 16.6402 30.3442 17.0181 30.2753 17.7739L30.1575 19.0656M28.6753 12.7379H26.4985C26.1086 12.7379 25.7638 13.0527 25.7284 13.441L25.3437 17.6595C25.2729 18.4361 25.8477 19.0656 26.6275 19.0656H30.1575M23.2967 7.81632C23.0807 6.9971 22.3497 6.41016 21.4275 6.41016H11.352C11.352 6.41016 7.11602 6.41015 6.41003 6.41016C4.99803 6.41017 4.99803 7.82216 4.99803 7.82216M23.2967 7.81632C23.3547 8.03623 23.3756 8.27288 23.3531 8.5194L22.6479 16.2533C22.5417 17.4182 21.5074 18.3625 20.3376 18.3625H5.51167C4.84604 18.3625 4.51323 18.3625 4.28767 18.5685C4.06211 18.7744 4.03189 19.1058 3.97145 19.7687L3.84323 21.1749C3.63079 23.5047 5.35509 25.3934 7.69457 25.3934H9.81256M21.8145 25.3934H14.0486M14.0486 25.3934C13.9423 26.5583 12.908 27.5026 11.7382 27.5026C10.5685 27.5026 9.70634 26.5583 9.81256 25.3934M14.0486 25.3934C14.1548 24.2285 13.2926 23.2841 12.1229 23.2841C10.9531 23.2841 9.91878 24.2285 9.81256 25.3934" stroke="#0064FA" stroke-width="1.62662" stroke-linecap="round"/>
<path d="M3.58557 15.5874H6.40956" stroke="#0064FA" stroke-width="1.62662" stroke-linecap="round"/>
<path d="M3.58557 12.7642H7.82156" stroke="#0064FA" stroke-width="1.62662" stroke-linecap="round"/>
<path d="M3.58557 9.93994H9.23356" stroke="#0064FA" stroke-width="1.62662" stroke-linecap="round"/>
<path d="M15.056 9.6684C14.9905 9.7976 14.9756 9.9614 14.9457 10.289L14.8847 10.9583C14.8832 10.9742 14.8825 10.9822 14.8771 10.9871C14.8717 10.9921 14.8637 10.9921 14.8477 10.9921H14.1756C13.8466 10.9921 13.6821 10.9921 13.5475 11.0456C13.368 11.117 13.2181 11.2538 13.1307 11.4261C13.0652 11.5553 13.0503 11.7191 13.0204 12.0467C12.9905 12.3743 12.9756 12.5381 13.0176 12.6673C13.0735 12.8396 13.1985 12.9764 13.365 13.0478C13.4898 13.1013 13.6543 13.1013 13.9833 13.1013H14.6554C14.6713 13.1013 14.6793 13.1013 14.6838 13.1063C14.6883 13.1112 14.6876 13.1192 14.6862 13.1351L14.6251 13.8044C14.5953 14.132 14.5803 14.2958 14.6223 14.425C14.6782 14.5973 14.8032 14.7341 14.9697 14.8055C15.0945 14.859 15.259 14.859 15.588 14.859C15.9169 14.859 16.0814 14.859 16.216 14.8055C16.3955 14.7341 16.5454 14.5973 16.6328 14.425C16.6983 14.2958 16.7133 14.132 16.7431 13.8044L16.8042 13.1351C16.8056 13.1192 16.8063 13.1112 16.8118 13.1063C16.8172 13.1013 16.8252 13.1013 16.8411 13.1013H17.5132C17.8422 13.1013 18.0067 13.1013 18.1413 13.0478C18.3208 12.9764 18.4707 12.8396 18.5581 12.6673C18.6236 12.5381 18.6385 12.3743 18.6684 12.0467C18.6983 11.7191 18.7132 11.5553 18.6713 11.4261C18.6153 11.2538 18.4903 11.117 18.3239 11.0456C18.199 10.9921 18.0345 10.9921 17.7056 10.9921H17.0335C17.0175 10.9921 17.0095 10.9921 17.005 10.9871C17.0005 10.9822 17.0012 10.9742 17.0026 10.9583L17.0637 10.289C17.0936 9.9614 17.1085 9.7976 17.0665 9.6684C17.0106 9.49612 16.8856 9.35925 16.7191 9.28789C16.5943 9.23438 16.4298 9.23438 16.1008 9.23438C15.7719 9.23438 15.6074 9.23438 15.4728 9.28789C15.2933 9.35925 15.1434 9.49612 15.056 9.6684Z" stroke="#0064FA" stroke-width="1.62662"/>
</svg>
