<svg width="24" height="25" viewBox="0 0 24 25" fill="none" xmlns="http://www.w3.org/2000/svg">
<path d="M4.93055 23.25C4.51055 23.25 4.12055 23.15 3.77055 22.95C3.00055 22.5 2.56055 21.59 2.56055 20.46V6.36C2.56055 3.82 4.63055 1.75 7.17055 1.75H16.8205C19.3605 1.75 21.4305 3.82 21.4305 6.36V20.45C21.4305 21.58 20.9905 22.49 20.2205 22.94C19.4505 23.39 18.4405 23.34 17.4505 22.79L12.5705 20.08C12.2805 19.92 11.7105 19.92 11.4205 20.08L6.54055 22.79C6.00055 23.09 5.45055 23.25 4.93055 23.25ZM7.18055 3.25C5.47055 3.25 4.07055 4.65 4.07055 6.36V20.45C4.07055 21.04 4.24055 21.48 4.54055 21.65C4.84055 21.82 5.31055 21.77 5.82055 21.48L10.7005 18.77C11.4405 18.36 12.5605 18.36 13.3005 18.77L18.1805 21.48C18.6905 21.77 19.1605 21.83 19.4605 21.65C19.7605 21.47 19.9305 21.03 19.9305 20.45V6.36C19.9305 4.65 18.5305 3.25 16.8205 3.25H7.18055Z" fill="#0064FA"/>
<path d="M11.0893 13.7504C10.8993 13.7504 10.7093 13.6804 10.5593 13.5304L9.0593 12.0304C8.7693 11.7404 8.7693 11.2604 9.0593 10.9704C9.3493 10.6804 9.8293 10.6804 10.1193 10.9704L11.0893 11.9404L14.5593 8.47043C14.8493 8.18043 15.3293 8.18043 15.6193 8.47043C15.9093 8.76043 15.9093 9.24043 15.6193 9.53043L11.6193 13.5304C11.4693 13.6804 11.2793 13.7504 11.0893 13.7504Z" fill="#0064FA"/>
</svg>
