<svg width="24" height="25" viewBox="0 0 24 25" fill="none" xmlns="http://www.w3.org/2000/svg">
<path d="M4.93006 23.25C4.51006 23.25 4.12006 23.15 3.77006 22.95C3.00006 22.5 2.56006 21.59 2.56006 20.46V6.36C2.56006 3.82 4.63006 1.75 7.17006 1.75H16.8201C19.3601 1.75 21.4301 3.82 21.4301 6.36V20.45C21.4301 21.58 20.9901 22.49 20.2201 22.94C19.4501 23.39 18.4401 23.34 17.4501 22.79L12.5701 20.08C12.2801 19.92 11.7101 19.92 11.4201 20.08L6.54006 22.79C6.00006 23.09 5.45006 23.25 4.93006 23.25ZM7.18006 3.25C5.47006 3.25 4.07006 4.65 4.07006 6.36V20.45C4.07006 21.04 4.24006 21.48 4.54006 21.65C4.84006 21.82 5.31006 21.77 5.82006 21.48L10.7001 18.77C11.4401 18.36 12.5601 18.36 13.3001 18.77L18.1801 21.48C18.6901 21.77 19.1601 21.83 19.4601 21.65C19.7601 21.47 19.9301 21.03 19.9301 20.45V6.36C19.9301 4.65 18.5301 3.25 16.8201 3.25H7.18006Z" fill="#D64657"/>
<path d="M11.0898 13.7499C10.8998 13.7499 10.7098 13.6799 10.5598 13.5299L9.05979 12.0299C8.76979 11.7399 8.76979 11.2599 9.05979 10.9699C9.34979 10.6799 9.82978 10.6799 10.1198 10.9699L11.0898 11.9399L14.5598 8.46994C14.8498 8.17994 15.3298 8.17994 15.6198 8.46994C15.9098 8.75994 15.9098 9.23994 15.6198 9.52994L11.6198 13.5299C11.4698 13.6799 11.2798 13.7499 11.0898 13.7499Z" fill="#D64657"/>
</svg>
