<svg width="24" height="25" viewBox="0 0 24 25" fill="none" xmlns="http://www.w3.org/2000/svg">
<path d="M8.7475 20.8375C8.5575 20.8375 8.3675 20.7675 8.2175 20.6175C7.9275 20.3275 7.9275 19.8475 8.2175 19.5575L14.7375 13.0375C15.2175 12.5575 15.2175 11.7775 14.7375 11.2975L8.2175 4.7775C7.9275 4.4875 7.9275 4.0075 8.2175 3.7175C8.5075 3.4275 8.9875 3.4275 9.2775 3.7175L15.7975 10.2375C16.3075 10.7475 16.5975 11.4375 16.5975 12.1675C16.5975 12.8975 16.3175 13.5875 15.7975 14.0975L9.2775 20.6175C9.1275 20.7575 8.9375 20.8375 8.7475 20.8375Z" fill="#262626"/>
</svg>
