<svg width="24" height="24" viewBox="0 0 24 24" fill="none" xmlns="http://www.w3.org/2000/svg">
<g id="icon" clip-path="url(#clip0_1103_26571)">
<g id="call-incoming">
<g id="call-incoming_2">
<path id="Vector" d="M21.9622 18.33C21.9622 18.69 21.8822 19.06 21.7122 19.42C21.5422 19.78 21.3222 20.12 21.0322 20.44C20.5422 20.98 20.0022 21.37 19.3922 21.62C18.7922 21.87 18.1422 22 17.4422 22C16.4222 22 15.3322 21.76 14.1822 21.27C13.0322 20.78 11.8822 20.12 10.7422 19.29C9.59219 18.45 8.50219 17.52 7.46219 16.49C6.43219 15.45 5.50219 14.36 4.67219 13.22C3.85219 12.08 3.19219 10.94 2.71219 9.81C2.23219 8.67 1.99219 7.58 1.99219 6.54C1.99219 5.86 2.11219 5.21 2.35219 4.61C2.59219 4 2.97219 3.44 3.50219 2.94C4.14219 2.31 4.84219 2 5.58219 2C5.86219 2 6.14219 2.06 6.39219 2.18C6.65219 2.3 6.88219 2.48 7.06219 2.74L9.38219 6.01C9.56219 6.26 9.69219 6.49 9.78219 6.71C9.87219 6.92 9.92219 7.13 9.92219 7.32C9.92219 7.56 9.85219 7.8 9.71219 8.03C9.58219 8.26 9.39219 8.5 9.15219 8.74L8.39219 9.53C8.28219 9.64 8.23219 9.77 8.23219 9.93C8.23219 10.01 8.24219 10.08 8.26219 10.16C8.29219 10.24 8.32219 10.3 8.34219 10.36C8.52219 10.69 8.83219 11.12 9.27219 11.64C9.72219 12.16 10.2022 12.69 10.7222 13.22C11.2622 13.75 11.7822 14.24 12.3122 14.69C12.8322 15.13 13.2622 15.43 13.6022 15.61C13.6522 15.63 13.7122 15.66 13.7822 15.69C13.8622 15.72 13.9422 15.73 14.0322 15.73C14.2022 15.73 14.3322 15.67 14.4422 15.56L15.2022 14.81C15.4522 14.56 15.6922 14.37 15.9222 14.25C16.1522 14.11 16.3822 14.04 16.6322 14.04C16.8222 14.04 17.0222 14.08 17.2422 14.17C17.4622 14.26 17.6922 14.39 17.9422 14.56L21.2522 16.91C21.5122 17.09 21.6922 17.3 21.8022 17.55C21.9022 17.8 21.9622 18.05 21.9622 18.33Z" stroke="#0064FA" stroke-width="1.5" stroke-miterlimit="10"/>
<path id="Vector_2" d="M16.1953 7.8H20.9953M16.1953 7.8V3V7.8Z" stroke="#0064FA" stroke-width="1.5" stroke-linecap="round" stroke-linejoin="round"/>
</g>
</g>
</g>
<defs>
<clipPath id="clip0_1103_26571">
<rect width="24" height="24" fill="white"/>
</clipPath>
</defs>
</svg>
