<svg width="22" height="22" viewBox="0 0 22 22" fill="none" xmlns="http://www.w3.org/2000/svg">
<path d="M15.9945 20.8538C14.9587 20.8538 13.8679 20.6063 12.7404 20.1297C11.6404 19.6622 10.5312 19.0205 9.44953 18.2413C8.37703 17.453 7.3412 16.573 6.36036 15.6105C5.3887 14.6297 4.5087 13.5938 3.72953 12.5305C2.9412 11.4305 2.3087 10.3305 1.85953 9.26717C1.38286 8.13051 1.14453 7.03051 1.14453 5.99467C1.14453 5.27967 1.27286 4.60134 1.52036 3.96884C1.77703 3.31801 2.18953 2.71301 2.7487 2.19051C3.45453 1.49384 4.2612 1.14551 5.12286 1.14551C5.48036 1.14551 5.84703 1.22801 6.1587 1.37467C6.5162 1.53967 6.8187 1.78717 7.0387 2.11717L9.16536 5.11467C9.35786 5.38051 9.50453 5.63717 9.60536 5.89384C9.72453 6.16884 9.7887 6.44384 9.7887 6.70967C9.7887 7.05801 9.68786 7.39717 9.49536 7.71801C9.35786 7.96551 9.14703 8.23134 8.8812 8.49717L8.25786 9.14801C8.26703 9.17551 8.2762 9.19384 8.28536 9.21217C8.39536 9.40467 8.61536 9.73467 9.03703 10.2297C9.4862 10.743 9.90786 11.2105 10.3295 11.6413C10.8704 12.173 11.3195 12.5947 11.7412 12.943C12.2637 13.383 12.6029 13.603 12.8045 13.7038L12.7862 13.7497L13.4554 13.0897C13.7395 12.8055 14.0145 12.5947 14.2804 12.4572C14.7845 12.1455 15.4262 12.0905 16.0679 12.3563C16.3062 12.4572 16.5629 12.5947 16.8379 12.7872L19.8812 14.9505C20.2204 15.1797 20.4679 15.473 20.6145 15.8213C20.752 16.1697 20.8162 16.4905 20.8162 16.8113C20.8162 17.2513 20.7154 17.6913 20.5229 18.1038C20.3304 18.5163 20.092 18.8738 19.7895 19.2038C19.267 19.7813 18.6987 20.1938 18.0387 20.4597C17.4062 20.7163 16.7187 20.8538 15.9945 20.8538ZM5.12286 2.52051C4.6187 2.52051 4.1512 2.74051 3.70203 3.18051C3.28036 3.57467 2.98703 4.00551 2.8037 4.47301C2.6112 4.94967 2.51953 5.45384 2.51953 5.99467C2.51953 6.84717 2.7212 7.77301 3.12453 8.72634C3.53703 9.69801 4.11453 10.7063 4.84786 11.7147C5.5812 12.723 6.41536 13.7038 7.33203 14.6297C8.2487 15.5372 9.2387 16.3805 10.2562 17.123C11.2462 17.8472 12.2637 18.4338 13.272 18.8555C14.8395 19.5247 16.3062 19.6805 17.5162 19.1763C17.9837 18.9838 18.3962 18.6905 18.772 18.2688C18.9829 18.0397 19.1479 17.7922 19.2854 17.4988C19.3954 17.2697 19.4504 17.0313 19.4504 16.793C19.4504 16.6463 19.4229 16.4997 19.3495 16.3347C19.322 16.2797 19.267 16.1788 19.0929 16.0597L16.0495 13.8963C15.8662 13.768 15.7012 13.6763 15.5454 13.6122C15.3437 13.5297 15.2612 13.4472 14.9495 13.6397C14.7662 13.7313 14.6012 13.8688 14.4179 14.0522L13.7212 14.7397C13.3637 15.088 12.8137 15.1705 12.392 15.0147L12.1445 14.9047C11.7687 14.703 11.3287 14.3913 10.8429 13.9788C10.4029 13.603 9.9262 13.163 9.3487 12.5947C8.89953 12.1363 8.45036 11.6505 7.98286 11.1097C7.55203 10.6055 7.24036 10.1747 7.04786 9.81717L6.93786 9.54217C6.88286 9.33134 6.86453 9.21217 6.86453 9.08384C6.86453 8.75384 6.9837 8.46051 7.21286 8.23134L7.90036 7.51634C8.0837 7.33301 8.2212 7.15884 8.31286 7.00301C8.3862 6.88384 8.4137 6.78301 8.4137 6.69134C8.4137 6.61801 8.3862 6.50801 8.34036 6.39801C8.2762 6.25134 8.17536 6.08634 8.04703 5.91217L5.92036 2.90551C5.8287 2.77717 5.7187 2.68551 5.5812 2.62134C5.43453 2.55717 5.2787 2.52051 5.12286 2.52051ZM12.7862 13.7588L12.6395 14.3822L12.887 13.7405C12.8412 13.7313 12.8045 13.7405 12.7862 13.7588Z" fill="#262626"/>
<path d="M14.85 2.06289L19.25 2.06289C19.6258 2.06289 19.9375 2.37456 19.9375 2.75039V7.15039C19.9375 7.52622 19.6258 7.83789 19.25 7.83789C18.8742 7.83789 18.5625 7.52622 18.5625 7.15039V3.43789L14.85 3.43789C14.4742 3.43789 14.1625 3.12622 14.1625 2.75039C14.1625 2.37456 14.4742 2.06289 14.85 2.06289Z" fill="#262626"/>
</svg>
