<svg width="28" height="28" viewBox="0 0 28 28" fill="none" xmlns="http://www.w3.org/2000/svg">
<path d="M9.33398 14.2334H17.5007" stroke="#0064FA" stroke-width="1.75" stroke-miterlimit="10" stroke-linecap="round" stroke-linejoin="round"/>
<path d="M9.33398 18.9004H14.444" stroke="#0064FA" stroke-width="1.75" stroke-miterlimit="10" stroke-linecap="round" stroke-linejoin="round"/>
<path d="M11.6673 7.00016H16.334C18.6673 7.00016 18.6673 5.8335 18.6673 4.66683C18.6673 2.3335 17.5007 2.3335 16.334 2.3335H11.6673C10.5007 2.3335 9.33398 2.3335 9.33398 4.66683C9.33398 7.00016 10.5007 7.00016 11.6673 7.00016Z" stroke="#0064FA" stroke-width="1.75" stroke-miterlimit="10" stroke-linecap="round" stroke-linejoin="round"/>
<path d="M18.6667 4.68994C22.5517 4.89994 24.5 6.33494 24.5 11.6666V18.6666C24.5 23.3333 23.3333 25.6666 17.5 25.6666H10.5C4.66667 25.6666 3.5 23.3333 3.5 18.6666V11.6666C3.5 6.34661 5.44833 4.89994 9.33333 4.68994" stroke="#0064FA" stroke-width="1.75" stroke-miterlimit="10" stroke-linecap="round" stroke-linejoin="round"/>
</svg>
