<svg width="22" height="22" viewBox="0 0 22 22" fill="none" xmlns="http://www.w3.org/2000/svg">
<mask id="path-1-inside-1_1151_23784" fill="white">
<path d="M11.0003 19.6217C6.24397 19.6217 2.37793 15.7557 2.37793 10.9994C2.37793 6.243 6.24397 2.37695 11.0003 2.37695C15.7567 2.37695 19.6227 6.243 19.6227 10.9994C19.6227 15.7557 15.7567 19.6217 11.0003 19.6217ZM11.0003 3.58008C6.9097 3.58008 3.58105 6.90872 3.58105 10.9994C3.58105 15.09 6.9097 18.4186 11.0003 18.4186C15.091 18.4186 18.4196 15.09 18.4196 10.9994C18.4196 6.90872 15.091 3.58008 11.0003 3.58008Z"/>
</mask>
<path d="M11.0003 18.3117C6.96747 18.3117 3.68793 15.0322 3.68793 10.9994H1.06793C1.06793 16.4792 5.52048 20.9317 11.0003 20.9317V18.3117ZM3.68793 10.9994C3.68793 6.96649 6.96747 3.68695 11.0003 3.68695V1.06695C5.52048 1.06695 1.06793 5.5195 1.06793 10.9994H3.68793ZM11.0003 3.68695C15.0332 3.68695 18.3127 6.96649 18.3127 10.9994H20.9327C20.9327 5.5195 16.4802 1.06695 11.0003 1.06695V3.68695ZM18.3127 10.9994C18.3127 15.0322 15.0332 18.3117 11.0003 18.3117V20.9317C16.4802 20.9317 20.9327 16.4792 20.9327 10.9994H18.3127ZM11.0003 2.27008C6.18621 2.27008 2.27105 6.18523 2.27105 10.9994H4.89105C4.89105 7.63222 7.63319 4.89008 11.0003 4.89008V2.27008ZM2.27105 10.9994C2.27105 15.8135 6.18621 19.7286 11.0003 19.7286V17.1086C7.63319 17.1086 4.89105 14.3665 4.89105 10.9994H2.27105ZM11.0003 19.7286C15.8144 19.7286 19.7296 15.8135 19.7296 10.9994H17.1096C17.1096 14.3665 14.3675 17.1086 11.0003 17.1086V19.7286ZM19.7296 10.9994C19.7296 6.18523 15.8144 2.27008 11.0003 2.27008V4.89008C14.3675 4.89008 17.1096 7.63222 17.1096 10.9994H19.7296Z" fill="#D64657" mask="url(#path-1-inside-1_1151_23784)"/>
<mask id="path-3-inside-2_1151_23784" fill="white">
<path d="M8.73042 13.8718C8.57802 13.8718 8.42563 13.8156 8.30531 13.6953C8.07271 13.4627 8.07271 13.0777 8.30531 12.8451L12.8451 8.30531C13.0777 8.07271 13.4627 8.07271 13.6953 8.30531C13.9279 8.53792 13.9279 8.92292 13.6953 9.15552L9.15552 13.6953C9.04323 13.8156 8.88281 13.8718 8.73042 13.8718Z"/>
</mask>
<path d="M8.73042 13.8718C8.57802 13.8718 8.42563 13.8156 8.30531 13.6953C8.07271 13.4627 8.07271 13.0777 8.30531 12.8451L12.8451 8.30531C13.0777 8.07271 13.4627 8.07271 13.6953 8.30531C13.9279 8.53792 13.9279 8.92292 13.6953 9.15552L9.15552 13.6953C9.04323 13.8156 8.88281 13.8718 8.73042 13.8718Z" fill="#D64657"/>
<path d="M9.15552 13.6953L8.22921 12.769L8.21324 12.785L8.19784 12.8015L9.15552 13.6953ZM8.73042 12.5618C8.90671 12.5618 9.09332 12.6307 9.23162 12.769L7.379 14.6216C7.75793 15.0006 8.24933 15.1818 8.73042 15.1818V12.5618ZM9.23162 12.769C9.5106 13.048 9.5106 13.4924 9.23162 13.7714L7.379 11.9188C6.63481 12.663 6.63481 13.8774 7.379 14.6216L9.23162 12.769ZM9.23162 13.7714L13.7714 9.23162L11.9188 7.379L7.379 11.9188L9.23162 13.7714ZM13.7714 9.23162C13.4924 9.5106 13.048 9.5106 12.769 9.23162L14.6216 7.379C13.8774 6.63481 12.663 6.63481 11.9188 7.379L13.7714 9.23162ZM12.769 9.23162C12.49 8.95264 12.49 8.50819 12.769 8.22921L14.6216 10.0818C15.3658 9.33764 15.3658 8.12319 14.6216 7.379L12.769 9.23162ZM12.769 8.22921L8.22921 12.769L10.0818 14.6216L14.6216 10.0818L12.769 8.22921ZM8.19784 12.8015C8.37309 12.6137 8.58245 12.5618 8.73042 12.5618V15.1818C9.18317 15.1818 9.71336 15.0175 10.1132 14.5891L8.19784 12.8015Z" fill="#D64657" mask="url(#path-3-inside-2_1151_23784)"/>
<mask id="path-5-inside-3_1151_23784" fill="white">
<path d="M13.2702 13.8718C13.1178 13.8718 12.9654 13.8156 12.8451 13.6953L8.30531 9.15552C8.07271 8.92292 8.07271 8.53792 8.30531 8.30531C8.53792 8.07271 8.92292 8.07271 9.15552 8.30531L13.6953 12.8451C13.9279 13.0777 13.9279 13.4627 13.6953 13.6953C13.575 13.8156 13.4226 13.8718 13.2702 13.8718Z"/>
</mask>
<path d="M13.2702 13.8718C13.1178 13.8718 12.9654 13.8156 12.8451 13.6953L8.30531 9.15552C8.07271 8.92292 8.07271 8.53792 8.30531 8.30531C8.53792 8.07271 8.92292 8.07271 9.15552 8.30531L13.6953 12.8451C13.9279 13.0777 13.9279 13.4627 13.6953 13.6953C13.575 13.8156 13.4226 13.8718 13.2702 13.8718Z" fill="#D64657"/>
<path d="M12.8451 13.6953L11.9188 14.6216L12.8451 13.6953ZM8.30531 9.15552L9.23162 8.22921L8.30531 9.15552ZM9.15552 8.30531L8.22921 9.23162L9.15552 8.30531ZM13.6953 12.8451L14.6216 11.9188L13.6953 12.8451ZM13.2702 12.5618C13.4465 12.5618 13.6331 12.6307 13.7714 12.769L11.9188 14.6216C12.2977 15.0006 12.7891 15.1818 13.2702 15.1818V12.5618ZM13.7714 12.769L9.23162 8.22921L7.379 10.0818L11.9188 14.6216L13.7714 12.769ZM9.23162 8.22921C9.5106 8.50819 9.5106 8.95264 9.23162 9.23162L7.379 7.379C6.63481 8.12319 6.63481 9.33764 7.379 10.0818L9.23162 8.22921ZM9.23162 9.23162C8.95264 9.5106 8.50819 9.5106 8.22921 9.23162L10.0818 7.379C9.33764 6.63481 8.12319 6.63481 7.379 7.379L9.23162 9.23162ZM8.22921 9.23162L12.769 13.7714L14.6216 11.9188L10.0818 7.379L8.22921 9.23162ZM12.769 13.7714C12.49 13.4924 12.49 13.048 12.769 12.769L14.6216 14.6216C15.3658 13.8774 15.3658 12.663 14.6216 11.9188L12.769 13.7714ZM12.769 12.769C12.9073 12.6307 13.0939 12.5618 13.2702 12.5618V15.1818C13.7513 15.1818 14.2427 15.0006 14.6216 14.6216L12.769 12.769Z" fill="#D64657" mask="url(#path-5-inside-3_1151_23784)"/>
</svg>
