<svg width="24" height="24" viewBox="0 0 24 24" fill="none" xmlns="http://www.w3.org/2000/svg">
<path d="M10.7996 22.1004C10.5096 22.1004 10.2196 22.0504 9.94955 21.9504C8.69955 21.5404 7.89955 20.1604 8.17955 18.8804L8.66955 15.7304C8.67955 15.6604 8.67955 15.5604 8.60955 15.4804C8.55955 15.4304 8.48955 15.4004 8.40955 15.4004H4.40955C3.42955 15.4004 2.57955 14.9904 2.07955 14.2804C1.58955 13.5904 1.48955 12.6804 1.80955 11.8004L4.19955 4.52039C4.56955 3.07039 6.11955 1.90039 7.71955 1.90039H11.5196C12.0796 1.90039 13.2996 2.07039 13.9496 2.72039L16.9796 5.06039L16.0596 6.25039L12.9596 3.85039C12.7096 3.60039 12.0796 3.40039 11.5196 3.40039H7.71955C6.81955 3.40039 5.84955 4.12039 5.64955 4.93039L3.22955 12.2804C3.06955 12.7204 3.09955 13.1204 3.30955 13.4104C3.52955 13.7204 3.92955 13.9004 4.41955 13.9004H8.41955C8.93955 13.9004 9.41955 14.1204 9.74955 14.5004C10.0896 14.8904 10.2396 15.4104 10.1596 15.9504L9.65955 19.1604C9.53955 19.7204 9.91955 20.3504 10.4596 20.5304C10.9396 20.7104 11.5796 20.4504 11.7996 20.1304L15.8996 14.0304L17.1396 14.8704L13.0396 20.9704C12.5696 21.6704 11.6796 22.1004 10.7996 22.1004Z" fill="#D64657"/>
<path d="M19.6191 18.1H18.6191C16.7691 18.1 15.8691 17.23 15.8691 15.45V5.65C15.8691 3.87 16.7691 3 18.6191 3H19.6191C21.4691 3 22.3691 3.87 22.3691 5.65V15.45C22.3691 17.23 21.4691 18.1 19.6191 18.1ZM18.6191 4.5C17.5291 4.5 17.3691 4.76 17.3691 5.65V15.45C17.3691 16.34 17.5291 16.6 18.6191 16.6H19.6191C20.7091 16.6 20.8691 16.34 20.8691 15.45V5.65C20.8691 4.76 20.7091 4.5 19.6191 4.5H18.6191Z" fill="#D64657"/>
</svg>
