<svg width="19" height="18" viewBox="0 0 19 18" fill="none" xmlns="http://www.w3.org/2000/svg">
<path d="M14.5 18C13.6616 18 12.8658 17.6874 12.2476 17.1261C11.9989 16.9129 11.7787 16.65 11.6082 16.3587C11.2955 15.8471 11.125 15.2432 11.125 14.625C11.125 13.7368 11.466 12.9055 12.0771 12.2732C12.7166 11.6124 13.5763 11.25 14.5 11.25C15.4663 11.25 16.3829 11.6621 17.0082 12.3726C17.5624 12.9908 17.875 13.7866 17.875 14.625C17.875 14.895 17.8395 15.165 17.7684 15.4208C17.6974 15.7405 17.5624 16.0745 17.3776 16.3658C16.7879 17.3747 15.6795 18 14.5 18ZM14.5 12.3158C13.8676 12.3158 13.285 12.5645 12.8445 13.0121C12.4253 13.4455 12.1908 14.0139 12.1908 14.625C12.1908 15.0442 12.3045 15.4563 12.5247 15.8116C12.6384 16.0105 12.7876 16.1881 12.9581 16.3373C13.3845 16.7281 13.9316 16.9413 14.5 16.9413C15.3029 16.9413 16.0632 16.515 16.4753 15.8258C16.5961 15.6268 16.6884 15.3995 16.7382 15.1792C16.7879 14.9945 16.8092 14.8168 16.8092 14.6321C16.8092 14.0637 16.5961 13.5166 16.2124 13.0903C15.7861 12.5929 15.1608 12.3158 14.5 12.3158Z" fill="#262626"/>
<path d="M15.5646 15.1439H13.4401C13.1488 15.1439 12.9072 14.9023 12.9072 14.611C12.9072 14.3197 13.1488 14.0781 13.4401 14.0781H15.5646C15.8559 14.0781 16.0975 14.3197 16.0975 14.611C16.0975 14.9023 15.8559 15.1439 15.5646 15.1439Z" fill="#262626"/>
<path d="M14.4997 16.2303C14.2084 16.2303 13.9668 15.9887 13.9668 15.6974V13.5729C13.9668 13.2816 14.2084 13.04 14.4997 13.04C14.791 13.04 15.0326 13.2816 15.0326 13.5729V15.6974C15.0326 15.9958 14.791 16.2303 14.4997 16.2303Z" fill="#262626"/>
<path fill-rule="evenodd" clip-rule="evenodd" d="M6.6252 0.637207C6.35596 0.637207 6.1377 0.855468 6.1377 1.12471V4.27471V5.84971C6.1377 6.6717 6.39961 7.433 6.84382 8.04461C5.1047 8.7431 3.8877 10.5043 3.8877 12.5435V15.2997C3.8877 16.4161 4.75539 17.3622 5.8752 17.3622H11.4144C11.156 17.0711 10.9381 16.7431 10.7696 16.3872H5.8752C5.33815 16.3872 4.8627 15.923 4.8627 15.2997V12.5435C4.8627 10.7317 6.04346 9.23411 7.6067 8.81647C8.17473 9.23748 8.87146 9.48721 9.6252 9.48721C10.3789 9.48721 11.0757 9.23748 11.6437 8.81647C12.5743 9.0651 13.3694 9.69648 13.8605 10.549C14.069 10.5166 14.2826 10.4997 14.5002 10.4997C14.6482 10.4997 14.7944 10.5075 14.9384 10.5227C14.4386 9.39347 13.5319 8.49657 12.4066 8.04461C12.8508 7.43301 13.1127 6.67171 13.1127 5.84971V4.27471V1.12471C13.1127 0.855468 12.8944 0.637207 12.6252 0.637207H6.6252ZM7.11269 3.78721V1.61221H12.1377V3.78721H7.11269ZM7.11269 4.76221H12.1377V5.84971C12.1377 6.68942 11.7718 7.43275 11.2065 7.91865C10.7724 8.29178 10.2224 8.51221 9.6252 8.51221C9.02799 8.51221 8.47798 8.29178 8.0439 7.91865C7.47863 7.43275 7.11269 6.68942 7.11269 5.84971V4.76221Z" fill="#262626"/>
</svg>
