<svg width="28" height="28" viewBox="0 0 28 28" fill="none" xmlns="http://www.w3.org/2000/svg">
<path d="M14.0003 3.79166C15.1279 3.79166 16.042 4.70575 16.042 5.83333C16.042 6.96091 15.1279 7.875 14.0003 7.875C12.8727 7.875 11.9587 6.96091 11.9587 5.83333C11.9587 4.70575 12.8727 3.79166 14.0003 3.79166Z" fill="#262626"/>
<path d="M14.0003 11.9583C15.1279 11.9583 16.042 12.8724 16.042 14C16.042 15.1276 15.1279 16.0417 14.0003 16.0417C12.8727 16.0417 11.9587 15.1276 11.9587 14C11.9587 12.8724 12.8727 11.9583 14.0003 11.9583Z" fill="#262626"/>
<path d="M14.0003 20.125C15.1279 20.125 16.042 21.0391 16.042 22.1667C16.042 23.2942 15.1279 24.2083 14.0003 24.2083C12.8727 24.2083 11.9587 23.2942 11.9587 22.1667C11.9587 21.0391 12.8727 20.125 14.0003 20.125Z" fill="#262626"/>
</svg>
