<svg width="500" height="373" viewBox="0 0 500 373" fill="none" xmlns="http://www.w3.org/2000/svg">
<g clip-path="url(#clip0_1496_37591)">
<path d="M250 372.61C357.082 372.61 443.89 367.542 443.89 361.29C443.89 355.038 357.082 349.97 250 349.97C142.917 349.97 56.1099 355.038 56.1099 361.29C56.1099 367.542 142.917 372.61 250 372.61Z" fill="#EFEFEF"/>
<path d="M360.6 208.099C360.48 208.099 360.36 208.099 360.24 208.089C333.61 205.909 315.27 183.139 314.5 182.169C312.97 180.239 313.29 177.429 315.22 175.889C317.15 174.359 319.96 174.679 321.49 176.609C321.7 176.879 337.39 196.219 359.12 198.979C366.17 191.989 372.1 173.499 371.45 167.899C371.45 167.849 371.44 167.799 371.44 167.739C371.29 165.939 370.96 159.779 372.73 156.099C373.8 153.879 376.47 152.939 378.69 154.009C380.91 155.079 381.85 157.749 380.78 159.969C380.34 160.889 380.13 164.209 380.34 166.959C381.33 176.159 373.36 199.379 363.34 207.149C362.55 207.759 361.59 208.089 360.6 208.089V208.099Z" fill="#262626"/>
<path d="M148.82 183.869C140.89 183.869 118.44 181.919 100.26 161.589C98.8501 160.009 98.7401 157.649 100 155.949C107.22 146.239 119.96 123.309 121.95 115.839C121.13 114.419 119.65 112.379 117.81 111.509C116.39 110.839 115.42 109.469 115.26 107.909L114.54 100.589C114.3 98.1291 116.09 95.9491 118.55 95.7091C121 95.4691 123.19 97.2591 123.43 99.7191L123.93 104.809C128.29 107.939 130.47 112.819 130.74 113.449C131.04 114.159 131.15 114.939 131.07 115.709C130.15 123.649 117.28 146.609 109.36 158.219C127.85 176.649 149.95 174.969 150.92 174.879C153.36 174.679 155.54 176.479 155.76 178.929C155.98 181.379 154.18 183.549 151.73 183.779C151.52 183.799 150.5 183.889 148.83 183.889L148.82 183.869Z" fill="#262626"/>
<path d="M292.87 361.139H280.9C279.5 361.139 278.19 360.489 277.34 359.379C276.5 358.269 276.22 356.829 276.59 355.479C279.72 344.239 281.25 335.099 282.41 320.769C278.17 300.819 274.18 282.559 274.14 282.369C273.61 279.959 275.14 277.579 277.55 277.049C279.96 276.519 282.34 278.049 282.87 280.459C282.91 280.649 286.99 299.319 291.29 319.539C291.38 319.959 291.41 320.389 291.37 320.819C290.36 333.679 289.06 342.569 286.69 352.199H292.87C295.34 352.199 297.34 354.199 297.34 356.669C297.34 359.139 295.34 361.139 292.87 361.139Z" fill="#262626"/>
<path d="M200.32 361.14H193.56C192.27 361.14 191.04 360.58 190.19 359.6C189.34 358.63 188.96 357.33 189.14 356.05C190.29 347.85 196.18 332.92 202.44 317.91C204.67 298.11 206.5 281.11 206.52 280.94C206.78 278.49 208.98 276.7 211.44 276.98C213.89 277.24 215.67 279.44 215.4 281.9C215.38 282.07 213.51 299.46 211.25 319.55C211.2 319.97 211.1 320.38 210.93 320.77C206.49 331.4 201.44 343.92 199.13 352.21H200.33C202.8 352.21 204.8 354.21 204.8 356.68C204.8 359.15 202.8 361.15 200.33 361.15L200.32 361.14Z" fill="#262626"/>
<path d="M204.21 56.0303L152.14 108.1C149.52 165.81 149.74 226.43 152.14 289.29H324.3C320.89 208.18 320.57 130.11 324.3 56.0403H204.2L204.21 56.0303Z" fill="white"/>
<path d="M324.31 290.17H152.15C151.67 290.17 151.28 289.79 151.26 289.31C148.76 224.05 148.76 163.06 151.26 108.05C151.27 107.83 151.36 107.62 151.52 107.46L203.59 55.3899C203.76 55.2199 203.98 55.1299 204.22 55.1299H324.32C324.56 55.1299 324.8 55.2299 324.97 55.4099C325.14 55.5899 325.23 55.8299 325.22 56.0699C321.63 127.41 321.63 203.69 325.22 289.24C325.23 289.48 325.14 289.72 324.97 289.9C324.8 290.07 324.57 290.17 324.33 290.17H324.31ZM153.01 288.38H323.38C319.84 203.52 319.84 127.79 323.38 56.9099H204.59L153.03 108.47C150.56 163.1 150.56 223.62 153.01 288.38Z" fill="#262626"/>
<path d="M214.28 164.229C214.08 159.879 211.61 156.429 208.75 156.529C205.89 156.629 203.74 160.249 203.93 164.599C204.13 168.949 206.6 172.399 209.46 172.299C212.32 172.199 214.47 168.579 214.28 164.229Z" fill="#0064FA"/>
<path d="M274.65 162.869C274.45 158.519 271.98 155.069 269.12 155.169C266.26 155.269 264.11 158.889 264.3 163.239C264.5 167.589 266.97 171.039 269.83 170.939C272.69 170.839 274.84 167.219 274.65 162.869Z" fill="#0064FA"/>
<path d="M229.35 182.079C245.18 176.429 257.41 183.069 257.98 183.379C258.6 183.729 258.82 184.499 258.47 185.119C258.12 185.729 257.34 185.949 256.72 185.609C256.58 185.529 242.33 177.849 225.31 186.619C224.68 186.939 223.9 186.699 223.57 186.079C223.24 185.449 223.48 184.679 224.11 184.359C225.89 183.439 227.64 182.689 229.34 182.079H229.35Z" fill="#0064FA"/>
<path d="M205.64 123.39C206.07 123.4 206.5 123.52 206.9 123.75C208.13 124.47 208.54 126.04 207.82 127.26C200.63 139.41 188.78 140.01 188.28 140.03C186.86 140.09 185.66 138.99 185.59 137.58C185.52 136.17 186.61 134.99 188.02 134.93C188.41 134.91 197.64 134.34 203.38 124.65C203.87 123.83 204.75 123.38 205.64 123.4V123.39Z" fill="#0064FA"/>
<path d="M266.05 121.919C266.87 121.759 267.75 121.999 268.38 122.629C276.41 130.659 285.52 129.019 285.9 128.949C287.29 128.679 288.65 129.579 288.93 130.959C289.21 132.339 288.33 133.679 286.95 133.959C286.45 134.049 274.8 136.279 264.74 126.219C263.74 125.219 263.74 123.599 264.74 122.609C265.11 122.239 265.57 122.009 266.05 121.919Z" fill="#0064FA"/>
<path opacity="0.2" d="M321.72 149.909L314.42 150.599C311.8 150.849 309.41 149.109 308.84 146.539L298.71 101.159C298.1 98.4191 299.76 95.6891 302.48 94.9691L322.07 89.8291L321.72 149.909Z" fill="#7D7F82"/>
<path opacity="0.2" d="M209.02 112.739C203.93 98.8393 198.84 76.6093 204.22 56.0293L152.15 108.099C166.86 113.019 190.32 115.169 209.02 112.749V112.739Z" fill="#7D7F82"/>
<path d="M204.21 108.09C198.5 91.2295 200.83 68.3095 204.21 56.0195L152.14 108.09C167.9 110.96 185.51 110.51 204.21 108.09Z" fill="white"/>
<path d="M175.96 110.97C167.27 110.97 159.32 110.3 151.99 108.97C151.66 108.91 151.4 108.68 151.3 108.36C151.2 108.04 151.29 107.7 151.52 107.46L203.59 55.3896C203.88 55.0996 204.32 55.0496 204.67 55.2496C205.02 55.4496 205.19 55.8696 205.08 56.2596C201.93 67.6996 199.33 90.8696 205.06 107.8C205.15 108.05 205.11 108.33 204.97 108.56C204.83 108.79 204.59 108.94 204.33 108.97C194.05 110.3 184.64 110.96 175.96 110.96V110.97ZM154 107.51C167.83 109.8 183.9 109.75 203.03 107.35C198.32 92.4196 199.39 72.6496 202.56 58.9496L154 107.51Z" fill="#262626"/>
<path d="M383.1 184.159C382.44 184.159 381.83 183.719 381.66 183.039L363.32 113.159C363.11 112.359 363.59 111.549 364.39 111.339C365.19 111.129 366 111.609 366.21 112.409L384.55 182.289C384.76 183.089 384.28 183.899 383.48 184.109C383.35 184.139 383.23 184.159 383.1 184.159Z" fill="#262626"/>
<path d="M401.449 58.383L306.105 83.3959C303.306 84.1303 301.632 86.9948 302.366 89.7941L314.433 135.788C315.167 138.587 318.031 140.261 320.831 139.526L416.174 114.514C418.974 113.779 420.647 110.915 419.913 108.115L407.847 62.1218C407.113 59.3225 404.248 57.6486 401.449 58.383Z" fill="#0064FA"/>
<path d="M396.69 111.961L336.536 127.743C333.737 128.477 332.063 131.342 332.797 134.141L336.568 148.514C337.302 151.314 340.167 152.988 342.966 152.253L403.12 136.472C405.92 135.738 407.594 132.873 406.859 130.074L403.088 115.7C402.354 112.901 399.489 111.227 396.69 111.961Z" fill="#0064FA"/>
<path d="M342.15 132.99L350.38 130.85L350.93 132.97L345.78 134.31L346.19 135.89L350.97 134.65L351.5 136.68L346.72 137.92L347.23 139.88L352.53 138.5L353.12 140.75L344.74 142.93L342.16 132.99H342.15Z" fill="white"/>
<path d="M354.81 140.299L352.23 130.359L357.35 129.029C358.3 128.779 359.04 128.679 359.59 128.709C360.13 128.739 360.62 128.939 361.04 129.299C361.46 129.659 361.75 130.159 361.92 130.789C362.06 131.339 362.07 131.849 361.94 132.309C361.81 132.769 361.57 133.179 361.22 133.539C361 133.769 360.67 133.989 360.24 134.209C360.64 134.239 360.94 134.289 361.13 134.369C361.26 134.419 361.47 134.549 361.76 134.759C362.04 134.969 362.24 135.139 362.35 135.269L364.58 137.759L361.11 138.659L358.68 136.049C358.37 135.709 358.12 135.499 357.92 135.429C357.66 135.329 357.39 135.319 357.11 135.399L356.84 135.469L357.89 139.499L354.81 140.299ZM356.36 133.589L357.66 133.249C357.8 133.209 358.06 133.099 358.44 132.899C358.63 132.799 358.77 132.659 358.86 132.459C358.95 132.259 358.96 132.049 358.9 131.829C358.82 131.509 358.65 131.289 358.4 131.169C358.15 131.049 357.75 131.069 357.19 131.209L355.84 131.559L356.37 133.579L356.36 133.589Z" fill="white"/>
<path d="M365.6 137.499L363.02 127.569L368.14 126.239C369.09 125.989 369.84 125.889 370.38 125.919C370.92 125.949 371.41 126.149 371.83 126.509C372.25 126.869 372.54 127.369 372.71 127.999C372.85 128.549 372.86 129.059 372.73 129.519C372.6 129.979 372.36 130.389 372.01 130.739C371.79 130.969 371.46 131.189 371.03 131.409C371.43 131.439 371.73 131.489 371.92 131.569C372.05 131.619 372.26 131.749 372.55 131.959C372.83 132.169 373.03 132.339 373.14 132.469L375.37 134.959L371.9 135.859L369.47 133.249C369.16 132.909 368.91 132.699 368.71 132.629C368.45 132.529 368.18 132.519 367.9 132.589L367.63 132.659L368.68 136.689L365.6 137.489V137.499ZM367.15 130.789L368.45 130.449C368.59 130.409 368.85 130.299 369.23 130.099C369.42 130.009 369.56 129.859 369.65 129.659C369.74 129.459 369.75 129.249 369.69 129.029C369.61 128.709 369.44 128.489 369.19 128.369C368.94 128.249 368.54 128.269 367.98 128.409L366.63 128.759L367.16 130.779L367.15 130.789Z" fill="white"/>
<path d="M374.45 129.899C374.03 128.279 374.15 126.899 374.82 125.759C375.49 124.619 376.63 123.839 378.24 123.419C379.89 122.989 381.28 123.099 382.41 123.759C383.54 124.409 384.31 125.539 384.72 127.139C385.02 128.299 385.07 129.309 384.88 130.149C384.68 130.999 384.27 131.719 383.64 132.329C383.01 132.939 382.14 133.379 381.04 133.669C379.92 133.959 378.95 134.019 378.12 133.859C377.29 133.699 376.55 133.289 375.89 132.629C375.23 131.979 374.75 131.069 374.45 129.909V129.899ZM377.52 129.119C377.78 130.119 378.15 130.799 378.64 131.139C379.13 131.479 379.69 131.569 380.33 131.399C380.99 131.229 381.44 130.879 381.69 130.359C381.94 129.839 381.92 129.019 381.63 127.909C381.39 126.969 381.02 126.339 380.53 126.009C380.04 125.679 379.47 125.589 378.83 125.759C378.21 125.919 377.77 126.269 377.51 126.809C377.25 127.339 377.25 128.119 377.51 129.129L377.52 129.119Z" fill="white"/>
<path d="M387.73 131.74L385.15 121.8L390.27 120.47C391.22 120.22 391.96 120.12 392.51 120.15C393.05 120.18 393.54 120.38 393.96 120.74C394.38 121.1 394.67 121.6 394.84 122.23C394.98 122.78 394.99 123.29 394.86 123.75C394.73 124.21 394.49 124.62 394.14 124.98C393.92 125.21 393.59 125.43 393.16 125.65C393.56 125.68 393.86 125.73 394.05 125.81C394.18 125.86 394.39 125.99 394.68 126.2C394.96 126.41 395.16 126.58 395.27 126.71L397.5 129.2L394.03 130.1L391.6 127.49C391.29 127.15 391.04 126.94 390.85 126.87C390.59 126.77 390.32 126.76 390.04 126.83L389.77 126.9L390.82 130.93L387.74 131.73L387.73 131.74ZM389.28 125.03L390.57 124.69C390.71 124.65 390.97 124.54 391.35 124.34C391.54 124.24 391.68 124.1 391.77 123.9C391.85 123.7 391.87 123.49 391.81 123.27C391.73 122.95 391.56 122.73 391.31 122.61C391.06 122.49 390.66 122.51 390.1 122.65L388.75 123L389.28 125.02V125.03Z" fill="white"/>
<path d="M318.74 93.2796L339.44 87.8496L341.27 94.8096L327.25 98.4896L327.74 103.4C328.59 102.69 329.46 102.09 330.35 101.62C331.24 101.14 332.15 100.78 333.08 100.54C336.22 99.7196 339.02 99.9996 341.47 101.38C343.92 102.76 345.53 104.9 346.28 107.78C346.81 109.81 346.82 111.89 346.3 114.02C345.78 116.15 344.73 117.95 343.14 119.42C341.55 120.89 339.31 122 336.43 122.76C334.36 123.3 332.54 123.57 330.96 123.57C329.38 123.57 327.97 123.31 326.73 122.8C325.49 122.29 324.42 121.63 323.52 120.82C322.62 120 321.76 118.92 320.95 117.56L329.52 114.28C330.1 115.64 330.89 116.58 331.86 117.11C332.84 117.64 333.87 117.76 334.95 117.48C336.16 117.16 337.04 116.44 337.6 115.31C338.16 114.18 338.19 112.7 337.71 110.88C337.22 109.01 336.46 107.75 335.43 107.08C334.4 106.41 333.23 106.26 331.9 106.61C331.06 106.83 330.3 107.25 329.62 107.87C329.11 108.32 328.61 109.03 328.12 110L320.41 110.88L318.75 93.2896L318.74 93.2796Z" fill="white"/>
<path d="M348.53 102.099C346.96 96.1293 346.94 91.6793 348.47 88.7293C349.99 85.7793 352.95 83.7293 357.35 82.5793C359.46 82.0293 361.26 81.8293 362.76 81.9993C364.25 82.1693 365.54 82.5493 366.61 83.1593C367.69 83.7693 368.59 84.4693 369.32 85.2593C370.05 86.0493 370.73 87.0193 371.35 88.1693C372.55 90.3593 373.48 92.7193 374.15 95.2593C375.64 100.949 375.77 105.369 374.54 108.519C373.31 111.669 370.33 113.859 365.63 115.089C362.99 115.779 360.75 115.919 358.9 115.509C357.05 115.089 355.39 114.209 353.93 112.859C352.87 111.899 351.87 110.479 350.92 108.579C349.97 106.689 349.18 104.529 348.54 102.099H348.53ZM357.18 99.8493C358.23 103.849 359.3 106.479 360.39 107.759C361.48 109.039 362.7 109.499 364.04 109.149C364.92 108.919 365.61 108.409 366.1 107.619C366.59 106.829 366.81 105.719 366.76 104.299C366.71 102.879 366.32 100.749 365.57 97.9093C364.48 93.7393 363.39 91.0393 362.31 89.7893C361.23 88.5393 359.98 88.0993 358.57 88.4693C357.13 88.8493 356.28 89.8493 356.02 91.4793C355.76 93.1093 356.15 95.8993 357.19 99.8593L357.18 99.8493Z" fill="white"/>
<path d="M378.193 95.1578C376.623 89.1878 376.603 84.7379 378.133 81.7879C379.653 78.8379 382.613 76.7879 387.013 75.6379C389.123 75.0879 390.923 74.8878 392.423 75.0578C393.913 75.2278 395.203 75.6079 396.273 76.2179C397.353 76.8279 398.253 77.5279 398.983 78.3179C399.713 79.1079 400.393 80.0778 401.013 81.2278C402.213 83.4178 403.143 85.7779 403.813 88.3179C405.303 94.0079 405.433 98.4278 404.203 101.578C402.973 104.728 399.993 106.918 395.293 108.148C392.653 108.838 390.413 108.978 388.563 108.568C386.713 108.148 385.053 107.268 383.593 105.918C382.533 104.958 381.533 103.538 380.583 101.638C379.633 99.7479 378.843 97.5878 378.203 95.1578H378.193ZM386.843 92.9078C387.893 96.9078 388.963 99.5379 390.053 100.818C391.143 102.098 392.363 102.558 393.703 102.208C394.583 101.978 395.273 101.468 395.763 100.678C396.253 99.8879 396.473 98.7779 396.423 97.3579C396.373 95.9379 395.983 93.8079 395.233 90.9679C394.143 86.7979 393.053 84.0978 391.973 82.8478C390.893 81.5978 389.643 81.1579 388.233 81.5279C386.793 81.9079 385.943 82.9079 385.683 84.5379C385.423 86.1679 385.813 88.9579 386.853 92.9179L386.843 92.9078Z" fill="white"/>
</g>
<defs>
<clipPath id="clip0_1496_37591">
<rect width="500" height="372.61" fill="white"/>
</clipPath>
</defs>
</svg>
