<svg width="20" height="20" viewBox="0 0 20 20" fill="none" xmlns="http://www.w3.org/2000/svg">
<path fill-rule="evenodd" clip-rule="evenodd" d="M10.1936 2.89458C9.83671 2.83393 9.35018 2.82933 8.47252 2.82933C6.98673 2.82933 5.93064 2.83056 5.12994 2.93772C4.34554 3.0427 3.89481 3.23962 3.5672 3.56724C3.23913 3.89531 3.04249 4.34464 2.93763 5.12456C2.83053 5.92119 2.82929 6.97132 2.82929 8.44947V11.5502C2.82929 13.0284 2.83053 14.0785 2.93763 14.8752C3.04249 15.6551 3.23913 16.1044 3.5672 16.4325C3.89527 16.7605 4.3446 16.9572 5.12452 17.062C5.92115 17.1691 6.97128 17.1704 8.44943 17.1704H11.5502C13.0283 17.1704 14.0785 17.1691 14.8751 17.062C15.655 16.9572 16.1044 16.7605 16.4324 16.4325C16.7605 16.1044 16.9571 15.6551 17.062 14.8752C17.1691 14.0785 17.1703 13.0284 17.1703 11.5502V11.2114C17.1703 10.0207 17.162 9.45624 17.0356 9.03087H14.6093C13.7312 9.03089 13.0136 9.0309 12.447 8.95473C11.8548 8.87511 11.3414 8.7028 10.9315 8.29296C10.5217 7.88312 10.3494 7.36968 10.2697 6.77747C10.1936 6.21091 10.1936 5.49329 10.1936 4.61513V2.89458ZM11.3564 3.49557V4.57351C11.3564 5.50352 11.3576 6.14254 11.4222 6.62253C11.4844 7.0858 11.5959 7.31296 11.7537 7.47074C11.9115 7.62853 12.1387 7.74003 12.6019 7.80231C13.0819 7.86684 13.721 7.86808 14.651 7.86808H16.2164C15.9866 7.64518 15.6922 7.37809 15.3099 7.03398L12.2411 4.27205C11.8648 3.93342 11.5848 3.68345 11.3564 3.49557ZM8.58544 1.66652C9.65877 1.66624 10.3522 1.66605 10.9904 1.91096C11.6287 2.15587 12.1418 2.61793 12.9357 3.33282C12.9631 3.3575 12.9908 3.38248 13.0189 3.40776L16.0877 6.16969C16.1204 6.19909 16.1527 6.22812 16.1846 6.2568C17.1021 7.0821 17.6955 7.61578 18.0146 8.33239C18.3338 9.04901 18.3335 9.84704 18.3331 11.0811C18.3331 11.124 18.3331 11.1674 18.3331 11.2114V11.594C18.3331 13.0186 18.3331 14.147 18.2144 15.0301C18.0922 15.9389 17.8348 16.6746 17.2546 17.2547C16.6745 17.8348 15.9389 18.0923 15.03 18.2145C14.1469 18.3332 13.0185 18.3332 11.5939 18.3332H8.4057C6.98108 18.3332 5.85269 18.3332 4.96958 18.2145C4.06073 18.0923 3.32511 17.8348 2.74498 17.2547C2.16486 16.6746 1.9074 15.9389 1.78521 15.0301C1.66648 14.147 1.66649 13.0186 1.6665 11.594V8.40574C1.66649 6.98112 1.66648 5.85273 1.78521 4.96962C1.9074 4.06077 2.16486 3.32515 2.74498 2.74502C3.32556 2.16445 4.06364 1.90727 4.9757 1.78521C5.86248 1.66652 6.99649 1.66653 8.4289 1.66654L8.47252 1.66654C8.51063 1.66654 8.54826 1.66653 8.58544 1.66652Z" fill="#7D7F82"/>
</svg>
