<svg width="32" height="32" viewBox="0 0 32 32" fill="none" xmlns="http://www.w3.org/2000/svg">
<g opacity="0.5">
<path d="M26.6668 12.6665V9.0665C26.6668 6.82629 26.6668 5.70619 26.2309 4.85054C25.8474 4.09789 25.2354 3.48597 24.4828 3.10248C23.6271 2.6665 22.507 2.6665 20.2668 2.6665H11.7335C9.49329 2.6665 8.37318 2.6665 7.51753 3.10248C6.76489 3.48597 6.15296 4.09789 5.76947 4.85054C5.3335 5.70619 5.3335 6.82629 5.3335 9.0665V22.9332C5.3335 25.1734 5.3335 26.2935 5.76947 27.1491C6.15296 27.9018 6.76489 28.5137 7.51753 28.8972C8.37318 29.3332 9.49329 29.3332 11.7335 29.3332H18.6668M22.0002 20.0028C22.2351 19.335 22.6988 18.7718 23.3091 18.4131C23.9195 18.0544 24.6371 17.9233 25.3349 18.043C26.0326 18.1627 26.6655 18.5254 27.1214 19.067C27.5773 19.6086 27.8269 20.2941 27.8258 21.0021C27.8258 23.0006 24.8281 23.9998 24.8281 23.9998M24.8669 27.9998H24.8802" stroke="#7D7F82" stroke-width="2" stroke-linecap="round" stroke-linejoin="round"/>
</g>
</svg>
