<svg width="200" height="200" viewBox="0 0 200 200" fill="none" xmlns="http://www.w3.org/2000/svg">
<g opacity="0.5">
<path d="M75 125C82.0865 130.253 90.7047 133.333 100 133.333C109.295 133.333 117.914 130.253 125 125" stroke="#262626" stroke-width="5" stroke-linecap="round"/>
<ellipse cx="124.999" cy="79.167" rx="8.33334" ry="12.5" fill="#262626"/>
<ellipse cx="74.9994" cy="79.167" rx="8.33334" ry="12.5" fill="#262626"/>
<path d="M183.333 164.359V102.505C183.333 55.0981 146.023 16.667 99.9994 16.667C53.9756 16.667 16.666 55.0981 16.666 102.505V164.359C16.666 175.378 27.9242 182.545 37.4927 177.617C45.2265 173.634 54.4394 174.225 61.6338 179.165C69.7273 184.723 80.2714 184.723 88.3649 179.165L91.3037 177.147C96.5694 173.531 103.429 173.531 108.695 177.147L111.634 179.165C119.727 184.723 130.271 184.723 138.365 179.165C145.559 174.225 154.772 173.634 162.506 177.617C172.075 182.545 183.333 175.378 183.333 164.359Z" stroke="#262626" stroke-width="5"/>
</g>
</svg>
