<svg width="24" height="25" viewBox="0 0 24 25" fill="none" xmlns="http://www.w3.org/2000/svg">
<path d="M13.9382 2.87441L13.9381 2.87431C13.3505 2.53254 12.6821 2.35 12 2.35C11.3201 2.35 10.6497 2.53049 10.0634 2.8745C10.0634 2.87454 10.0633 2.87457 10.0633 2.87461L3.75756 6.55172L3.7575 6.55176C2.57608 7.2414 1.85 8.50729 1.85 9.87496V18.3077C1.85 20.4304 3.57121 22.1517 5.69393 22.1517H18.3061C20.4288 22.1517 22.15 20.4304 22.15 18.3077V9.87312C22.15 8.50733 21.4239 7.2414 20.2443 6.55358C20.2443 6.55358 20.2443 6.55357 20.2443 6.55356L13.9382 2.87441ZM19.6002 7.65451L19.6703 7.6954L19.6726 7.69425C20.4202 8.16294 20.8771 8.98763 20.8771 9.87312V18.3077C20.8771 19.7257 19.7259 20.8769 18.3079 20.8769H5.69577C4.27779 20.8769 3.12655 19.7257 3.12655 18.3077V9.87496C3.12655 8.96073 3.61164 8.11298 4.39982 7.65262L10.7058 3.97535L10.7061 3.97515C11.0982 3.74511 11.5464 3.62471 12 3.62471C12.4532 3.62471 12.9016 3.74677 13.2943 3.9754L19.6002 7.65451ZM14.518 14.4352C14.8704 14.4352 15.1572 14.1483 15.1572 13.796C15.1572 13.4436 14.8704 13.1568 14.518 13.1568H12.641V11.2798C12.641 10.9274 12.3542 10.6406 12.0018 10.6406C11.6495 10.6406 11.3626 10.9274 11.3626 11.2798V13.1568H9.48569C9.13333 13.1568 8.84649 13.4436 8.84649 13.796C8.84649 14.1483 9.13333 14.4352 9.48569 14.4352H11.3626V16.3121C11.3626 16.6645 11.6495 16.9513 12.0018 16.9513C12.3542 16.9513 12.641 16.6645 12.641 16.3121V14.4352H14.518Z" fill="#F15757" stroke="#F15757" stroke-width="0.3"/>
</svg>
