<svg width="28" height="27" viewBox="0 0 28 27" fill="none" xmlns="http://www.w3.org/2000/svg">
<path d="M16.3181 0.899604L16.3179 0.899474C15.5345 0.443775 14.6433 0.200391 13.7338 0.200391C12.8273 0.200391 11.9334 0.441028 11.1518 0.899692C11.1517 0.899749 11.1516 0.899807 11.1515 0.899864L2.74389 5.80269L2.74381 5.80273C1.16859 6.72226 0.200482 8.41012 0.200482 10.2337V21.4773C0.200482 24.3076 2.49543 26.6026 5.32572 26.6026H22.1419C24.9722 26.6026 27.2671 24.3076 27.2671 21.4773V10.2312C27.2671 8.41016 26.2991 6.72226 24.7262 5.80517C24.7262 5.80516 24.7262 5.80515 24.7262 5.80514L16.3181 0.899604ZM23.8675 7.27307L23.9609 7.32759L23.964 7.32605C24.9608 7.95097 25.57 9.05056 25.57 10.2312V21.4773C25.57 23.368 24.035 24.903 22.1444 24.903H5.32818C3.43753 24.903 1.90256 23.368 1.90256 21.4773V10.2337C1.90256 9.0147 2.54934 7.88436 3.60024 7.27056L12.0082 2.36752L12.0087 2.36725C12.5315 2.06054 13.1291 1.90001 13.7338 1.90001C14.3381 1.90001 14.936 2.06276 15.4595 2.36759L23.8675 7.27307ZM17.0911 16.314C17.561 16.314 17.9434 15.9315 17.9434 15.4617C17.9434 14.9919 17.561 14.6094 17.0911 14.6094H14.5885V12.1068C14.5885 11.637 14.2061 11.2545 13.7363 11.2545C13.2665 11.2545 12.884 11.637 12.884 12.1068V14.6094H10.3814C9.91159 14.6094 9.52914 14.9919 9.52914 15.4617C9.52914 15.9315 9.91159 16.314 10.3814 16.314H12.884V18.8166C12.884 19.2864 13.2665 19.6688 13.7363 19.6688C14.2061 19.6688 14.5885 19.2864 14.5885 18.8166V16.314H17.0911Z" fill="#0064FA" stroke="#0064FA" stroke-width="0.4"/>
</svg>
