<svg width="14" height="14" viewBox="0 0 14 14" fill="none" xmlns="http://www.w3.org/2000/svg">
<path d="M2.22535 11.1226L2.22598 11.1221L2.79957 11.6965C2.81831 11.7153 2.83408 11.7318 2.8474 11.7458C2.84952 11.748 2.85157 11.7502 2.85354 11.7523C2.86417 11.7635 2.87266 11.7725 2.88014 11.7799C2.88311 11.7829 2.88568 11.7854 2.88791 11.7875C2.89743 11.7785 2.90802 11.7672 2.9225 11.7517C2.93237 11.7411 2.94405 11.7287 2.95843 11.7137L2.95923 11.7128L2.95924 11.7128L3.72764 10.9434C3.81881 10.8521 3.90049 10.8019 3.99036 10.82C4.03255 10.8285 4.06952 10.851 4.10339 10.8778C4.1372 10.9046 4.17245 10.9395 4.21012 10.9772L5.24627 12.0147C5.25977 12.0282 5.27195 12.0405 5.28302 12.0517C5.31804 12.0871 5.34196 12.1112 5.36131 12.1273C5.37066 12.1352 5.37658 12.139 5.37991 12.1408C5.38159 12.1397 5.38401 12.1379 5.38726 12.1352C5.39581 12.1279 5.4065 12.1171 5.42151 12.1007C5.42834 12.0933 5.43587 12.085 5.44416 12.0758C5.47112 12.0459 5.50619 12.007 5.55178 11.9613L6.7131 10.7984C6.74845 10.7631 6.77214 10.7385 6.7874 10.7185C6.80269 10.6986 6.8037 10.6906 6.80377 10.6886C6.80382 10.6873 6.80398 10.6804 6.79056 10.6618C6.77687 10.6428 6.75446 10.6187 6.71963 10.5839L5.60838 9.47112C5.5705 9.43319 5.53933 9.39991 5.51771 9.36917C5.49585 9.3381 5.47962 9.30393 5.47998 9.26483C5.48034 9.22581 5.49714 9.19225 5.5187 9.16227C5.54003 9.13263 5.57034 9.10068 5.60605 9.06465L5.60614 9.06456L7.2594 7.40363L7.25947 7.40356C7.32098 7.34196 7.37236 7.29649 7.42033 7.2692C7.47132 7.24018 7.52051 7.23056 7.57381 7.24256C7.62231 7.25348 7.66982 7.28163 7.72024 7.31483C7.74065 7.32827 7.76146 7.34249 7.78385 7.35779C7.82081 7.38305 7.86207 7.41125 7.91294 7.44373L7.91297 7.44374C9.01124 8.14573 10.5383 8.21485 11.4944 7.25645L11.4944 7.25643C11.8191 6.93134 12.0446 6.53288 12.1564 6.08734L12.1564 6.08727C12.4302 5.0012 11.9981 3.84521 11.2128 3.06849C10.4315 2.29588 9.24747 1.85866 8.16815 2.12858L8.1681 2.1286C7.73205 2.23722 7.34522 2.45751 7.02939 2.77909L7.02935 2.77913C6.16977 3.65263 6.11397 4.92534 6.62986 6.00577C6.66319 6.07553 6.69299 6.12819 6.71766 6.17179C6.72125 6.17813 6.72473 6.18428 6.7281 6.19026C6.75312 6.23473 6.7765 6.27724 6.78396 6.3195C6.79258 6.36838 6.77971 6.41099 6.75089 6.45467C6.72409 6.49531 6.6806 6.54121 6.62184 6.59952L2.22535 11.1226ZM2.22535 11.1226C2.21044 11.1077 2.19778 11.0953 2.18695 11.0847C2.16902 11.0671 2.15609 11.0544 2.14624 11.0434C2.14566 11.0428 2.14511 11.0421 2.1446 11.0416C2.14786 11.0382 2.15204 11.0341 2.15744 11.0291C2.16297 11.0239 2.16958 11.0179 2.17712 11.011C2.19664 10.9932 2.22243 10.9698 2.25194 10.9404C2.25195 10.9404 2.25196 10.9404 2.25197 10.9404L6.62181 6.59954L2.22535 11.1226ZM5.05439 12.7799L5.05471 12.7802C5.13279 12.8572 5.25781 12.9144 5.37127 12.9144C5.4845 12.9144 5.61083 12.8573 5.68816 12.7799L7.46333 11.0024C7.64233 10.8231 7.64233 10.5483 7.46333 10.369L6.4065 9.3108C6.40055 9.30485 6.39514 9.29945 6.39019 9.29452C6.37572 9.28009 6.36532 9.26972 6.35772 9.2615C6.35923 9.26009 6.36089 9.25857 6.36272 9.25691C6.3661 9.25383 6.36989 9.25044 6.37406 9.24671C6.39034 9.23212 6.41233 9.21243 6.43806 9.18667L7.4655 8.15785C7.48836 8.13496 7.50665 8.11611 7.52195 8.10033C7.54107 8.08062 7.55553 8.06572 7.56843 8.05374C7.57895 8.04396 7.5851 8.03954 7.58809 8.03765C7.58904 8.03802 7.59027 8.03853 7.5918 8.03925C7.59883 8.04254 7.60826 8.04805 7.62302 8.0574C7.62825 8.06071 7.63394 8.06436 7.64013 8.06834C7.66765 8.08602 7.70501 8.11001 7.75541 8.138C9.08976 8.8827 10.8366 8.87132 11.9714 7.73498L11.9715 7.73493C12.3825 7.32227 12.6696 6.81729 12.8114 6.25248C13.1459 4.92508 12.6382 3.52748 11.6871 2.58725L11.6469 2.62788L11.6871 2.58724C10.7428 1.65383 9.32124 1.14235 8.00336 1.47168C7.44565 1.61046 6.94984 1.8937 6.5463 2.30333L6.54629 2.30334C5.52454 3.3409 5.39313 4.83154 5.94123 6.12356C5.96132 6.17108 5.97964 6.20342 5.99288 6.22642C5.99958 6.23806 6.00373 6.24522 6.00671 6.25116C6.00607 6.25199 6.00534 6.25294 6.00448 6.254C5.99395 6.26704 5.97613 6.28474 5.94475 6.31589L5.93723 6.32336L1.50639 10.7253L1.50637 10.7253C1.32591 10.9048 1.32741 11.1797 1.50623 11.3587L2.57068 12.4246C2.74973 12.6039 3.02431 12.6039 3.20336 12.4246L3.85966 11.7674C3.87567 11.7514 3.88916 11.7376 3.90079 11.7258C3.92155 11.7046 3.93639 11.6894 3.94906 11.6782C3.95134 11.6762 3.95332 11.6746 3.95503 11.6732C3.95983 11.6776 3.966 11.6838 3.97435 11.6927C3.9799 11.6986 3.98621 11.7055 3.9933 11.7133C4.01346 11.7353 4.04 11.7644 4.07387 11.7981L5.05439 12.7799ZM5.38337 12.1424C5.38338 12.1424 5.38315 12.1424 5.38262 12.1422L5.38337 12.1424Z" fill="white" stroke="white" stroke-width="0.114285"/>
</svg>
