<svg width="33" height="33" viewBox="0 0 33 33" fill="none" xmlns="http://www.w3.org/2000/svg">
<g id="people">
<path id="Vector" d="M11.7801 30.1064L11.7794 30.1056L9.4534 27.7765C9.45338 27.7765 9.45336 27.7765 9.45334 27.7765C9.37301 27.6965 9.31006 27.6277 9.26225 27.5754C9.24543 27.557 9.23049 27.5406 9.21733 27.5266C9.19752 27.5055 9.18288 27.4907 9.17148 27.4803C9.16743 27.4836 9.16274 27.4875 9.15734 27.4923C9.12726 27.5189 9.09206 27.5548 9.04281 27.605C9.01522 27.6332 8.98323 27.6658 8.94526 27.7039L7.38841 29.2628C6.96367 29.6881 6.31232 29.6881 5.88759 29.2628L3.36254 26.7344C2.93834 26.3096 2.93478 25.6574 3.36288 25.2317L3.36292 25.2317L13.8736 14.7896C13.8798 14.7835 13.8857 14.7776 13.8915 14.7719C13.9659 14.698 14.0081 14.656 14.0331 14.6251C14.0352 14.6226 14.0369 14.6203 14.0384 14.6183C14.0318 14.6052 14.0229 14.5897 14.0089 14.5653L14.0056 14.5597C13.9742 14.5051 13.9307 14.4283 13.883 14.3155L14.0079 14.2627L13.8831 14.3157C12.5829 11.2508 12.8946 7.71474 15.3184 5.25347L15.3184 5.25345C16.2757 4.28174 17.4518 3.60985 18.7748 3.28064C21.901 2.49941 25.2733 3.71274 27.5133 5.92694L27.418 6.02334L27.5133 5.92695C29.7694 8.15734 30.9737 11.4727 30.1803 14.6215C29.8439 15.9613 29.1628 17.1592 28.1879 18.1381L28.1877 18.1382C25.4957 20.8338 21.3518 20.8608 18.1865 19.0942C18.1864 19.0941 18.1864 19.0941 18.1864 19.0941L18.2524 18.9757C17.9584 18.8125 17.865 18.7129 17.7792 18.7191C17.6992 18.7248 17.6259 18.8223 17.403 19.0455L14.9657 21.4861C14.8058 21.6462 14.7176 21.6956 14.7138 21.751C14.7105 21.7975 14.767 21.8481 14.8909 21.9721L17.3978 24.4824C17.7696 24.8547 17.7696 25.4209 17.3978 25.7932L13.1868 30.0098C13.0268 30.1701 12.7608 30.289 12.5311 30.289C12.3013 30.289 12.0379 30.1701 11.8753 30.0098L11.7801 30.1064ZM11.7801 30.1064C11.9653 30.2889 12.2619 30.4246 12.5311 30.4246C12.7996 30.4246 13.0993 30.2893 13.2828 30.1056L17.4937 25.889C17.9184 25.4638 17.9184 24.8119 17.4937 24.3867L14.9868 21.8763C14.9727 21.8622 14.9598 21.8494 14.9481 21.8377C14.9137 21.8034 14.8891 21.7789 14.8711 21.7594L11.7801 30.1064ZM5.06841 26.1742L5.06991 26.1731L6.43055 27.5356C6.47501 27.5801 6.51241 27.6192 6.544 27.6525C6.54906 27.6579 6.55391 27.663 6.5586 27.6679C6.5838 27.6945 6.60395 27.7158 6.62168 27.7335C6.62872 27.7406 6.63482 27.7465 6.64009 27.7514C6.66269 27.7301 6.68781 27.7033 6.72214 27.6666C6.74556 27.6415 6.77327 27.6119 6.80739 27.5763L6.80928 27.5743L6.8093 27.5743L8.63209 25.7491C8.84834 25.5326 9.04212 25.4135 9.25529 25.4564C9.35538 25.4765 9.44308 25.5299 9.52342 25.5936C9.60363 25.6571 9.68725 25.7398 9.77661 25.8293L12.2345 28.2905C12.2665 28.3225 12.2954 28.3517 12.3217 28.3782C12.4048 28.462 12.4615 28.5193 12.5074 28.5576C12.5296 28.5762 12.5436 28.5853 12.5515 28.5897C12.5555 28.587 12.5613 28.5828 12.569 28.5762C12.5893 28.559 12.6146 28.5332 12.6502 28.4945C12.6664 28.4769 12.6843 28.4571 12.7039 28.4353C12.7679 28.3643 12.8511 28.2721 12.9593 28.1638L15.7141 25.4053C15.7979 25.3213 15.8541 25.2629 15.8903 25.2157C15.9266 25.1684 15.929 25.1493 15.9292 25.1446C15.9293 25.1416 15.9297 25.1253 15.8978 25.0811C15.8654 25.0359 15.8122 24.979 15.7296 24.8962L13.0935 22.2566C13.0037 22.1666 12.9297 22.0877 12.8784 22.0148C12.8266 21.9411 12.7881 21.86 12.7889 21.7673C12.7898 21.6747 12.8296 21.5951 12.8808 21.524C12.9314 21.4537 13.0033 21.3779 13.088 21.2924L13.0882 21.2922L17.01 17.3522L17.0102 17.352C17.1561 17.2059 17.278 17.098 17.3917 17.0333C17.5127 16.9645 17.6294 16.9416 17.7558 16.9701C17.8709 16.996 17.9836 17.0628 18.1032 17.1416C18.1516 17.1734 18.201 17.2072 18.2541 17.2435C18.3417 17.3034 18.4396 17.3703 18.5603 17.4473L18.5604 17.4474C21.1656 19.1126 24.7882 19.2765 27.0561 17.0031L27.0561 17.003C27.8263 16.2318 28.3613 15.2866 28.6265 14.2297L28.6265 14.2296C29.276 11.6532 28.251 8.91104 26.388 7.06853C24.5348 5.23577 21.726 4.19862 19.1657 4.83892L19.1656 4.83895C18.1312 5.09664 17.2136 5.6192 16.4644 6.38203L16.4643 6.38212C14.4252 8.45421 14.2929 11.4733 15.5166 14.0362C15.5957 14.2017 15.6664 14.3267 15.7249 14.4301C15.7334 14.4451 15.7417 14.4597 15.7497 14.4739C15.809 14.5794 15.8645 14.6802 15.8822 14.7805C15.9026 14.8964 15.8721 14.9975 15.8037 15.1011C15.7401 15.1975 15.637 15.3064 15.4975 15.4448L5.13155 25.7419L5.13149 25.742M5.06841 26.1742L5.13149 25.742M5.06841 26.1742C5.03305 26.1388 5.00302 26.1094 4.97732 26.0842C4.93479 26.0426 4.90411 26.0125 4.88074 25.9864C4.87937 25.9848 4.87808 25.9833 4.87685 25.9819C4.88458 25.974 4.89451 25.9643 4.90731 25.9524C4.92042 25.9401 4.9361 25.9258 4.95401 25.9095C5.00031 25.8673 5.06147 25.8116 5.13149 25.742M5.06841 26.1742L5.13149 25.742M12.5597 28.5933C12.5598 28.5934 12.5592 28.5933 12.558 28.5928L12.5597 28.5933Z" fill="#0064FA" stroke="#0064FA" stroke-width="0.271103"/>
</g>
</svg>
