<svg width="33" height="33" viewBox="0 0 33 33" fill="none" xmlns="http://www.w3.org/2000/svg">
<path d="M11.7801 30.1064L11.7793 30.1056L9.45334 27.7765C9.45332 27.7765 9.4533 27.7765 9.45328 27.7765C9.37295 27.6965 9.31 27.6277 9.26219 27.5754C9.24537 27.557 9.23043 27.5406 9.21727 27.5266C9.19746 27.5055 9.18281 27.4907 9.17142 27.4803C9.16737 27.4836 9.16267 27.4875 9.15728 27.4923C9.1272 27.5189 9.092 27.5548 9.04275 27.605C9.01516 27.6332 8.98317 27.6658 8.9452 27.7039L7.38835 29.2628C6.96361 29.6881 6.31226 29.6881 5.88753 29.2628L3.36248 26.7344C2.93828 26.3096 2.93472 25.6574 3.36282 25.2317L3.36286 25.2317L13.8735 14.7896C13.8797 14.7835 13.8856 14.7776 13.8914 14.7719C13.9658 14.698 14.0081 14.656 14.0331 14.6251C14.0351 14.6226 14.0368 14.6203 14.0383 14.6183C14.0318 14.6052 14.0228 14.5897 14.0088 14.5653L14.0055 14.5597C13.9741 14.5051 13.9306 14.4283 13.883 14.3155L14.0078 14.2627L13.883 14.3157C12.5829 11.2508 12.8946 7.71474 15.3183 5.25347L15.3183 5.25345C16.2756 4.28174 17.4518 3.60985 18.7747 3.28064C21.901 2.49941 25.2732 3.71274 27.5132 5.92694L27.4179 6.02334L27.5132 5.92695C29.7694 8.15734 30.9736 11.4727 30.1803 14.6215C29.8438 15.9613 29.1628 17.1592 28.1878 18.1381L28.1877 18.1382C25.4957 20.8338 21.3517 20.8608 18.1864 19.0942C18.1864 19.0941 18.1863 19.0941 18.1863 19.0941L18.2524 18.9757C17.9583 18.8125 17.8649 18.7129 17.7791 18.7191C17.6992 18.7248 17.6258 18.8223 17.4029 19.0455L14.9657 21.4861C14.8058 21.6462 14.7175 21.6956 14.7137 21.751C14.7105 21.7975 14.767 21.8481 14.8908 21.9721L17.3978 24.4824C17.7696 24.8547 17.7696 25.4209 17.3978 25.7932L13.1868 30.0098C13.0267 30.1701 12.7608 30.289 12.531 30.289C12.3012 30.289 12.0379 30.1701 11.8752 30.0098L11.7801 30.1064ZM11.7801 30.1064C11.9653 30.2889 12.2618 30.4246 12.531 30.4246C12.7996 30.4246 13.0993 30.2893 13.2827 30.1056L17.4937 25.889C17.9183 25.4638 17.9183 24.8119 17.4937 24.3867L14.9867 21.8763C14.9726 21.8622 14.9597 21.8494 14.948 21.8377C14.9137 21.8034 14.889 21.7789 14.871 21.7594L11.7801 30.1064ZM5.06835 26.1742L5.06985 26.1731L6.43048 27.5356C6.47495 27.5801 6.51235 27.6192 6.54394 27.6525C6.54899 27.6579 6.55385 27.663 6.55854 27.6679C6.58374 27.6945 6.60388 27.7158 6.62162 27.7335C6.62866 27.7406 6.63476 27.7465 6.64003 27.7514C6.66263 27.7301 6.68775 27.7033 6.72208 27.6666C6.7455 27.6415 6.7732 27.6119 6.80732 27.5763L6.80922 27.5743L6.80924 27.5743L8.63203 25.7491C8.84828 25.5326 9.04206 25.4135 9.25523 25.4564C9.35532 25.4765 9.44302 25.5299 9.52336 25.5936C9.60357 25.6571 9.68719 25.7398 9.77655 25.8293L12.2345 28.2905C12.2665 28.3225 12.2954 28.3517 12.3216 28.3782C12.4047 28.462 12.4615 28.5193 12.5074 28.5576C12.5295 28.5762 12.5436 28.5853 12.5515 28.5897C12.5555 28.587 12.5612 28.5828 12.5689 28.5762C12.5892 28.559 12.6146 28.5332 12.6502 28.4945C12.6664 28.4769 12.6842 28.4571 12.7039 28.4353C12.7678 28.3643 12.851 28.2721 12.9592 28.1638L15.714 25.4053C15.7979 25.3213 15.8541 25.2629 15.8903 25.2157C15.9266 25.1684 15.9289 25.1493 15.9291 25.1446C15.9292 25.1416 15.9296 25.1253 15.8978 25.0811C15.8653 25.0359 15.8121 24.979 15.7295 24.8962L13.0934 22.2566C13.0036 22.1666 12.9297 22.0877 12.8784 22.0148C12.8265 21.9411 12.788 21.86 12.7889 21.7673C12.7897 21.6747 12.8296 21.5951 12.8807 21.524C12.9313 21.4537 13.0032 21.3779 13.0879 21.2924L13.0881 21.2922L17.0099 17.3522L17.0101 17.352C17.156 17.2059 17.2779 17.098 17.3917 17.0333C17.5126 16.9645 17.6293 16.9416 17.7558 16.9701C17.8708 16.996 17.9835 17.0628 18.1031 17.1416C18.1515 17.1734 18.2009 17.2072 18.254 17.2435C18.3417 17.3034 18.4396 17.3703 18.5602 17.4473L18.5603 17.4474C21.1656 19.1126 24.7881 19.2765 27.056 17.0031L27.0561 17.003C27.8262 16.2318 28.3613 15.2866 28.6264 14.2297L28.6264 14.2296C29.276 11.6532 28.2509 8.91104 26.388 7.06853C24.5347 5.23577 21.726 4.19862 19.1657 4.83892L19.1655 4.83895C18.1311 5.09664 17.2135 5.6192 16.4643 6.38203L16.4642 6.38212C14.4252 8.45421 14.2928 11.4733 15.5166 14.0362C15.5956 14.2017 15.6663 14.3267 15.7248 14.4301C15.7334 14.4451 15.7416 14.4597 15.7496 14.4739C15.809 14.5794 15.8644 14.6802 15.8821 14.7805C15.9026 14.8964 15.872 14.9975 15.8037 15.1011C15.7401 15.1975 15.6369 15.3064 15.4975 15.4448L5.13149 25.7419L5.13143 25.742M5.06835 26.1742L5.13143 25.742M5.06835 26.1742C5.03299 26.1388 5.00296 26.1094 4.97726 26.0842C4.93473 26.0426 4.90405 26.0125 4.88068 25.9864C4.87931 25.9848 4.87801 25.9833 4.87679 25.9819C4.88452 25.974 4.89445 25.9643 4.90725 25.9524C4.92036 25.9401 4.93604 25.9258 4.95394 25.9095C5.00025 25.8673 5.06141 25.8116 5.13143 25.742M5.06835 26.1742L5.13143 25.742M12.5597 28.5933C12.5597 28.5934 12.5592 28.5933 12.5579 28.5928L12.5597 28.5933Z" fill="#D64657" stroke="#D64657" stroke-width="0.271103"/>
</svg>
