<svg width="20" height="20" viewBox="0 0 20 20" fill="none" xmlns="http://www.w3.org/2000/svg">
<g id="logout">
<g id="Vector">
<path d="M12.7002 18.5581H12.5918C8.89183 18.5581 7.1085 17.0997 6.80016 13.8331C6.76683 13.4914 7.01683 13.1831 7.36683 13.1497C7.70016 13.1164 8.01683 13.3747 8.05016 13.7164C8.29183 16.3331 9.52516 17.3081 12.6002 17.3081H12.7085C16.1002 17.3081 17.3002 16.1081 17.3002 12.7164V7.28307C17.3002 3.89141 16.1002 2.69141 12.7085 2.69141H12.6002C9.5085 2.69141 8.27516 3.68307 8.05016 6.34974C8.0085 6.69141 7.71683 6.94974 7.36683 6.91641C7.01683 6.89141 6.76683 6.58307 6.79183 6.24141C7.07516 2.92474 8.86683 1.44141 12.5918 1.44141H12.7002C16.7918 1.44141 18.5418 3.19141 18.5418 7.28307V12.7164C18.5418 16.8081 16.7918 18.5581 12.7002 18.5581Z" fill="#0064FA"/>
<path d="M4.43385 13.2329C4.55885 13.3579 4.71719 13.4163 4.87552 13.4163C5.03385 13.4163 5.20052 13.3579 5.31719 13.2329C5.55885 12.9913 5.55885 12.5913 5.31719 12.3496L3.59232 10.6247H12.5003C12.8419 10.6247 13.1253 10.3414 13.1253 9.99974C13.1253 9.65807 12.8419 9.37474 12.5003 9.37474H3.59206L5.31719 7.64961C5.55885 7.40794 5.55885 7.00794 5.31719 6.76628C5.07552 6.52461 4.67552 6.52461 4.43385 6.76628L1.64219 9.55794C1.40052 9.79961 1.40052 10.1996 1.64219 10.4413L4.43385 13.2329Z" fill="#0064FA"/>
</g>
</g>
</svg>
