<svg width="29" height="29" viewBox="0 0 29 29" fill="none" xmlns="http://www.w3.org/2000/svg">
<path d="M6.03894 10.1789C8.17129 1.08361 21.4174 1.0836 23.539 10.1789C24.7217 15.2485 19.4556 24.1789 14.789 24.1789C10.1223 24.1789 4.85516 15.2528 6.03894 10.1789Z" stroke="#0064FA" stroke-width="1.4"/>
<path d="M20.0391 11.9307C20.0391 14.8302 17.6886 17.1807 14.7891 17.1807C11.8896 17.1807 9.53906 14.8302 9.53906 11.9307C9.53906 9.03117 11.8896 6.68066 14.7891 6.68066C17.6886 6.68066 20.0391 9.03117 20.0391 11.9307Z" stroke="#0064FA" stroke-width="1.4"/>
<path d="M13.7505 9.46331C13.695 9.59731 13.695 9.76718 13.695 10.1069V10.8011C13.695 10.8176 13.695 10.8258 13.6899 10.831C13.6847 10.8361 13.6765 10.8361 13.66 10.8361H12.9658C12.6261 10.8361 12.4562 10.8361 12.3222 10.8916C12.1435 10.9656 12.0016 11.1076 11.9276 11.2862C11.8721 11.4202 11.8721 11.5901 11.8721 11.9299C11.8721 12.2696 11.8721 12.4395 11.9276 12.5735C12.0016 12.7521 12.1435 12.8941 12.3222 12.9681C12.4562 13.0236 12.6261 13.0236 12.9658 13.0236H13.66C13.6765 13.0236 13.6847 13.0236 13.6899 13.0287C13.695 13.0339 13.695 13.0421 13.695 13.0586V13.7528C13.695 14.0925 13.695 14.2624 13.7505 14.3964C13.8245 14.5751 13.9664 14.717 14.1451 14.791C14.2791 14.8465 14.449 14.8465 14.7887 14.8465C15.1285 14.8465 15.2984 14.8465 15.4324 14.791C15.611 14.717 15.753 14.5751 15.827 14.3964C15.8825 14.2624 15.8825 14.0925 15.8825 13.7528V13.0586C15.8825 13.0421 15.8825 13.0339 15.8876 13.0287C15.8927 13.0236 15.901 13.0236 15.9175 13.0236H16.6117C16.9514 13.0236 17.1213 13.0236 17.2553 12.9681C17.4339 12.8941 17.5759 12.7521 17.6499 12.5735C17.7054 12.4395 17.7054 12.2696 17.7054 11.9299C17.7054 11.5901 17.7054 11.4202 17.6499 11.2862C17.5759 11.1076 17.4339 10.9656 17.2553 10.8916C17.1213 10.8361 16.9514 10.8361 16.6117 10.8361H15.9175C15.901 10.8361 15.8927 10.8361 15.8876 10.831C15.8825 10.8258 15.8825 10.8176 15.8825 10.8011V10.1069C15.8825 9.76718 15.8825 9.59731 15.827 9.46331C15.753 9.28464 15.611 9.14269 15.4324 9.06869C15.2984 9.01318 15.1285 9.01318 14.7887 9.01318C14.449 9.01318 14.2791 9.01318 14.1451 9.06869C13.9664 9.14269 13.8245 9.28464 13.7505 9.46331Z" fill="#0064FA"/>
<path d="M19.4561 21.6533C22.2458 22.1576 24.1227 23.1002 24.1227 24.1798C24.1227 25.7906 19.944 27.0965 14.7894 27.0965C9.63473 27.0965 5.45605 25.7906 5.45605 24.1798C5.45605 23.765 5.73316 23.3704 6.23267 23.0131" stroke="#0064FA" stroke-width="1.4" stroke-linecap="round"/>
</svg>
