<svg width="21" height="20" viewBox="0 0 21 20" fill="none" xmlns="http://www.w3.org/2000/svg">
<g id="icon" clip-path="url(#clip0_1313_29984)">
<g id="vuesax/linear/messages">
<g id="messages">
<g id="Group">
<path id="Vector" d="M15.7346 8.99167V12.325C15.7346 12.5417 15.7263 12.75 15.7013 12.95C15.5096 15.2 14.1846 16.3167 11.743 16.3167H11.4096C11.2013 16.3167 11.0013 16.4167 10.8763 16.5833L9.87631 17.9167C9.43465 18.5083 8.71797 18.5083 8.2763 17.9167L7.27629 16.5833C7.16796 16.4417 6.9263 16.3167 6.74297 16.3167H6.40964C3.75131 16.3167 2.41797 15.6583 2.41797 12.325V8.99167C2.41797 6.55001 3.54298 5.22501 5.78464 5.03334C5.98464 5.00834 6.19298 5 6.40964 5H11.743C14.4013 5 15.7346 6.33334 15.7346 8.99167Z" stroke="#B1B2B4" stroke-width="1.25" stroke-miterlimit="10" stroke-linecap="round" stroke-linejoin="round"/>
</g>
<path id="Vector_2" d="M19.0665 5.65574V8.98907C19.0665 11.4391 17.9415 12.7557 15.6999 12.9474C15.7249 12.7474 15.7332 12.5391 15.7332 12.3224V8.98907C15.7332 6.33074 14.3999 4.9974 11.7415 4.9974H6.4082C6.19154 4.9974 5.9832 5.00574 5.7832 5.03074C5.97487 2.78907 7.29987 1.66406 9.74154 1.66406H15.0749C17.7332 1.66406 19.0665 2.9974 19.0665 5.65574Z" stroke="#B1B2B4" stroke-width="1.25" stroke-miterlimit="10" stroke-linecap="round" stroke-linejoin="round"/>
<path id="Vector_3" d="M11.9949 11.0417H12.0024" stroke="#B1B2B4" stroke-width="1.66667" stroke-linecap="round" stroke-linejoin="round"/>
<path id="Vector_4" d="M9.08089 11.0417H9.08839" stroke="#B1B2B4" stroke-width="1.66667" stroke-linecap="round" stroke-linejoin="round"/>
<path id="Vector_5" d="M6.16292 11.0417H6.17042" stroke="#B1B2B4" stroke-width="1.66667" stroke-linecap="round" stroke-linejoin="round"/>
</g>
</g>
</g>
<defs>
<clipPath id="clip0_1313_29984">
<rect width="20" height="20" fill="white" transform="translate(0.75)"/>
</clipPath>
</defs>
</svg>
