<svg width="16" height="16" viewBox="0 0 16 16" fill="none" xmlns="http://www.w3.org/2000/svg">
<path d="M5.42676 7.60918C5.42676 8.10472 5.81285 8.51016 6.28259 8.51016H7.24782C7.65965 8.51016 7.99426 8.1562 7.99426 7.72502C7.99426 7.25522 7.78835 7.0879 7.48591 6.9785L5.94155 6.43791C5.63267 6.32851 5.42676 6.16118 5.42676 5.69139C5.42676 5.26021 5.76137 4.90625 6.1732 4.90625H7.13843C7.61461 4.91269 8.0007 5.31169 8.0007 5.80723" stroke="#0064FA" stroke-width="0.96528" stroke-linecap="round" stroke-linejoin="round"/>
<path d="M6.71411 8.54492V9.02115" stroke="#0064FA" stroke-width="0.96528" stroke-linecap="round" stroke-linejoin="round"/>
<path d="M6.71387 4.40039V4.90236" stroke="#0064FA" stroke-width="0.96528" stroke-linecap="round" stroke-linejoin="round"/>
<path d="M6.70737 11.8465C9.54691 11.8465 11.8488 9.54435 11.8488 6.7045C11.8488 3.86465 9.54691 1.5625 6.70737 1.5625C3.86782 1.5625 1.56592 3.86465 1.56592 6.7045C1.56592 9.54435 3.86782 11.8465 6.70737 11.8465Z" stroke="#0064FA" stroke-width="0.96528" stroke-linecap="round" stroke-linejoin="round"/>
<path d="M8.63184 13.0683C9.21097 13.8856 10.1569 14.4197 11.238 14.4197C12.9947 14.4197 14.4232 12.9911 14.4232 11.2342C14.4232 10.1658 13.8955 9.21982 13.0912 8.64062" stroke="#0064FA" stroke-width="0.96528" stroke-linecap="round" stroke-linejoin="round"/>
</svg>
