<svg width="70" height="70" viewBox="0 0 70 70" fill="none" xmlns="http://www.w3.org/2000/svg">
<rect width="70" height="70" rx="35" fill="#EBF3FF"/>
<path d="M34.9997 18.3281C30.633 18.3281 27.083 21.8781 27.083 26.2448C27.083 30.5281 30.433 33.9948 34.7997 34.1448C34.933 34.1281 35.0663 34.1281 35.1663 34.1448C35.1997 34.1448 35.2163 34.1448 35.2497 34.1448C35.2663 34.1448 35.2663 34.1448 35.283 34.1448C39.5497 33.9948 42.8997 30.5281 42.9163 26.2448C42.9163 21.8781 39.3663 18.3281 34.9997 18.3281Z" fill="white"/>
<path d="M43.4661 38.5789C38.8161 35.4789 31.2328 35.4789 26.5494 38.5789C24.4328 39.9956 23.2661 41.9122 23.2661 43.9622C23.2661 46.0122 24.4328 47.9122 26.5328 49.3122C28.8661 50.8789 31.9328 51.6622 34.9994 51.6622C38.0661 51.6622 41.1328 50.8789 43.4661 49.3122C45.5661 47.8956 46.7328 45.9956 46.7328 43.9289C46.7161 41.8789 45.5661 39.9789 43.4661 38.5789Z" fill="white"/>
</svg>
