<svg width="24" height="25" viewBox="0 0 24 25" fill="none" xmlns="http://www.w3.org/2000/svg">
<path d="M16 2.5H8C4 2.5 2 4.5 2 8.5V21.5C2 22.05 2.45 22.5 3 22.5H16C20 22.5 22 20.5 22 16.5V8.5C22 4.5 20 2.5 16 2.5Z" stroke="#F15757" stroke-width="1.5" stroke-linecap="round" stroke-linejoin="round"/>
<path d="M12.91 8.34003L7.72004 13.53C7.52004 13.73 7.33004 14.12 7.29004 14.4L7.01004 16.38C6.91004 17.1 7.41004 17.6 8.13004 17.5L10.11 17.22C10.39 17.18 10.78 16.99 10.98 16.79L16.17 11.6C17.06 10.71 17.49 9.67003 16.17 8.35003C14.85 7.02003 13.81 7.44003 12.91 8.34003Z" stroke="#F15757" stroke-width="1.5" stroke-miterlimit="10" stroke-linecap="round" stroke-linejoin="round"/>
<path d="M12.1699 9.08008C12.6099 10.6501 13.8399 11.8901 15.4199 12.3301" stroke="#F15757" stroke-width="1.5" stroke-miterlimit="10" stroke-linecap="round" stroke-linejoin="round"/>
</svg>
