<svg width="28" height="28" viewBox="0 0 28 28" fill="none" xmlns="http://www.w3.org/2000/svg">
<path d="M18.6673 2.3335H9.33398C4.66732 2.3335 2.33398 4.66683 2.33398 9.3335V24.5002C2.33398 25.1418 2.85898 25.6668 3.50065 25.6668H18.6673C23.334 25.6668 25.6673 23.3335 25.6673 18.6668V9.3335C25.6673 4.66683 23.334 2.3335 18.6673 2.3335Z" stroke="#0064FA" stroke-width="1.75" stroke-linecap="round" stroke-linejoin="round"/>
<path d="M15.0622 9.14684L9.00724 15.2018C8.7739 15.4352 8.55225 15.8902 8.50558 16.2168L8.17891 18.5268C8.06225 19.3668 8.64557 19.9502 9.48557 19.8335L11.7956 19.5068C12.1222 19.4602 12.5772 19.2385 12.8106 19.0052L18.8656 12.9502C19.9039 11.9118 20.4056 10.6985 18.8656 9.15851C17.3256 7.60684 16.1122 8.09684 15.0622 9.14684Z" stroke="#0064FA" stroke-width="1.75" stroke-miterlimit="10" stroke-linecap="round" stroke-linejoin="round"/>
<path d="M14.1973 10.0103C14.7106 11.8419 16.1456 13.2886 17.9889 13.8019" stroke="#0064FA" stroke-width="1.75" stroke-miterlimit="10" stroke-linecap="round" stroke-linejoin="round"/>
</svg>
