<svg width="18" height="18" viewBox="0 0 18 18" fill="none" xmlns="http://www.w3.org/2000/svg">
<path d="M13.05 2.25L15.75 4.95M2.25 15.75L3.11157 12.5909C3.16778 12.3848 3.19589 12.2818 3.23903 12.1857C3.27734 12.1003 3.32441 12.0192 3.37949 11.9436C3.44152 11.8585 3.51705 11.783 3.66811 11.6319L10.6432 4.65684C10.7768 4.52318 10.8436 4.45635 10.9207 4.43132C10.9885 4.40929 11.0615 4.40929 11.1293 4.43132C11.2064 4.45635 11.2732 4.52318 11.4068 4.65684L13.3432 6.59316C13.4768 6.72682 13.5436 6.79365 13.5687 6.87071C13.5907 6.93849 13.5907 7.01151 13.5687 7.07929C13.5436 7.15635 13.4768 7.22318 13.3432 7.35684L6.36811 14.3319C6.21705 14.483 6.14152 14.5585 6.05638 14.6205C5.98079 14.6756 5.89967 14.7227 5.81435 14.761C5.71825 14.8041 5.6152 14.8322 5.40909 14.8884L2.25 15.75Z" stroke="#0064FA" stroke-width="1.125" stroke-linecap="round" stroke-linejoin="round"/>
</svg>
