<svg width="24" height="25" viewBox="0 0 24 25" fill="none" xmlns="http://www.w3.org/2000/svg">
<path d="M18.0003 8.40977C17.9703 8.40977 17.9503 8.40977 17.9203 8.40977H17.8703C15.9803 8.34977 14.5703 6.88977 14.5703 5.08977C14.5703 3.24977 16.0703 1.75977 17.9003 1.75977C19.7303 1.75977 21.2303 3.25977 21.2303 5.08977C21.2203 6.89977 19.8103 8.35977 18.0103 8.41977C18.0103 8.40977 18.0103 8.40977 18.0003 8.40977ZM17.9003 3.24977C16.8903 3.24977 16.0703 4.06977 16.0703 5.07977C16.0703 6.06977 16.8403 6.86977 17.8303 6.90977C17.8403 6.89977 17.9203 6.89977 18.0103 6.90977C18.9803 6.85977 19.7303 6.05977 19.7403 5.07977C19.7403 4.06977 18.9203 3.24977 17.9003 3.24977Z" fill="#0064FA"/>
<path d="M18.0105 15.7797C17.6205 15.7797 17.2305 15.7497 16.8405 15.6797C16.4305 15.6097 16.1605 15.2197 16.2305 14.8097C16.3005 14.3997 16.6905 14.1297 17.1005 14.1997C18.3305 14.4097 19.6305 14.1797 20.5005 13.5997C20.9705 13.2897 21.2205 12.8997 21.2205 12.5097C21.2205 12.1197 20.9605 11.7397 20.5005 11.4297C19.6305 10.8497 18.3105 10.6197 17.0705 10.8397C16.6605 10.9197 16.2705 10.6397 16.2005 10.2297C16.1305 9.81966 16.4005 9.42966 16.8105 9.35966C18.4405 9.06966 20.1305 9.37965 21.3305 10.1797C22.2105 10.7697 22.7205 11.6097 22.7205 12.5097C22.7205 13.3997 22.2205 14.2497 21.3305 14.8497C20.4205 15.4497 19.2405 15.7797 18.0105 15.7797Z" fill="#0064FA"/>
<path d="M5.97047 8.41C5.96047 8.41 5.95047 8.41 5.95047 8.41C4.15047 8.35 2.74047 6.89 2.73047 5.09C2.73047 3.25 4.23047 1.75 6.06047 1.75C7.89047 1.75 9.39047 3.25 9.39047 5.08C9.39047 6.89 7.98047 8.35 6.18047 8.41L5.97047 7.66L6.04047 8.41C6.02047 8.41 5.99047 8.41 5.97047 8.41ZM6.07047 6.91C6.13047 6.91 6.18047 6.91 6.24047 6.92C7.13047 6.88 7.91047 6.08 7.91047 5.09C7.91047 4.08 7.09047 3.25999 6.08047 3.25999C5.07047 3.25999 4.25047 4.08 4.25047 5.09C4.25047 6.07 5.01047 6.86 5.98047 6.92C5.99047 6.91 6.03047 6.91 6.07047 6.91Z" fill="#0064FA"/>
<path d="M5.96 15.7797C4.73 15.7797 3.55 15.4497 2.64 14.8497C1.76 14.2597 1.25 13.4097 1.25 12.5097C1.25 11.6197 1.76 10.7697 2.64 10.1797C3.84 9.37965 5.53 9.06966 7.16 9.35966C7.57 9.42966 7.84 9.81966 7.77 10.2297C7.7 10.6397 7.31 10.9197 6.9 10.8397C5.66 10.6197 4.35 10.8497 3.47 11.4297C3 11.7397 2.75 12.1197 2.75 12.5097C2.75 12.8997 3.01 13.2897 3.47 13.5997C4.34 14.1797 5.64 14.4097 6.87 14.1997C7.28 14.1297 7.67 14.4097 7.74 14.8097C7.81 15.2197 7.54 15.6097 7.13 15.6797C6.74 15.7497 6.35 15.7797 5.96 15.7797Z" fill="#0064FA"/>
<path d="M12.0003 15.8805C11.9703 15.8805 11.9503 15.8805 11.9203 15.8805H11.8703C9.98031 15.8205 8.57031 14.3605 8.57031 12.5605C8.57031 10.7205 10.0703 9.23047 11.9003 9.23047C13.7303 9.23047 15.2303 10.7305 15.2303 12.5605C15.2203 14.3705 13.8103 15.8305 12.0103 15.8905C12.0103 15.8805 12.0103 15.8805 12.0003 15.8805ZM11.9003 10.7205C10.8903 10.7205 10.0703 11.5405 10.0703 12.5505C10.0703 13.5405 10.8403 14.3405 11.8303 14.3805C11.8403 14.3705 11.9203 14.3705 12.0103 14.3805C12.9803 14.3305 13.7303 13.5305 13.7403 12.5505C13.7403 11.5505 12.9203 10.7205 11.9003 10.7205Z" fill="#0064FA"/>
<path d="M11.9993 23.2597C10.7993 23.2597 9.5993 22.9497 8.6693 22.3197C7.7893 21.7297 7.2793 20.8897 7.2793 19.9897C7.2793 19.0997 7.7793 18.2397 8.6693 17.6497C10.5393 16.4097 13.4693 16.4097 15.3293 17.6497C16.2093 18.2397 16.7193 19.0797 16.7193 19.9797C16.7193 20.8697 16.2193 21.7297 15.3293 22.3197C14.3993 22.9397 13.1993 23.2597 11.9993 23.2597ZM9.4993 18.9097C9.0293 19.2197 8.7793 19.6097 8.7793 19.9997C8.7793 20.3897 9.0393 20.7697 9.4993 21.0797C10.8493 21.9897 13.1393 21.9897 14.4893 21.0797C14.9593 20.7697 15.2093 20.3797 15.2093 19.9897C15.2093 19.5997 14.9493 19.2197 14.4893 18.9097C13.1493 17.9997 10.8593 18.0097 9.4993 18.9097Z" fill="#0064FA"/>
</svg>
