<svg width="25" height="24" viewBox="0 0 25 24" fill="none" xmlns="http://www.w3.org/2000/svg">
<path d="M12.625 15C14.2819 15 15.625 13.6569 15.625 12C15.625 10.3431 14.2819 9 12.625 9C10.9681 9 9.625 10.3431 9.625 12C9.625 13.6569 10.9681 15 12.625 15Z" stroke="#7D7F82" stroke-width="1.5" stroke-miterlimit="10" stroke-linecap="round" stroke-linejoin="round"/>
<path d="M2.625 12.8804V11.1204C2.625 10.0804 3.475 9.22043 4.525 9.22043C6.335 9.22043 7.075 7.94042 6.165 6.37042C5.645 5.47042 5.955 4.30042 6.865 3.78042L8.595 2.79042C9.385 2.32042 10.405 2.60042 10.875 3.39042L10.985 3.58042C11.885 5.15042 13.365 5.15042 14.275 3.58042L14.385 3.39042C14.855 2.60042 15.875 2.32042 16.665 2.79042L18.395 3.78042C19.305 4.30042 19.615 5.47042 19.095 6.37042C18.185 7.94042 18.925 9.22043 20.735 9.22043C21.775 9.22043 22.635 10.0704 22.635 11.1204V12.8804C22.635 13.9204 21.785 14.7804 20.735 14.7804C18.925 14.7804 18.185 16.0604 19.095 17.6304C19.615 18.5404 19.305 19.7004 18.395 20.2204L16.665 21.2104C15.875 21.6804 14.855 21.4004 14.385 20.6104L14.275 20.4204C13.375 18.8504 11.895 18.8504 10.985 20.4204L10.875 20.6104C10.405 21.4004 9.385 21.6804 8.595 21.2104L6.865 20.2204C5.955 19.7004 5.645 18.5304 6.165 17.6304C7.075 16.0604 6.335 14.7804 4.525 14.7804C3.475 14.7804 2.625 13.9204 2.625 12.8804Z" stroke="#7D7F82" stroke-width="1.5" stroke-miterlimit="10" stroke-linecap="round" stroke-linejoin="round"/>
</svg>
