<svg width="28" height="28" viewBox="0 0 28 28" fill="none" xmlns="http://www.w3.org/2000/svg">
<path d="M14 17.5C15.933 17.5 17.5 15.933 17.5 14C17.5 12.067 15.933 10.5 14 10.5C12.067 10.5 10.5 12.067 10.5 14C10.5 15.933 12.067 17.5 14 17.5Z" stroke="#262626" stroke-width="1.75" stroke-miterlimit="10" stroke-linecap="round" stroke-linejoin="round"/>
<path d="M2.33301 15.0265V12.9732C2.33301 11.7598 3.32467 10.7565 4.54967 10.7565C6.66134 10.7565 7.52467 9.26318 6.46301 7.43151C5.85634 6.38151 6.21801 5.01651 7.27967 4.40984L9.29801 3.25484C10.2197 2.70651 11.4097 3.03318 11.958 3.95484L12.0863 4.17651C13.1363 6.00818 14.863 6.00818 15.9247 4.17651L16.053 3.95484C16.6013 3.03318 17.7913 2.70651 18.713 3.25484L20.7313 4.40984C21.793 5.01651 22.1547 6.38151 21.548 7.43151C20.4863 9.26318 21.3497 10.7565 23.4613 10.7565C24.6747 10.7565 25.678 11.7482 25.678 12.9732V15.0265C25.678 16.2398 24.6863 17.2432 23.4613 17.2432C21.3497 17.2432 20.4863 18.7365 21.548 20.5682C22.1547 21.6298 21.793 22.9832 20.7313 23.5898L18.713 24.7448C17.7913 25.2932 16.6013 24.9665 16.053 24.0448L15.9247 23.8232C14.8747 21.9915 13.148 21.9915 12.0863 23.8232L11.958 24.0448C11.4097 24.9665 10.2197 25.2932 9.29801 24.7448L7.27967 23.5898C6.21801 22.9832 5.85634 21.6182 6.46301 20.5682C7.52467 18.7365 6.66134 17.2432 4.54967 17.2432C3.32467 17.2432 2.33301 16.2398 2.33301 15.0265Z" stroke="#262626" stroke-width="1.75" stroke-miterlimit="10" stroke-linecap="round" stroke-linejoin="round"/>
</svg>
