<svg width="24" height="25" viewBox="0 0 24 25" fill="none" xmlns="http://www.w3.org/2000/svg">
<path d="M12.0004 23.2604C10.9104 23.2604 9.83039 22.9404 8.98039 22.3104L4.68039 19.1004C3.54039 18.2504 2.65039 16.4704 2.65039 15.0604V7.62043C2.65039 6.08043 3.78039 4.44043 5.23039 3.90043L10.2204 2.03043C11.2104 1.66043 12.7704 1.66043 13.7604 2.03043L18.7504 3.90043C20.2004 4.44043 21.3304 6.08043 21.3304 7.62043V15.0504C21.3304 16.4704 20.4404 18.2404 19.3004 19.0904L15.0004 22.3004C14.1704 22.9404 13.0904 23.2604 12.0004 23.2604ZM10.7504 3.44043L5.76039 5.31043C4.91039 5.63043 4.16039 6.71043 4.16039 7.63043V15.0604C4.16039 16.0104 4.83039 17.3404 5.58039 17.9004L9.88039 21.1104C11.0304 21.9704 12.9704 21.9704 14.1304 21.1104L18.4304 17.9004C19.1904 17.3304 19.8504 16.0104 19.8504 15.0604V7.62043C19.8504 6.71043 19.1004 5.63043 18.2504 5.30043L13.2604 3.43043C12.5804 3.19043 11.4204 3.19043 10.7504 3.44043Z" fill="#0064FA"/>
<path d="M10.6602 14.7301C10.4702 14.7301 10.2802 14.6601 10.1302 14.5101L8.52023 12.9001C8.23023 12.6101 8.23023 12.1301 8.52023 11.8401C8.81023 11.5501 9.29023 11.5501 9.58023 11.8401L10.6602 12.9201L14.4302 9.15012C14.7202 8.86012 15.2002 8.86012 15.4902 9.15012C15.7802 9.44012 15.7802 9.92012 15.4902 10.2101L11.1902 14.5101C11.0402 14.6601 10.8502 14.7301 10.6602 14.7301Z" fill="#0064FA"/>
</svg>
