<svg width="24" height="25" viewBox="0 0 24 25" fill="none" xmlns="http://www.w3.org/2000/svg">
<path d="M11.9999 23.2599C10.9099 23.2599 9.8299 22.9399 8.9799 22.3099L4.6799 19.0999C3.5399 18.2499 2.6499 16.4699 2.6499 15.0599V7.61994C2.6499 6.07994 3.7799 4.43994 5.2299 3.89994L10.2199 2.02994C11.2099 1.65994 12.7699 1.65994 13.7599 2.02994L18.7499 3.89994C20.1999 4.43994 21.3299 6.07994 21.3299 7.61994V15.0499C21.3299 16.4699 20.4399 18.2399 19.2999 19.0899L14.9999 22.2999C14.1699 22.9399 13.0899 23.2599 11.9999 23.2599ZM10.7499 3.43994L5.7599 5.30994C4.9099 5.62994 4.1599 6.70994 4.1599 7.62994V15.0599C4.1599 16.0099 4.8299 17.3399 5.5799 17.8999L9.8799 21.1099C11.0299 21.9699 12.9699 21.9699 14.1299 21.1099L18.4299 17.8999C19.1899 17.3299 19.8499 16.0099 19.8499 15.0599V7.61994C19.8499 6.70994 19.0999 5.62994 18.2499 5.29994L13.2599 3.42994C12.5799 3.18994 11.4199 3.18994 10.7499 3.43994Z" fill="#D64657"/>
<path d="M10.6602 14.7301C10.4702 14.7301 10.2802 14.6601 10.1302 14.5101L8.52023 12.9001C8.23023 12.6101 8.23023 12.1301 8.52023 11.8401C8.81023 11.5501 9.29023 11.5501 9.58023 11.8401L10.6602 12.9201L14.4302 9.15012C14.7202 8.86012 15.2002 8.86012 15.4902 9.15012C15.7802 9.44012 15.7802 9.92012 15.4902 10.2101L11.1902 14.5101C11.0402 14.6601 10.8502 14.7301 10.6602 14.7301Z" fill="#D64657"/>
</svg>
