<svg width="19" height="18" viewBox="0 0 19 18" fill="none" xmlns="http://www.w3.org/2000/svg">
<path fill-rule="evenodd" clip-rule="evenodd" d="M8.49757 2.60842C8.71383 2.83144 8.70835 3.18755 8.48533 3.40382L6.3881 5.4375H14C14.3107 5.4375 14.5625 5.68934 14.5625 6C14.5625 6.31066 14.3107 6.5625 14 6.5625H6.3881L8.48533 8.59618C8.70835 8.81245 8.71383 9.16856 8.49757 9.39158C8.2813 9.61461 7.92519 9.62008 7.70217 9.40382L4.60842 6.40382C4.49916 6.29788 4.4375 6.15219 4.4375 6C4.4375 5.84782 4.49916 5.70212 4.60842 5.59618L7.70217 2.59618C7.92519 2.37992 8.2813 2.3854 8.49757 2.60842ZM10.5024 8.60842C10.7187 8.3854 11.0748 8.37992 11.2978 8.59618L14.3916 11.5962C14.5008 11.7021 14.5625 11.8478 14.5625 12C14.5625 12.1522 14.5008 12.2979 14.3916 12.4038L11.2978 15.4038C11.0748 15.6201 10.7187 15.6146 10.5024 15.3916C10.2862 15.1686 10.2916 14.8124 10.5147 14.5962L12.6119 12.5625L5 12.5625C4.68934 12.5625 4.4375 12.3107 4.4375 12C4.4375 11.6893 4.68934 11.4375 5 11.4375L12.6119 11.4375L10.5147 9.40382C10.2916 9.18756 10.2862 8.83144 10.5024 8.60842Z" fill="#262626"/>
</svg>
