<svg width="36" height="36" viewBox="0 0 36 36" fill="none" xmlns="http://www.w3.org/2000/svg">
<g id="Support">
<path id="Vector" d="M30.6416 13.5647L30.6001 13.3995L30.6001 13.3991C29.1303 7.60433 24.3991 2.6517 18.0155 2.6517C11.6236 2.6517 6.90061 7.58481 5.43085 13.3909L5.43069 13.3916L5.3886 13.561L5.21267 13.6029L30.6416 13.5647ZM30.6416 13.5647L30.8107 13.6059L30.8115 13.6061C32.3268 13.9842 33.4021 15.3356 33.4021 16.8786V21.0742C33.4021 22.582 32.3798 23.9107 30.9112 24.3207C30.9111 24.3207 30.911 24.3208 30.9109 24.3208L30.7245 24.3735L30.6987 24.5643L30.6987 24.5643C30.2509 27.8629 27.3734 30.341 23.997 30.341H21.5847L21.5072 30.5154L21.5071 30.5156C21.1234 31.3746 20.2582 31.9309 19.3076 31.9309H16.6981C15.3715 31.9309 14.292 30.8711 14.292 29.5591C14.292 28.2472 15.3715 27.1874 16.6981 27.1874H19.3076C20.2582 27.1874 21.1234 27.7437 21.5071 28.6026L21.5072 28.6029L21.5847 28.7773H23.997C26.487 28.7773 28.6318 27.0146 29.0887 24.6092L29.0888 24.609L29.1364 24.3601L28.8914 24.2803L28.8913 24.2802C27.4954 23.824 26.5466 22.5297 26.5466 21.0769V16.8841C26.5466 15.4776 27.4368 14.2151 28.7708 13.7214L29.0251 13.6271L28.9518 13.3709L28.9517 13.3708C27.5378 8.4085 23.4638 4.21536 18.0127 4.21536C12.5503 4.21536 8.48754 8.40291 7.07077 13.3763L7.07065 13.3767L6.9976 13.6303L7.24939 13.7244L7.24989 13.7246C8.57202 14.224 9.45633 15.4833 9.45633 16.8814V21.0769C9.45633 22.9437 7.91708 24.4562 6.02716 24.4562C4.13724 24.4562 2.59799 22.9437 2.59799 21.0769V16.8841C2.59799 15.3303 3.68169 13.9669 5.21257 13.6029L30.6416 13.5647ZM30.4522 13.4366C28.9947 7.68981 24.3109 2.8042 18.0155 2.8042C11.7116 2.8042 7.03623 7.67049 5.57868 13.4283L30.4522 13.4366ZM6.16194 15.076L6.1702 15.0769H6.17852H6.1807C7.13256 15.1563 7.87038 15.944 7.87038 16.8814L7.87038 21.0742C7.87038 22.0724 7.04406 22.887 6.02716 22.887C5.00732 22.887 4.18394 22.075 4.18394 21.0769V16.8814C4.18394 15.9381 4.92298 15.154 5.89468 15.0765C5.91679 15.0752 5.93501 15.0738 5.95136 15.0725C5.97869 15.0703 6.00082 15.0686 6.02716 15.0686C6.07204 15.0686 6.11695 15.0711 6.16194 15.076ZM19.3048 30.3644H16.6953C16.2394 30.3644 15.8751 30.0002 15.8751 29.5591C15.8751 29.1159 16.2416 28.7538 16.6953 28.7538H19.3048C19.7607 28.7538 20.125 29.1181 20.125 29.5591C20.125 29.9999 19.7582 30.3644 19.3048 30.3644ZM31.8162 21.0769C31.8162 22.0752 30.9898 22.8897 29.9729 22.8897C28.9535 22.8897 28.1297 22.0727 28.1297 21.0769V16.8814C28.1297 15.8832 28.956 15.0686 29.9729 15.0686C30.9924 15.0686 31.8162 15.8857 31.8162 16.8814V21.0769Z" fill="#D64657" stroke="#D64657" stroke-width="0.304991"/>
</g>
</svg>
