<?xml version="1.0" encoding="UTF-8"?>
<!DOCTYPE svg PUBLIC "-//W3C//DTD SVG 1.1//EN" "http://www.w3.org/Graphics/SVG/1.1/DTD/svg11.dtd">
<!-- Creator: CorelDRAW 2020 (64-Bit) -->
<svg xmlns="http://www.w3.org/2000/svg" xml:space="preserve" width="16.9332mm" height="16.9332mm" version="1.1" style="shape-rendering:geometricPrecision; text-rendering:geometricPrecision; image-rendering:optimizeQuality; fill-rule:evenodd; clip-rule:evenodd"
viewBox="0 0 16.156 16.156"
 xmlns:xlink="http://www.w3.org/1999/xlink"
 xmlns:xodm="http://www.corel.com/coreldraw/odm/2003">
 <defs>
  <style type="text/css">
   <![CDATA[
    .fil1 {fill:none}
    .fil0 {fill:#0064FA}
   ]]>
  </style>
 </defs>
 <g id="Слой_x0020_1">
  <metadata id="CorelCorpID_0Corel-Layer"/>
  <g id="_2930104020704">
   <path class="fil0" d="M12.543 6.775l-0.023 -0.093c-0.52,-2.082 -2.191,-3.852 -4.437,-3.852 -2.249,0 -3.917,1.763 -4.437,3.849l-0.023 0.094 -0.095 0.023c-0.522,0.126 -0.891,0.598 -0.891,1.135l0 1.519c0,0.645 0.524,1.169 1.169,1.169 0.645,0 1.169,-0.524 1.169,-1.169l0 -1.52c0,-0.483 -0.301,-0.919 -0.752,-1.092l-0.137 -0.052 0.04 -0.141c0.51,-1.818 1.976,-3.359 3.956,-3.359 1.976,0 3.446,1.543 3.955,3.357l0.04 0.142 -0.138 0.052c-0.455,0.171 -0.758,0.608 -0.758,1.094l0 1.519c0,0.502 0.323,0.95 0.799,1.108l0.133 0.044 -0.026 0.138c-0.168,0.898 -0.956,1.555 -1.87,1.555l-0.896 0 -0.042 -0.096c-0.128,-0.291 -0.417,-0.48 -0.735,-0.48l-0.931 0c-0.444,0 -0.804,0.36 -0.804,0.804 0,0.444 0.36,0.804 0.804,0.804l0.931 0c0.318,0 0.607,-0.189 0.735,-0.48l0.042 -0.096 0.896 0c1.178,0 2.181,-0.878 2.337,-2.045l0.014 -0.105 0.101 -0.029c0.501,-0.142 0.849,-0.602 0.849,-1.123l0 -1.52c0,-0.533 -0.366,-1.001 -0.883,-1.132l-0.093 -0.023zm-8.025 1.155l0 1.519c0,0.393 -0.32,0.712 -0.712,0.712 -0.393,0 -0.712,-0.318 -0.712,-0.711l0 -1.52c0,-0.372 0.287,-0.679 0.661,-0.709 0.017,-0.001 0.034,-0.003 0.051,-0.003 0.018,0 0.036,0.001 0.054,0.003l0.003 0c0.368,0.03 0.655,0.339 0.655,0.709zm4.025 4.94l-0.931 0c-0.192,0 -0.347,-0.156 -0.347,-0.347 0,-0.192 0.156,-0.347 0.347,-0.347l0.931 0c0.192,0 0.347,0.156 0.347,0.347 0,0.191 -0.156,0.347 -0.347,0.347zm4.518 -3.42c0,0.393 -0.32,0.712 -0.712,0.712 -0.393,0 -0.712,-0.32 -0.712,-0.712l0 -1.52c0,-0.393 0.32,-0.712 0.712,-0.712 0.393,0 0.712,0.32 0.712,0.712l0 1.52z"/>
   <rect class="fil1" x="-0" y="-0" width="16.156" height="16.156"/>
  </g>
 </g>
</svg>
