<svg width="22" height="22" viewBox="0 0 22 22" fill="none" xmlns="http://www.w3.org/2000/svg">
<path d="M10.9987 20.3955C5.816 20.3955 1.60286 16.1824 1.60286 10.9997C1.60286 5.81697 5.816 1.60384 10.9987 1.60384C16.1814 1.60384 20.3945 5.81697 20.3945 10.9997C20.3945 16.1824 16.1814 20.3955 10.9987 20.3955ZM10.9987 2.06217C6.07057 2.06217 2.0612 6.07154 2.0612 10.9997C2.0612 15.9278 6.07057 19.9372 10.9987 19.9372C15.9268 19.9372 19.9362 15.9278 19.9362 10.9997C19.9362 6.07154 15.9268 2.06217 10.9987 2.06217Z" stroke="#00CC5E" stroke-width="0.916667"/>
<path d="M9.37325 12.947L9.69734 13.2711L10.0214 12.947L14.7331 8.23538C14.8199 8.14854 14.9697 8.14854 15.0566 8.23538L15.3807 7.91129L15.0566 8.23538C15.1434 8.32222 15.1434 8.47202 15.0566 8.55886L15.3807 8.88296L15.0566 8.55886L9.85909 13.7564C9.81573 13.7997 9.75774 13.8238 9.69734 13.8238C9.63695 13.8238 9.57896 13.7997 9.5356 13.7564L6.94143 11.1622C6.85459 11.0754 6.85459 10.9256 6.94143 10.8387C7.02828 10.7519 7.17808 10.7519 7.26492 10.8387L9.37325 12.947Z" fill="#00CC5E" stroke="#00CC5E" stroke-width="0.916667"/>
</svg>
