<svg width="22" height="23" viewBox="0 0 22 23" fill="none" xmlns="http://www.w3.org/2000/svg">
<path d="M11.0002 20.8958C5.81746 20.8958 1.60433 16.6827 1.60433 11.5C1.60433 6.31731 5.81746 2.10418 11.0002 2.10418C16.1829 2.10418 20.396 6.31731 20.396 11.5C20.396 16.6827 16.1829 20.8958 11.0002 20.8958ZM11.0002 2.56251C6.07203 2.56251 2.06266 6.57188 2.06266 11.5C2.06266 16.4281 6.07203 20.4375 11.0002 20.4375C15.9283 20.4375 19.9377 16.4281 19.9377 11.5C19.9377 6.57188 15.9283 2.56251 11.0002 2.56251Z" stroke="#262626" stroke-width="0.916667"/>
<path d="M9.37472 13.4467L9.69881 13.7708L10.0229 13.4467L14.7346 8.73501C14.8214 8.64817 14.9712 8.64817 15.0581 8.73501L15.3821 8.41092L15.0581 8.73501C15.1449 8.82186 15.1449 8.97166 15.0581 9.0585L15.3821 9.38259L15.0581 9.0585L9.86055 14.256C9.81719 14.2994 9.7592 14.3234 9.69881 14.3234C9.63841 14.3234 9.58043 14.2994 9.53707 14.256L6.9429 11.6618C6.85606 11.575 6.85606 11.4252 6.9429 11.3383C7.02974 11.2515 7.17954 11.2515 7.26638 11.3383L9.37472 13.4467Z" fill="#262626" stroke="#262626" stroke-width="0.916667"/>
</svg>
