<svg width="20" height="20" viewBox="0 0 20 20" fill="none" xmlns="http://www.w3.org/2000/svg">
<g clip-path="url(#clip0_1180_22404)">
<path d="M17.498 4.98698C14.723 4.71198 11.9314 4.57031 9.14805 4.57031C7.49805 4.57031 5.84805 4.65365 4.19805 4.82031L2.49805 4.98698" stroke="#B1B2B4" stroke-width="1.25" stroke-linecap="round" stroke-linejoin="round"/>
<path d="M7.08203 4.14687L7.26536 3.05521C7.3987 2.26354 7.4987 1.67188 8.90703 1.67188H11.0904C12.4987 1.67188 12.607 2.29688 12.732 3.06354L12.9154 4.14687" stroke="#B1B2B4" stroke-width="1.25" stroke-linecap="round" stroke-linejoin="round"/>
<path d="M15.7057 7.625L15.1641 16.0167C15.0724 17.325 14.9974 18.3417 12.6724 18.3417H7.3224C4.9974 18.3417 4.9224 17.325 4.83073 16.0167L4.28906 7.625" stroke="#B1B2B4" stroke-width="1.25" stroke-linecap="round" stroke-linejoin="round"/>
<path d="M8.60547 13.7578H11.3805" stroke="#B1B2B4" stroke-width="1.25" stroke-linecap="round" stroke-linejoin="round"/>
<path d="M7.91406 10.4219H12.0807" stroke="#B1B2B4" stroke-width="1.25" stroke-linecap="round" stroke-linejoin="round"/>
</g>
<defs>
<clipPath id="clip0_1180_22404">
<rect width="20" height="20" fill="white"/>
</clipPath>
</defs>
</svg>
