<svg width="36" height="36" viewBox="0 0 36 36" fill="none" xmlns="http://www.w3.org/2000/svg">
<g id="user">
<g id="user-add">
<path id="Vector" d="M17.9993 18.0063C21.9619 18.0063 25.1743 14.7939 25.1743 10.8313C25.1743 6.86862 21.9619 3.65625 17.9993 3.65625C14.0366 3.65625 10.8242 6.86862 10.8242 10.8313C10.8242 14.7939 14.0366 18.0063 17.9993 18.0063Z" stroke="#0064FA" stroke-width="2.15251" stroke-linecap="round" stroke-linejoin="round"/>
<path id="Vector_2" d="M5.67334 32.3654C5.67334 26.8119 11.1981 22.3203 18 22.3203C19.3777 22.3203 20.7122 22.5069 21.9607 22.8513" stroke="#0064FA" stroke-width="2.15251" stroke-linecap="round" stroke-linejoin="round"/>
<path id="Vector_3" d="M32.3502 26.6228C32.3502 27.082 32.2928 27.5269 32.178 27.9574C32.0488 28.5314 31.8192 29.091 31.5179 29.579C30.5277 31.2436 28.7053 32.3629 26.6101 32.3629C25.1321 32.3629 23.7975 31.8032 22.793 30.8848C22.3625 30.5117 21.9894 30.0669 21.7024 29.579C21.1714 28.7179 20.8701 27.6991 20.8701 26.6228C20.8701 25.073 21.4872 23.6524 22.4917 22.6192C23.5392 21.5429 25.0029 20.8828 26.6101 20.8828C28.3035 20.8828 29.8389 21.6147 30.8721 22.7914C31.7905 23.8103 32.3502 25.1591 32.3502 26.6228Z" stroke="#0064FA" stroke-width="2.15251" stroke-miterlimit="10" stroke-linecap="round" stroke-linejoin="round"/>
<g id="Group">
<path id="Vector_4" d="M28.748 26.5938H24.4717" stroke="#0064FA" stroke-width="2.15251" stroke-miterlimit="10" stroke-linecap="round" stroke-linejoin="round"/>
<path id="Vector_5" d="M26.6104 24.5V28.7907" stroke="#0064FA" stroke-width="2.15251" stroke-miterlimit="10" stroke-linecap="round" stroke-linejoin="round"/>
</g>
</g>
</g>
</svg>
