<svg width="24" height="24" viewBox="0 0 24 24" fill="none" xmlns="http://www.w3.org/2000/svg">
<g id="icon" clip-path="url(#clip0_1103_26539)">
<g id="Group 48096199">
<g id="profile-circle">
<path id="Vector" d="M6.06256 7.0257C6.02476 7.02029 5.97616 7.02029 5.93296 7.0257C4.98256 6.99329 4.22656 6.2156 4.22656 5.25969C4.22656 4.28217 5.01496 3.48828 5.99776 3.48828C6.97516 3.48828 7.76896 4.28217 7.76896 5.25969C7.76356 6.2156 7.01296 6.99329 6.06256 7.0257Z" stroke="#0064FA" stroke-width="1.2" stroke-linecap="round" stroke-linejoin="round"/>
<path id="Vector_2" d="M9.64639 10.5915C8.68519 11.4718 7.41079 12.0065 6.00679 12.0065C4.60279 12.0065 3.32839 11.4718 2.36719 10.5915C2.42119 10.0838 2.74519 9.58697 3.32299 9.19812C4.80259 8.21521 7.22179 8.21521 8.69059 9.19812C9.26839 9.58697 9.59239 10.0838 9.64639 10.5915Z" stroke="#0064FA" stroke-width="1.2" stroke-linecap="round" stroke-linejoin="round"/>
<path id="Vector_3" d="M6.00156 12.0044C8.9839 12.0044 11.4016 9.58644 11.4016 6.60376C11.4016 3.62107 8.9839 1.20312 6.00156 1.20312C3.01922 1.20312 0.601562 3.62107 0.601562 6.60376C0.601562 9.58644 3.01922 12.0044 6.00156 12.0044Z" stroke="#0064FA" stroke-width="1.2" stroke-linecap="round" stroke-linejoin="round"/>
</g>
<g id="profile-circle_2">
<path id="Vector_4" d="M18.5539 12.4717C18.5203 12.4669 18.4771 12.4669 18.4387 12.4717C17.5939 12.4429 16.9219 11.7518 16.9219 10.9023C16.9219 10.0336 17.6227 9.32812 18.4963 9.32812C19.3651 9.32812 20.0707 10.0336 20.0707 10.9023C20.0659 11.7518 19.3987 12.4429 18.5539 12.4717Z" stroke="#0064FA" stroke-width="1.2" stroke-linecap="round" stroke-linejoin="round"/>
<path id="Vector_5" d="M21.7282 15.6394C20.8738 16.4217 19.741 16.8968 18.493 16.8968C17.245 16.8968 16.1122 16.4217 15.2578 15.6394C15.3058 15.1883 15.5938 14.7468 16.1074 14.4012C17.4226 13.5277 19.573 13.5277 20.8786 14.4012C21.3922 14.7468 21.6802 15.1883 21.7282 15.6394Z" stroke="#0064FA" stroke-width="1.2" stroke-linecap="round" stroke-linejoin="round"/>
<path id="Vector_6" d="M18.4953 16.8955C21.1463 16.8955 23.2953 14.7468 23.2953 12.0962C23.2953 9.4456 21.1463 7.29688 18.4953 7.29688C15.8443 7.29688 13.6953 9.4456 13.6953 12.0962C13.6953 14.7468 15.8443 16.8955 18.4953 16.8955Z" stroke="#0064FA" stroke-width="1.2" stroke-linecap="round" stroke-linejoin="round"/>
</g>
<g id="profile-circle_3">
<path id="Vector_7" d="M8.03737 18.9219C8.00797 18.9177 7.97017 18.9177 7.93657 18.9219C7.19737 18.8967 6.60938 18.2921 6.60938 17.549C6.60938 16.7891 7.22257 16.1719 7.98697 16.1719C8.74717 16.1719 9.36457 16.7891 9.36457 17.549C9.36037 18.2921 8.77657 18.8967 8.03737 18.9219Z" stroke="#0064FA" stroke-width="1.2" stroke-linecap="round" stroke-linejoin="round"/>
<path id="Vector_8" d="M10.8179 21.6993C10.0703 22.3837 9.07905 22.7993 7.98705 22.7993C6.89505 22.7993 5.90385 22.3837 5.15625 21.6993C5.19825 21.3046 5.45025 20.9184 5.89965 20.6161C7.05045 19.8519 8.93205 19.8519 10.0744 20.6161C10.5238 20.9184 10.7759 21.3046 10.8179 21.6993Z" stroke="#0064FA" stroke-width="1.2" stroke-linecap="round" stroke-linejoin="round"/>
<path id="Vector_9" d="M7.98906 22.7956C10.3087 22.7956 12.1891 20.9158 12.1891 18.597C12.1891 16.2782 10.3087 14.3984 7.98906 14.3984C5.66947 14.3984 3.78906 16.2782 3.78906 18.597C3.78906 20.9158 5.66947 22.7956 7.98906 22.7956Z" stroke="#0064FA" stroke-width="1.2" stroke-linecap="round" stroke-linejoin="round"/>
</g>
<rect id="Rectangle 6278" x="11.25" y="8.00391" width="3.96021" height="1.08" transform="rotate(30 11.25 8.00391)" fill="#0064FA"/>
<rect id="Rectangle 6279" x="11.3906" y="16.6094" width="4.01911" height="1.08" transform="rotate(-30 11.3906 16.6094)" fill="#0064FA"/>
<rect id="Rectangle 6280" x="6.89844" y="14.8477" width="3.16342" height="1.08" transform="rotate(-106.604 6.89844 14.8477)" fill="#0064FA"/>
</g>
</g>
<defs>
<clipPath id="clip0_1103_26539">
<rect width="24" height="24" fill="white"/>
</clipPath>
</defs>
</svg>
