<svg width="18" height="19" viewBox="0 0 18 19" fill="none" xmlns="http://www.w3.org/2000/svg">
<path d="M11.25 7.99986L8.24996 10.9999L6.74996 9.49986M9.93453 3.09409L10.8503 3.87447C11.081 4.07107 11.3674 4.18993 11.6696 4.21404L12.8688 4.30962C13.5739 4.36589 14.134 4.9256 14.1903 5.63069L14.2856 6.83018C14.3097 7.13233 14.429 7.41919 14.6256 7.6499L15.4057 8.56536C15.8644 9.10373 15.8645 9.89565 15.4057 10.434L14.6257 11.3496C14.4291 11.5803 14.31 11.8673 14.2859 12.1695L14.1899 13.3687C14.1336 14.0738 13.5744 14.6339 12.8693 14.6902L11.6696 14.7859C11.3675 14.81 11.0808 14.9285 10.8501 15.1252L9.93453 15.9055C9.39617 16.3643 8.60376 16.3644 8.06539 15.9056L7.14987 15.1252C6.91916 14.9286 6.63244 14.8099 6.33029 14.7857L5.13058 14.6902C4.42548 14.6339 3.86629 14.074 3.81002 13.3689L3.71408 12.1695C3.68996 11.8674 3.57084 11.5807 3.37423 11.35L2.5942 10.4341C2.13541 9.89569 2.13519 9.10402 2.59399 8.56565L3.37472 7.64976C3.57132 7.41906 3.68931 7.13233 3.71342 6.83018L3.80936 5.63084C3.86563 4.92574 4.42644 4.36582 5.13154 4.30955L6.32992 4.21397C6.63207 4.18986 6.91893 4.07109 7.14964 3.87449L8.06547 3.09409C8.60384 2.6353 9.39617 2.6353 9.93453 3.09409Z" stroke="#0064FA" stroke-width="1.125" stroke-linecap="round" stroke-linejoin="round"/>
</svg>
