<svg width="20" height="20" viewBox="0 0 20 20" fill="none" xmlns="http://www.w3.org/2000/svg">
<g id="alarm-clock">
<path id="Icon" d="M4.16797 2.5L1.66797 5M18.3346 5L15.8346 2.5M5.0013 15.8333L3.33464 17.5M15.0013 15.8333L16.668 17.5M10.0013 7.5V10.8333L11.668 12.5M10.0013 17.5C11.7694 17.5 13.4651 16.7976 14.7153 15.5474C15.9656 14.2971 16.668 12.6014 16.668 10.8333C16.668 9.06522 15.9656 7.36953 14.7153 6.11929C13.4651 4.86905 11.7694 4.16667 10.0013 4.16667C8.23319 4.16667 6.5375 4.86905 5.28726 6.11929C4.03701 7.36953 3.33464 9.06522 3.33464 10.8333C3.33464 12.6014 4.03701 14.2971 5.28726 15.5474C6.5375 16.7976 8.23319 17.5 10.0013 17.5Z" stroke="#7D7F82" stroke-width="1.25" stroke-linecap="round" stroke-linejoin="round"/>
</g>
</svg>
