<svg width="56" height="56" viewBox="0 0 56 56" fill="none" xmlns="http://www.w3.org/2000/svg">
<g id="avatar">
<circle id="Ellipse 1" cx="28" cy="28" r="28" fill="#FEF5E3"/>
<g id="star">
<path id="Vector" d="M29.5549 20.3594L31.1387 23.5271C31.3547 23.968 31.9306 24.391 32.4166 24.472L35.2872 24.9489C37.123 25.2549 37.555 26.5868 36.2321 27.9006L34.0004 30.1324C33.6224 30.5104 33.4154 31.2393 33.5324 31.7612L34.1714 34.5239C34.6753 36.7107 33.5144 37.5566 31.5796 36.4137L28.8889 34.8209C28.403 34.5329 27.6021 34.5329 27.1071 34.8209L24.4164 36.4137C22.4907 37.5566 21.3208 36.7017 21.8247 34.5239L22.4637 31.7612C22.5806 31.2393 22.3737 30.5104 21.9957 30.1324L19.764 27.9006C18.4501 26.5868 18.8731 25.2549 20.7089 24.9489L23.5795 24.472C24.0565 24.391 24.6324 23.968 24.8484 23.5271L26.4322 20.3594C27.2961 18.6406 28.7 18.6406 29.5549 20.3594Z" stroke="#FFC555" stroke-width="1.34985" stroke-linecap="round" stroke-linejoin="round"/>
</g>
</g>
</svg>
