<svg width="32" height="32" viewBox="0 0 32 32" fill="none" xmlns="http://www.w3.org/2000/svg">
<g id="svg" clip-path="url(#clip0_851_10699)">
<path id="Vector" d="M11.7455 19.8931L19.8922 5.1771C20.0042 4.97443 20.1162 4.77444 20.2175 4.5651C20.3095 4.37577 20.3869 4.1851 20.4375 3.97844C20.5442 3.54377 20.5149 3.09044 20.3495 2.67577C20.188 2.2678 19.8978 1.9237 19.5229 1.69577C19.1544 1.47231 18.7207 1.38151 18.2935 1.43844C17.8669 1.49577 17.4762 1.6971 17.1682 2.01177C17.0215 2.15843 16.9015 2.3251 16.7909 2.50244C16.6682 2.6971 16.5575 2.89977 16.4455 3.10243L15.9309 4.03177L15.4149 3.1011C15.3029 2.89977 15.1922 2.6971 15.0695 2.50244C14.9618 2.32538 14.8352 2.16043 14.6922 2.01044C14.3917 1.69914 13.9954 1.49772 13.5669 1.43844C13.1402 1.38193 12.707 1.47271 12.3389 1.69577C11.964 1.92378 11.6738 2.26785 11.5122 2.67577C11.3462 3.08984 11.3154 3.5458 11.4242 3.97844C11.4749 4.1851 11.5522 4.37577 11.6429 4.5651C11.7442 4.77444 11.8562 4.97443 11.9682 5.1771L13.6322 8.18244L7.14952 19.8918H2.70552C2.48286 19.8918 2.25886 19.8918 2.03619 19.9051C1.83352 19.9171 1.63619 19.9424 1.43886 19.9998C1.02552 20.1198 0.662857 20.3731 0.401524 20.7304C0.140457 21.0901 -0.000248514 21.5231 -0.000487975 21.9676C-0.000727437 22.412 0.139511 22.8451 0.400191 23.2051C0.662857 23.5624 1.02419 23.8144 1.43886 23.9358C1.63619 23.9931 1.83352 24.0184 2.03619 24.0304C2.25886 24.0438 2.48286 24.0438 2.70686 24.0438H20.1695C20.2229 23.9273 20.2674 23.8069 20.3029 23.6838C20.8562 21.7958 19.4815 19.8918 17.5895 19.8918L11.7455 19.8931ZM4.15086 24.7224L3.09486 26.7224C2.98552 26.9304 2.87486 27.1358 2.77619 27.3504C2.6848 27.5436 2.61332 27.7455 2.56286 27.9531C2.45587 28.3973 2.48561 28.8634 2.64819 29.2904C2.80952 29.7144 3.09352 30.0678 3.45752 30.2971C3.82019 30.5264 4.24286 30.6198 4.65886 30.5598C5.07752 30.5011 5.45886 30.2958 5.76019 29.9731C5.90419 29.8198 6.02152 29.6504 6.13086 29.4691C6.25086 29.2691 6.35886 29.0611 6.46819 28.8531L8.00019 25.9518C7.88019 25.7518 6.73752 23.9918 4.15086 24.7224ZM31.5989 20.7144C31.3416 20.3663 30.9764 20.1132 30.5602 19.9944C30.3652 19.9407 30.1649 19.9089 29.9629 19.8998C29.7389 19.8864 29.5162 19.8864 29.2922 19.8864H24.8642L19.0109 9.46644C18.2429 10.2727 17.7419 11.296 17.5762 12.3971C17.3618 13.7744 17.6183 15.1837 18.3042 16.3971L25.3362 28.9211C25.4482 29.1211 25.5589 29.3211 25.6815 29.5131C25.7935 29.6864 25.9135 29.8504 26.0589 29.9984C26.3669 30.3078 26.7575 30.5051 27.1855 30.5624C27.6122 30.6184 28.0429 30.5304 28.4149 30.3091C28.789 30.0853 29.0797 29.7454 29.2429 29.3411C29.4095 28.9318 29.4375 28.4851 29.3309 28.0558C29.2784 27.8556 29.2047 27.6616 29.1109 27.4771C29.0109 27.2704 28.8975 27.0731 28.7855 26.8731L27.1642 23.9851H29.2922C29.5162 23.9851 29.7389 23.9851 29.9629 23.9731C30.1655 23.9611 30.3629 23.9358 30.5602 23.8798C30.9771 23.761 31.3428 23.5073 31.6002 23.1584C31.8609 22.8047 32.0011 22.3765 32.0002 21.9371C32.0011 21.4977 31.8609 21.0695 31.6002 20.7158L31.5989 20.7144Z" fill="#1E88FF"/>
</g>
<defs>
<clipPath id="clip0_851_10699">
<rect width="32" height="32" fill="white"/>
</clipPath>
</defs>
</svg>
