<svg width="32" height="32" viewBox="0 0 32 32" fill="none" xmlns="http://www.w3.org/2000/svg">
<g id="svg">
<g id="Vector">
<path d="M15.142 15.2724L1.94962 29.3216C1.95086 29.3241 1.95086 29.3266 1.95209 29.329C2.35603 30.8558 3.74503 31.9785 5.39299 31.9785C6.05218 31.9785 6.67047 31.7994 7.20079 31.4861L7.24292 31.4613L22.0919 22.8639L15.142 15.2724Z" fill="#EB4335"/>
<path d="M28.4896 12.8805L28.4772 12.8718L22.0662 9.14192L14.8437 15.5908L22.091 22.8616L28.4685 19.1703C29.5861 18.5648 30.3444 17.3824 30.3444 16.0185C30.3444 14.6646 29.596 13.4872 28.4896 12.8805Z" fill="#FABC13"/>
<path d="M1.95004 2.65686C1.87074 2.95027 1.82861 3.25736 1.82861 3.57689V28.4016C1.82861 28.7211 1.86908 29.0294 1.94962 29.3216L15.5959 15.6318L1.95004 2.65686Z" fill="#547DBF"/>
<path d="M15.2386 15.9887L22.0672 9.1394L7.23425 0.510991C6.69525 0.186493 6.06704 0 5.39299 0C3.74503 0 2.35479 1.12517 1.94962 2.65317L1.95004 2.65686L15.2386 15.9887Z" fill="#30A851"/>
</g>
</g>
</svg>
