<svg width="24" height="24" viewBox="0 0 24 24" fill="none" xmlns="http://www.w3.org/2000/svg">
<g id="Support">
<path id="Vector" d="M4.91769 10.5633L4.91775 10.5628C4.88927 10.5597 4.86083 10.5581 4.83242 10.5581C4.81574 10.5581 4.80173 10.5592 4.78442 10.5606L4.91769 10.5633ZM4.91769 10.5633H4.92825M4.91769 10.5633H4.92825M4.92825 10.5633H4.92964C5.5323 10.6137 5.99944 11.1124 5.99944 11.7059V14.3605M4.92825 10.5633L5.99944 14.3605M5.99944 14.3605C5.99944 14.9925 5.47626 15.5083 4.83242 15.5083M5.99944 14.3605L4.83242 15.5083M4.83242 15.5083C4.18671 15.5083 3.6654 14.9942 3.6654 14.3623M4.83242 15.5083L3.6654 14.3623M3.6654 14.3623V11.7059M3.6654 14.3623V11.7059M3.6654 11.7059C3.6654 11.1086 4.13331 10.6122 4.74854 10.5631L3.6654 11.7059ZM20.4169 9.60593L20.3907 9.50131L20.3906 9.50109C19.4601 5.83215 16.4645 2.69642 12.4227 2.69642C8.37575 2.69642 5.38544 5.81979 4.45487 9.49589L4.45477 9.4963L4.42811 9.60356L4.31673 9.63012C3.34743 9.86052 2.66126 10.7238 2.66126 11.7076V14.3623C2.66126 15.5442 3.63583 16.5018 4.83242 16.5018C6.02901 16.5018 7.00358 15.5442 7.00358 14.3623V11.7059C7.00358 10.8207 6.44368 10.0233 5.60658 9.70713L5.60627 9.70701L5.44685 9.64743L5.4931 9.48689L5.49318 9.48661C6.39019 6.33776 8.96252 3.68644 12.421 3.68644C15.8724 3.68644 18.4518 6.3413 19.347 9.48312L19.347 9.48322L19.3934 9.64542L19.2324 9.70516C18.3878 10.0177 17.8242 10.8171 17.8242 11.7076V14.3623C17.8242 15.2821 18.4249 16.1015 19.3087 16.3904L19.3088 16.3904L19.4639 16.441L19.4338 16.5985L19.4337 16.5987C19.1444 18.1217 17.7864 19.2377 16.2099 19.2377H14.6826L14.6335 19.1273L14.6334 19.1271C14.3905 18.5832 13.8428 18.2311 13.2409 18.2311H11.5886C10.7488 18.2311 10.0652 18.902 10.0652 19.7327C10.0652 20.5634 10.7488 21.2343 11.5886 21.2343H13.2409C13.8428 21.2343 14.3905 20.8822 14.6334 20.3383L14.6335 20.3381L14.6826 20.2277H16.2099C18.3477 20.2277 20.1695 18.6587 20.453 16.5703L20.453 16.5702L20.4694 16.4495L20.5874 16.4161C21.5174 16.1565 22.1647 15.3152 22.1647 14.3605V11.7041C22.1647 10.7271 21.4839 9.87151 20.5245 9.63212L20.524 9.63199L20.4169 9.60593ZM4.54847 9.51958L4.50765 9.68386L4.54847 9.51958ZM5.57246 9.79745L5.32933 9.70658L5.57246 9.79745ZM13.2391 20.2426H11.5869C11.2982 20.2426 11.0676 20.012 11.0676 19.7327C11.0676 19.4521 11.2996 19.2228 11.5869 19.2228H13.2391C13.5277 19.2228 13.7584 19.4534 13.7584 19.7327C13.7584 20.0118 13.5261 20.2426 13.2391 20.2426ZM21.1606 14.3623C21.1606 14.9943 20.6374 15.51 19.9936 15.51C19.3481 15.51 18.8265 14.9927 18.8265 14.3623V11.7059C18.8265 11.0738 19.3497 10.5581 19.9936 10.5581C20.639 10.5581 21.1606 11.0754 21.1606 11.7059V14.3623Z" fill="#D64657" stroke="#D64657" stroke-width="0.193103"/>
</g>
</svg>
