<svg width="24" height="24" viewBox="0 0 24 24" fill="none" xmlns="http://www.w3.org/2000/svg">
<g id="tech-support">
<path id="Vector 74" d="M4.42461 10.1504C5.36349 10.1504 6.12461 10.9115 6.12461 11.8504V14.3C6.12461 15.2389 5.36349 16 4.42461 16C3.48573 16 2.72461 15.2389 2.72461 14.3V11.8504C2.72461 10.9115 3.48573 10.1504 4.42461 10.1504ZM4.42461 10.1504C4.42461 8.99414 5.87851 3.24414 12.0018 3.25C18.125 3.25587 19.5789 8.99414 19.5789 10.1504M19.5789 10.1504V10.1504C18.64 10.1504 17.8789 10.9115 17.8789 11.8504V14.3C17.8789 15.2389 18.64 16 19.5789 16V16M19.5789 10.1504V10.1504C20.5178 10.1504 21.2789 10.9115 21.2789 11.8504V14.3C21.2789 15.2389 20.5178 16 19.5789 16V16M19.5789 16C19.5789 17.9941 18.625 19.7441 14.125 19.7441M14.125 19.7441V19.7441C14.125 19.1919 13.6773 18.7441 13.125 18.7441H11.125C10.5727 18.7441 10.125 19.1919 10.125 19.7441V19.7441C10.125 20.2964 10.5727 20.7441 11.125 20.7441H13.125C13.6773 20.7441 14.125 20.2964 14.125 19.7441V19.7441Z" stroke="white" stroke-width="1.25"/>
</g>
</svg>
