<svg width="64" height="64" viewBox="0 0 64 64" fill="none" xmlns="http://www.w3.org/2000/svg">
<g id="icon">
<rect width="64" height="64" rx="16" fill="#3390EC"/>
<path id="Vector" d="M36.0642 20.8185C32.6253 22.2506 25.7476 25.2121 15.4398 29.7029C13.769 30.366 12.8893 31.0201 12.8098 31.6566C12.6772 32.7307 14.0253 33.1551 15.8597 33.7341L16.6332 33.9772C18.4366 34.5651 20.8677 35.2502 22.1275 35.2767C23.2767 35.3033 24.5541 34.8347 25.9642 33.8623C35.5957 27.3603 40.5683 24.0761 40.8778 24.0054C41.0988 23.9523 41.4082 23.8905 41.6115 24.0761C41.8192 24.2573 41.7971 24.6065 41.775 24.6993C41.6424 25.2695 36.3515 30.1847 33.6154 32.7307C32.7624 33.5264 32.1568 34.0877 32.033 34.2159C31.7605 34.4944 31.4835 34.7685 31.202 35.038C29.5224 36.6558 28.2671 37.8669 31.2683 39.8472C32.7137 40.8019 33.8718 41.5843 35.0255 42.371C36.2808 43.2286 37.5361 44.0816 39.1627 45.1513C39.5738 45.4165 39.9716 45.7038 40.3562 45.9779C41.8192 47.021 43.1409 47.9581 44.7631 47.8078C45.709 47.7194 46.6858 46.8354 47.1809 44.1833C48.3522 37.92 50.6551 24.3546 51.1856 18.7631C51.2179 18.2983 51.1986 17.8313 51.1281 17.3708C51.0865 16.9991 50.9066 16.6567 50.6242 16.4116C50.222 16.134 49.7425 15.9901 49.2539 16.0005C47.9279 16.0226 45.8814 16.7343 36.0642 20.8185Z" fill="white"/>
</g>
</svg>
