<svg width="12" height="12" viewBox="0 0 12 12" fill="none" xmlns="http://www.w3.org/2000/svg">
<g id="icon">
<g id="vuesax/outline/send-2">
<g id="send-2">
<path id="Vector" d="M7.10987 10.8126C6.51988 10.8126 5.68489 10.3976 5.02489 8.41263L4.6649 7.33264L3.58491 6.97265C1.60494 6.31265 1.18994 5.47766 1.18994 4.88767C1.18994 4.30268 1.60494 3.46269 3.58491 2.7977L7.82986 1.38271C8.88985 1.02772 9.77484 1.13272 10.3198 1.67271C10.8648 2.2127 10.9698 3.10269 10.6148 4.16268L9.19984 8.40763C8.53485 10.3976 7.69986 10.8126 7.10987 10.8126ZM3.81991 3.51269C2.42993 3.97768 1.93493 4.52768 1.93493 4.88767C1.93493 5.24767 2.42993 5.79766 3.81991 6.25765L5.07989 6.67765C5.18989 6.71265 5.27989 6.80265 5.31489 6.91265L5.73489 8.17263C6.19488 9.56261 6.74987 10.0576 7.10987 10.0576C7.46987 10.0576 8.01986 9.56261 8.48485 8.17263L9.89983 3.92768C10.1548 3.15769 10.1098 2.5277 9.78484 2.2027C9.45984 1.87771 8.82985 1.83771 8.06486 2.09271L3.81991 3.51269Z" fill="white"/>
<path id="Vector_2" d="M5.0549 7.19997C4.9599 7.19997 4.8649 7.16497 4.7899 7.08997C4.6449 6.94497 4.6449 6.70498 4.7899 6.55998L6.57988 4.765C6.72488 4.62 6.96487 4.62 7.10987 4.765C7.25487 4.91 7.25487 5.14999 7.10987 5.29499L5.31989 7.08997C5.2499 7.16497 5.1499 7.19997 5.0549 7.19997Z" fill="white"/>
</g>
</g>
</g>
</svg>
