<svg width="24" height="24" viewBox="0 0 24 24" fill="none" xmlns="http://www.w3.org/2000/svg">
<g id="icon">
<g id="add-circle">
<path id="Vector" d="M12 22C6.48372 22 2 17.5163 2 12C2 6.48372 6.48372 2 12 2C17.5163 2 22 6.48372 22 12C22 17.5163 17.5163 22 12 22ZM12 3.39535C7.25581 3.39535 3.39535 7.25581 3.39535 12C3.39535 16.7442 7.25581 20.6047 12 20.6047C16.7442 20.6047 20.6047 16.7442 20.6047 12C20.6047 7.25581 16.7442 3.39535 12 3.39535Z" fill="#00CC5E"/>
<path id="Vector_2" d="M15.7216 12.6961H8.27971C7.89831 12.6961 7.58203 12.3799 7.58203 11.9985C7.58203 11.6171 7.89831 11.3008 8.27971 11.3008H15.7216C16.103 11.3008 16.4192 11.6171 16.4192 11.9985C16.4192 12.3799 16.103 12.6961 15.7216 12.6961Z" fill="#00CC5E"/>
<path id="Vector_3" d="M11.9985 16.4192C11.6171 16.4192 11.3008 16.103 11.3008 15.7216V8.27971C11.3008 7.89831 11.6171 7.58203 11.9985 7.58203C12.3799 7.58203 12.6961 7.89831 12.6961 8.27971V15.7216C12.6961 16.103 12.3799 16.4192 11.9985 16.4192Z" fill="#00CC5E"/>
</g>
</g>
</svg>
