<svg width="14" height="14" viewBox="0 0 14 14" fill="none" xmlns="http://www.w3.org/2000/svg">
<path d="M6.9987 7.0013C8.60953 7.0013 9.91536 5.69547 9.91536 4.08464C9.91536 2.4738 8.60953 1.16797 6.9987 1.16797C5.38787 1.16797 4.08203 2.4738 4.08203 4.08464C4.08203 5.69547 5.38787 7.0013 6.9987 7.0013Z" stroke="white" stroke-width="0.875" stroke-linecap="round" stroke-linejoin="round"/>
<path d="M1.98828 12.8333C1.98828 10.5758 4.23411 8.75 6.99911 8.75C7.55911 8.75 8.10162 8.82583 8.60912 8.96583" stroke="white" stroke-width="0.875" stroke-linecap="round" stroke-linejoin="round"/>
<path d="M12.8346 10.4974C12.8346 10.9349 12.7121 11.3491 12.4963 11.6991C12.3738 11.9091 12.2163 12.0957 12.0355 12.2474C11.6271 12.6149 11.0905 12.8307 10.5013 12.8307C9.64964 12.8307 8.90879 12.3757 8.50629 11.6991C8.29046 11.3491 8.16797 10.9349 8.16797 10.4974C8.16797 9.7624 8.5063 9.10323 9.04297 8.6774C9.44547 8.35657 9.95297 8.16406 10.5013 8.16406C11.7905 8.16406 12.8346 9.20823 12.8346 10.4974Z" stroke="white" stroke-width="0.875" stroke-miterlimit="10" stroke-linecap="round" stroke-linejoin="round"/>
<path d="M9.58984 10.4974L10.1673 11.0749L11.4098 9.92578" stroke="white" stroke-width="0.875" stroke-linecap="round" stroke-linejoin="round"/>
</svg>
