<svg width="36" height="36" viewBox="0 0 36 36" fill="none" xmlns="http://www.w3.org/2000/svg">
<g id="vuesax/outline/call-add">
<g id="call-add">
<path id="Vector" d="M9.825 34.125C11.52 34.125 13.305 33.72 15.15 32.94C16.95 32.175 18.765 31.125 20.535 29.85C22.305 28.56 24 27.105 25.59 25.53C27.18 23.925 28.62 22.23 29.895 20.49C31.185 18.69 32.22 16.905 32.955 15.15C33.735 13.305 34.125 11.505 34.125 9.81C34.125 8.64 33.915 7.53 33.51 6.495C33.075 5.415 32.415 4.44 31.5 3.585C30.345 2.46 29.025 1.875 27.615 1.875C27.03 1.875 26.43 2.01 25.92 2.25C25.335 2.52 24.84 2.925 24.48 3.465L21 8.37C20.685 8.805 20.445 9.225 20.28 9.645C20.085 10.095 19.98 10.545 19.98 10.98C19.98 11.55 20.145 12.105 20.46 12.63C20.685 13.035 21.03 13.47 21.465 13.905L22.485 14.97C22.47 15.015 22.455 15.045 22.44 15.075C22.26 15.39 21.9 15.93 21.21 16.74C20.49 17.58 19.785 18.33 19.095 19.05C18.195 19.935 17.475 20.61 16.785 21.18C15.93 21.9 15.375 22.26 15.045 22.425L15.075 22.5L13.98 21.42C13.515 20.955 13.065 20.61 12.63 20.385C11.805 19.875 10.755 19.785 9.705 20.22C9.315 20.385 8.895 20.61 8.445 20.925L3.465 24.465C2.925 24.84 2.505 25.32 2.265 25.89C2.04 26.46 1.935 26.985 1.935 27.51C1.935 28.23 2.1 28.95 2.415 29.625C2.73 30.3 3.12 30.885 3.615 31.425C4.47 32.37 5.4 33.045 6.48 33.48C7.515 33.9 8.64 34.125 9.825 34.125ZM27.615 4.125C28.44 4.125 29.205 4.485 29.94 5.205C30.615 5.85 31.11 6.555 31.41 7.32C31.725 8.1 31.875 8.925 31.875 9.81C31.875 11.205 31.545 12.72 30.885 14.28C30.21 15.87 29.265 17.52 28.065 19.17C26.865 20.82 25.5 22.425 24 23.94C22.5 25.425 20.88 26.805 19.215 28.02C17.595 29.205 15.93 30.165 14.28 30.855C11.715 31.95 9.315 32.205 7.335 31.38C6.57 31.065 5.895 30.585 5.28 29.895C4.935 29.52 4.665 29.115 4.44 28.635C4.26 28.26 4.17 27.87 4.17 27.48C4.17 27.24 4.215 27 4.335 26.73C4.365 26.655 4.47 26.475 4.755 26.28L9.735 22.74C10.035 22.53 10.305 22.38 10.56 22.275C10.95 22.125 11.205 22.11 11.535 22.32C11.835 22.47 12.105 22.695 12.405 22.995L13.545 24.12C14.13 24.69 15.03 24.825 15.72 24.57L16.125 24.39C16.74 24.06 17.46 23.55 18.255 22.875C18.99 22.26 19.74 21.555 20.7 20.61C21.45 19.845 22.17 19.05 22.935 18.18C23.64 17.355 24.15 16.65 24.465 16.065L24.66 15.615C24.75 15.285 24.78 15.09 24.78 14.88C24.78 14.34 24.585 13.86 24.21 13.485L23.085 12.315C22.785 12.015 22.56 11.73 22.41 11.475C22.29 11.28 22.245 11.115 22.245 10.965C22.245 10.845 22.29 10.665 22.365 10.485C22.455 10.23 22.62 9.975 22.83 9.675L26.31 4.755C26.46 4.545 26.64 4.395 26.865 4.29C27.105 4.185 27.36 4.125 27.615 4.125ZM15.075 22.515L15.315 23.535L14.91 22.485C14.97 22.47 15.03 22.485 15.075 22.515Z" fill="white"/>
<path id="Vector_2" d="M5.25 10.125H12.75C13.365 10.125 13.875 9.615 13.875 9C13.875 8.385 13.365 7.875 12.75 7.875H5.25C4.635 7.875 4.125 8.385 4.125 9C4.125 9.615 4.635 10.125 5.25 10.125Z" fill="white"/>
<path id="Vector_3" d="M9 13.875C9.615 13.875 10.125 13.365 10.125 12.75V5.25C10.125 4.635 9.615 4.125 9 4.125C8.385 4.125 7.875 4.635 7.875 5.25V12.75C7.875 13.365 8.385 13.875 9 13.875Z" fill="white"/>
</g>
</g>
</svg>
