<svg width="24" height="24" viewBox="0 0 24 24" fill="none" xmlns="http://www.w3.org/2000/svg">
<path d="M9.1058 13.648L9.43059 14.2164L9.89348 13.7535L13.7535 9.89348L14.2164 9.43059L13.648 9.1058C13.1527 8.82276 12.5872 8.66992 11.9999 8.66992C10.1638 8.66992 8.66992 10.1638 8.66992 11.9999C8.66992 12.5872 8.82276 13.1527 9.1058 13.648ZM9.46992 14.7799C9.40537 14.7799 9.34476 14.7577 9.29347 14.7064C8.56714 13.98 8.16992 13.0172 8.16992 11.9999C8.16992 9.88606 9.88606 8.16992 11.9999 8.16992C13.0172 8.16992 13.98 8.56714 14.7064 9.29347C14.7537 9.34078 14.7799 9.40403 14.7799 9.46992C14.7799 9.53581 14.7537 9.59907 14.7064 9.64637L9.64637 14.7064C9.59508 14.7577 9.53447 14.7799 9.46992 14.7799Z" fill="#B1B2B4" stroke="#B1B2B4"/>
<path d="M5.59984 18.5105C5.42984 18.5105 5.24984 18.4505 5.10984 18.3305C4.03984 17.4205 3.07984 16.3005 2.25984 15.0005C1.19984 13.3505 1.19984 10.6605 2.25984 9.00047C4.69984 5.18047 8.24984 2.98047 11.9998 2.98047C14.1998 2.98047 16.3698 3.74047 18.2698 5.17047C18.5998 5.42047 18.6698 5.89047 18.4198 6.22047C18.1698 6.55047 17.6998 6.62047 17.3698 6.37047C15.7298 5.13047 13.8698 4.48047 11.9998 4.48047C8.76984 4.48047 5.67984 6.42047 3.51984 9.81047C2.76984 10.9805 2.76984 13.0205 3.51984 14.1905C4.26984 15.3605 5.12984 16.3705 6.07984 17.1905C6.38984 17.4605 6.42984 17.9305 6.15984 18.2505C6.01984 18.4205 5.80984 18.5105 5.59984 18.5105Z" fill="#B1B2B4"/>
<path d="M11.9996 21.0205C10.6696 21.0205 9.36957 20.7505 8.11957 20.2205C7.73957 20.0605 7.55957 19.6205 7.71957 19.2405C7.87957 18.8605 8.31957 18.6805 8.69957 18.8405C9.75957 19.2905 10.8696 19.5205 11.9896 19.5205C15.2196 19.5205 18.3096 17.5805 20.4696 14.1905C21.2196 13.0205 21.2196 10.9805 20.4696 9.81049C20.1596 9.32049 19.8196 8.85049 19.4596 8.41049C19.1996 8.09049 19.2496 7.62049 19.5696 7.35049C19.8896 7.09049 20.3596 7.13049 20.6296 7.46049C21.0196 7.94049 21.3996 8.46049 21.7396 9.00049C22.7996 10.6505 22.7996 13.3405 21.7396 15.0005C19.2996 18.8205 15.7496 21.0205 11.9996 21.0205Z" fill="#B1B2B4"/>
<path d="M12.6896 16.2703C12.3396 16.2703 12.0196 16.0203 11.9496 15.6603C11.8696 15.2503 12.1396 14.8603 12.5496 14.7903C13.6496 14.5903 14.5696 13.6703 14.7696 12.5703C14.8496 12.1603 15.2396 11.9003 15.6496 11.9703C16.0596 12.0503 16.3296 12.4403 16.2496 12.8503C15.9296 14.5803 14.5496 15.9503 12.8296 16.2703C12.7796 16.2603 12.7396 16.2703 12.6896 16.2703Z" fill="#B1B2B4"/>
<path d="M2.00043 22.7497C1.81043 22.7497 1.62043 22.6797 1.47043 22.5297C1.18043 22.2397 1.18043 21.7597 1.47043 21.4697L8.94043 13.9997C9.23043 13.7097 9.71043 13.7097 10.0004 13.9997C10.2904 14.2897 10.2904 14.7697 10.0004 15.0597L2.53043 22.5297C2.38043 22.6797 2.19043 22.7497 2.00043 22.7497Z" fill="#B1B2B4"/>
<path d="M14.5297 10.2204C14.3397 10.2204 14.1497 10.1504 13.9997 10.0004C13.7097 9.71043 13.7097 9.23043 13.9997 8.94043L21.4697 1.47043C21.7597 1.18043 22.2397 1.18043 22.5297 1.47043C22.8197 1.76043 22.8197 2.24043 22.5297 2.53043L15.0597 10.0004C14.9097 10.1504 14.7197 10.2204 14.5297 10.2204Z" fill="#B1B2B4"/>
</svg>
