<svg width="14" height="14" viewBox="0 0 14 14" fill="none" xmlns="http://www.w3.org/2000/svg">
<g id="icon">
<g id="add-circle">
<path id="Vector" d="M7 14C3.1386 14 0 10.8614 0 7C0 3.1386 3.1386 0 7 0C10.8614 0 14 3.1386 14 7C14 10.8614 10.8614 14 7 14ZM7 0.976744C3.67907 0.976744 0.976744 3.67907 0.976744 7C0.976744 10.3209 3.67907 13.0233 7 13.0233C10.3209 13.0233 13.0233 10.3209 13.0233 7C13.0233 3.67907 10.3209 0.976744 7 0.976744Z" fill="white"/>
<path id="Vector_2" d="M9.60392 7.48846H4.39462C4.12765 7.48846 3.90625 7.26707 3.90625 7.00009C3.90625 6.73311 4.12765 6.51172 4.39462 6.51172H9.60392C9.8709 6.51172 10.0923 6.73311 10.0923 7.00009C10.0923 7.26707 9.8709 7.48846 9.60392 7.48846Z" fill="white"/>
<path id="Vector_3" d="M7.00009 10.0923C6.73311 10.0923 6.51172 9.8709 6.51172 9.60392V4.39462C6.51172 4.12765 6.73311 3.90625 7.00009 3.90625C7.26707 3.90625 7.48846 4.12765 7.48846 4.39462V9.60392C7.48846 9.8709 7.26707 10.0923 7.00009 10.0923Z" fill="white"/>
</g>
</g>
</svg>
