<svg width="20" height="20" viewBox="0 0 20 20" fill="none" xmlns="http://www.w3.org/2000/svg">
<g id="add-circle">
<g id="vuesax/outline/add-circle">
<g id="add-circle_2">
<path id="Vector" d="M10.0013 18.9596C5.05964 18.9596 1.04297 14.943 1.04297 10.0013C1.04297 5.05964 5.05964 1.04297 10.0013 1.04297C14.943 1.04297 18.9596 5.05964 18.9596 10.0013C18.9596 14.943 14.943 18.9596 10.0013 18.9596ZM10.0013 2.29297C5.7513 2.29297 2.29297 5.7513 2.29297 10.0013C2.29297 14.2513 5.7513 17.7096 10.0013 17.7096C14.2513 17.7096 17.7096 14.2513 17.7096 10.0013C17.7096 5.7513 14.2513 2.29297 10.0013 2.29297Z" fill="white"/>
<path id="Vector_2" d="M13.3346 10.625H6.66797C6.3263 10.625 6.04297 10.3417 6.04297 10C6.04297 9.65833 6.3263 9.375 6.66797 9.375H13.3346C13.6763 9.375 13.9596 9.65833 13.9596 10C13.9596 10.3417 13.6763 10.625 13.3346 10.625Z" fill="white"/>
<path id="Vector_3" d="M10 13.9596C9.65833 13.9596 9.375 13.6763 9.375 13.3346V6.66797C9.375 6.3263 9.65833 6.04297 10 6.04297C10.3417 6.04297 10.625 6.3263 10.625 6.66797V13.3346C10.625 13.6763 10.3417 13.9596 10 13.9596Z" fill="white"/>
</g>
</g>
</g>
</svg>
