<svg width="25" height="24" viewBox="0 0 25 24" fill="none" xmlns="http://www.w3.org/2000/svg">
<path d="M21.7739 8.50391C21.6688 8.56519 19.168 9.85841 19.168 12.7258C19.2859 15.9959 22.3239 17.1427 22.376 17.1427C22.3239 17.2039 21.9174 18.7049 20.7131 20.2783C19.7574 21.6336 18.6966 23 17.0857 23C15.5534 23 15.0034 22.0967 13.2354 22.0967C11.3367 22.0967 10.7995 23 9.34578 23C7.73494 23 6.59556 21.5603 5.58771 20.2178C4.27836 18.4606 3.16546 15.703 3.12617 13.0553C3.09969 11.6522 3.38838 10.273 4.12121 9.10158C5.15553 7.46614 7.00211 6.35595 9.01866 6.31935C10.5637 6.2708 11.9389 7.30777 12.8818 7.30777C13.7854 7.30777 15.4749 6.31935 17.3864 6.31935C18.2114 6.32014 20.4116 6.55173 21.7739 8.50391ZM12.7511 6.03921C12.4761 4.75792 13.2354 3.47663 13.9426 2.65931C14.8462 1.67089 16.2734 1 17.5042 1C17.5828 2.28129 17.0849 3.53791 16.1949 4.45312C15.3963 5.44154 14.0212 6.18565 12.7511 6.03921Z" fill="#283544"/>
</svg>
