<svg width="19" height="20" viewBox="0 0 19 20" fill="none" xmlns="http://www.w3.org/2000/svg">
<g id="vuesax/outline/tick-circle">
<g id="tick-circle">
<path id="Vector" d="M9.50087 17.7409C5.23104 17.7409 1.7599 14.2697 1.7599 9.99989C1.7599 5.73006 5.23104 2.25892 9.50087 2.25892C13.7707 2.25892 17.2418 5.73006 17.2418 9.99989C17.2418 14.2697 13.7707 17.7409 9.50087 17.7409ZM9.50087 2.46309C5.345 2.46309 1.96406 5.84402 1.96406 9.99989C1.96406 14.1558 5.345 17.5367 9.50087 17.5367C13.6567 17.5367 17.0377 14.1558 17.0377 9.99989C17.0377 5.84402 13.6567 2.46309 9.50087 2.46309Z" stroke="#00CC5E" stroke-width="0.941667"/>
<path id="Vector_2" d="M8.14633 11.6214L8.41641 11.8915L8.68648 11.6214L12.6129 7.69501L12.3445 7.42661L12.6129 7.69501C12.6852 7.62264 12.8101 7.62264 12.8824 7.69501C12.9548 7.76738 12.9548 7.89221 12.8824 7.96458L8.55119 12.2958C8.51506 12.332 8.46674 12.352 8.41641 12.352C8.36608 12.352 8.31775 12.332 8.28162 12.2958L6.11982 10.134C6.04745 10.0617 6.04745 9.93682 6.11982 9.86445C6.19218 9.79209 6.31702 9.79209 6.38939 9.86445L8.14633 11.6214Z" fill="#00CC5E" stroke="#00CC5E" stroke-width="0.763889"/>
</g>
</g>
</svg>
