<svg width="19" height="20" viewBox="0 0 19 20" fill="none" xmlns="http://www.w3.org/2000/svg">
<g id="vuesax/outline/tick-circle">
<g id="tick-circle">
<path id="Vector" d="M9.49891 17.7409C5.22909 17.7409 1.75794 14.2697 1.75794 9.99989C1.75794 5.73006 5.22909 2.25892 9.49891 2.25892C13.7687 2.25892 17.2399 5.73006 17.2399 9.99989C17.2399 14.2697 13.7687 17.7409 9.49891 17.7409ZM9.49891 2.46309C5.34305 2.46309 1.96211 5.84402 1.96211 9.99989C1.96211 14.1558 5.34305 17.5367 9.49891 17.5367C13.6548 17.5367 17.0357 14.1558 17.0357 9.99989C17.0357 5.84402 13.6548 2.46309 9.49891 2.46309Z" stroke="#B1B2B4" stroke-width="0.941667"/>
<path id="Vector_2" d="M8.14438 11.6234L8.41445 11.8934L8.68453 11.6234L12.6109 7.69696C12.6833 7.62459 12.8081 7.62459 12.8805 7.69696C12.9529 7.76933 12.9529 7.89417 12.8805 7.96653L8.54924 12.2978C8.5131 12.3339 8.46478 12.354 8.41445 12.354C8.36412 12.354 8.3158 12.3339 8.27967 12.2978L6.11786 10.136C6.04549 10.0636 6.04549 9.93878 6.11786 9.86641C6.19023 9.79404 6.31506 9.79404 6.38743 9.86641L8.14438 11.6234Z" fill="#B1B2B4" stroke="#B1B2B4" stroke-width="0.763889"/>
</g>
</g>
</svg>
