<svg width="12" height="12" viewBox="0 0 12 12" fill="none" xmlns="http://www.w3.org/2000/svg">
<g id="icon">
<path id="Icon" d="M3.50098 4.25791H6.00098M3.50098 6.00797H7.50098M4.84285 9.00808H8.10098C8.94106 9.00808 9.36109 9.00808 9.68196 8.84458C9.96421 8.70077 10.1937 8.47129 10.3375 8.18904C10.501 7.86816 10.501 7.4481 10.501 6.60799V3.9079C10.501 3.06779 10.501 2.64774 10.3375 2.32686C10.1937 2.0446 9.96421 1.81512 9.68196 1.67131C9.36109 1.50781 8.94106 1.50781 8.10098 1.50781H3.90098C3.0609 1.50781 2.64086 1.50781 2.31999 1.67131C2.03775 1.81512 1.80828 2.0446 1.66447 2.32686C1.50098 2.64774 1.50098 3.06779 1.50098 3.9079V10.1759C1.50098 10.4423 1.50098 10.5755 1.55559 10.6439C1.60309 10.7035 1.67511 10.7381 1.75125 10.738C1.83879 10.7379 1.94281 10.6547 2.15085 10.4882L3.34358 9.53401C3.58724 9.33909 3.70906 9.24162 3.84472 9.17231C3.96508 9.11082 4.09319 9.06588 4.22558 9.03871C4.37481 9.00808 4.53082 9.00808 4.84285 9.00808Z" stroke="white" stroke-width="0.55001" stroke-linecap="round" stroke-linejoin="round"/>
</g>
</svg>
