<svg width="40" height="26" viewBox="0 0 40 26" fill="none" xmlns="http://www.w3.org/2000/svg">
<path fill-rule="evenodd" clip-rule="evenodd" d="M31.0129 14.4948C31.1072 13.7826 31.1381 13.0518 31.0999 12.3086C30.7628 5.74742 25.1706 0.701843 18.6095 1.03898C12.0484 1.37611 7.00279 6.96829 7.33993 13.5295C7.52356 17.1033 9.26634 20.2275 11.8756 22.277C15.1707 21.7021 18.6418 20.7062 22.1203 19.2699C25.4185 17.9081 28.4114 16.2793 31.0129 14.4948ZM30.546 16.5664C28.1837 18.0667 25.5572 19.434 22.7216 20.6048C19.6618 21.8682 16.5954 22.805 13.6304 23.4217C15.4715 24.4038 17.5947 24.9139 19.8304 24.7991C24.906 24.5383 29.0746 21.1326 30.546 16.5664Z" fill="#D64657"/>
<path fill-rule="evenodd" clip-rule="evenodd" d="M8.77908 13.7348C11.3787 12.1911 14.6118 10.6442 18.2182 9.28738C23.2074 7.41033 27.9255 6.26783 31.509 5.92666C33.3062 5.75555 34.7748 5.7904 35.8346 6.01098C36.9325 6.23947 37.3777 6.61659 37.5111 6.93983C37.6445 7.26307 37.5885 7.82875 36.9491 8.71084C36.3318 9.56239 35.2829 10.5444 33.8466 11.5898C30.9827 13.6742 26.7166 15.9118 21.7274 17.7889C16.8703 19.6162 13.7537 20.5883 10.9414 20.9904C10.3427 21.1628 9.73616 21.3179 9.22199 21.4091C6.94906 21.8125 3.73054 21.9927 1.05752 22.0746C5.03455 22.6311 7.82266 22.8623 10.8747 22.4662C13.9489 22.0673 17.2487 21.0374 22.286 19.1422C27.3614 17.2328 31.7516 14.9393 34.7472 12.7589C36.2407 11.6719 37.4223 10.5881 38.1626 9.56679C38.8809 8.57599 39.3096 7.46171 38.8814 6.42428C38.4532 5.38686 37.3434 4.8514 36.1103 4.59475C34.8391 4.33019 33.2008 4.30732 31.3321 4.48523C27.5838 4.8421 22.7349 6.0246 17.6596 7.93406C13.984 9.31689 10.6723 10.8994 7.99024 12.492L8.77908 13.7348Z" fill="#D64657"/>
</svg>
