<svg width="175" height="41" viewBox="0 0 175 41" fill="none" xmlns="http://www.w3.org/2000/svg">
<path fill-rule="evenodd" clip-rule="evenodd" d="M31.5129 22.4948C31.6072 21.7826 31.6381 21.0518 31.5999 20.3086C31.2628 13.7474 25.6706 8.70184 19.1095 9.03898C12.5484 9.37611 7.50279 14.9683 7.83993 21.5295C8.02356 25.1033 9.76634 28.2275 12.3756 30.277C15.6707 29.7021 19.1418 28.7062 22.6203 27.2699C25.9185 25.9081 28.9114 24.2793 31.5129 22.4948ZM31.046 24.5664C28.6837 26.0667 26.0572 27.434 23.2216 28.6048C20.1618 29.8682 17.0954 30.805 14.1304 31.4217C15.9715 32.4038 18.0947 32.9139 20.3304 32.7991C25.406 32.5383 29.5746 29.1326 31.046 24.5664Z" fill="#0064FA"/>
<path fill-rule="evenodd" clip-rule="evenodd" d="M9.27908 21.7348C11.8787 20.1911 15.1118 18.6442 18.7182 17.2874C23.7074 15.4103 28.4255 14.2678 32.009 13.9267C33.8062 13.7556 35.2748 13.7904 36.3346 14.011C37.4325 14.2395 37.8777 14.6166 38.0111 14.9398C38.1445 15.2631 38.0885 15.8288 37.4491 16.7108C36.8318 17.5624 35.7829 18.5444 34.3466 19.5898C31.4827 21.6742 27.2166 23.9118 22.2274 25.7889C17.3703 27.6162 14.2537 28.5883 11.4414 28.9904C10.8427 29.1628 10.2362 29.3179 9.72199 29.4091C7.44906 29.8125 4.23054 29.9927 1.55752 30.0746C5.53455 30.6311 8.32266 30.8623 11.3747 30.4662C14.4489 30.0673 17.7487 29.0374 22.786 27.1422C27.8614 25.2328 32.2516 22.9393 35.2472 20.7589C36.7407 19.6719 37.9223 18.5881 38.6626 17.5668C39.3809 16.576 39.8096 15.4617 39.3814 14.4243C38.9532 13.3869 37.8434 12.8514 36.6103 12.5948C35.3391 12.3302 33.7008 12.3073 31.8321 12.4852C28.0838 12.8421 23.2349 14.0246 18.1596 15.9341C14.484 17.3169 11.1723 18.8994 8.49024 20.492L9.27908 21.7348Z" fill="#0064FA"/>
<path d="M52.38 27.5V13.5H58.14C59.38 13.5 60.44 13.7 61.32 14.1C62.2133 14.5 62.9 15.0733 63.38 15.82C63.86 16.5667 64.1 17.4533 64.1 18.48C64.1 19.5067 63.86 20.3933 63.38 21.14C62.9 21.8867 62.2133 22.46 61.32 22.86C60.44 23.26 59.38 23.46 58.14 23.46H53.82L54.98 22.24V27.5H52.38ZM54.98 22.52L53.82 21.26H58.02C59.1667 21.26 60.0267 21.02 60.6 20.54C61.1867 20.0467 61.48 19.36 61.48 18.48C61.48 17.5867 61.1867 16.9 60.6 16.42C60.0267 15.94 59.1667 15.7 58.02 15.7H53.82L54.98 14.42V22.52ZM66.3588 27.5V16.82H68.7388V19.76L68.4588 18.9C68.7788 18.18 69.2788 17.6333 69.9588 17.26C70.6521 16.8867 71.5121 16.7 72.5388 16.7V19.08C72.4321 19.0533 72.3321 19.04 72.2388 19.04C72.1454 19.0267 72.0521 19.02 71.9588 19.02C71.0121 19.02 70.2588 19.3 69.6988 19.86C69.1388 20.4067 68.8588 21.2267 68.8588 22.32V27.5H66.3588ZM79.5819 27.64C78.3952 27.64 77.3552 27.4067 76.4619 26.94C75.5819 26.46 74.8952 25.8067 74.4019 24.98C73.9219 24.1533 73.6819 23.2133 73.6819 22.16C73.6819 21.0933 73.9152 20.1533 74.3819 19.34C74.8619 18.5133 75.5152 17.8667 76.3419 17.4C77.1819 16.9333 78.1352 16.7 79.2019 16.7C80.2419 16.7 81.1685 16.9267 81.9819 17.38C82.7952 17.8333 83.4352 18.4733 83.9019 19.3C84.3685 20.1267 84.6019 21.1 84.6019 22.22C84.6019 22.3267 84.5952 22.4467 84.5819 22.58C84.5819 22.7133 84.5752 22.84 84.5619 22.96H75.6619V21.3H83.2419L82.2619 21.82C82.2752 21.2067 82.1485 20.6667 81.8819 20.2C81.6152 19.7333 81.2485 19.3667 80.7819 19.1C80.3285 18.8333 79.8019 18.7 79.2019 18.7C78.5885 18.7 78.0485 18.8333 77.5819 19.1C77.1285 19.3667 76.7685 19.74 76.5019 20.22C76.2485 20.6867 76.1219 21.24 76.1219 21.88V22.28C76.1219 22.92 76.2685 23.4867 76.5619 23.98C76.8552 24.4733 77.2685 24.8533 77.8019 25.12C78.3352 25.3867 78.9485 25.52 79.6419 25.52C80.2419 25.52 80.7819 25.4267 81.2619 25.24C81.7419 25.0533 82.1685 24.76 82.5419 24.36L83.8819 25.9C83.4019 26.46 82.7952 26.8933 82.0619 27.2C81.3419 27.4933 80.5152 27.64 79.5819 27.64ZM92.7706 27.5V13.5H98.5306C99.7706 13.5 100.831 13.7 101.711 14.1C102.604 14.5 103.291 15.0733 103.771 15.82C104.251 16.5667 104.491 17.4533 104.491 18.48C104.491 19.5067 104.251 20.3933 103.771 21.14C103.291 21.8733 102.604 22.44 101.711 22.84C100.831 23.2267 99.7706 23.42 98.5306 23.42H94.2106L95.3706 22.24V27.5H92.7706ZM101.931 27.5L98.3906 22.42H101.171L104.731 27.5H101.931ZM95.3706 22.52L94.2106 21.28H98.4106C99.5573 21.28 100.417 21.0333 100.991 20.54C101.577 20.0467 101.871 19.36 101.871 18.48C101.871 17.5867 101.577 16.9 100.991 16.42C100.417 15.94 99.5573 15.7 98.4106 15.7H94.2106L95.3706 14.42V22.52ZM112.18 27.64C110.993 27.64 109.953 27.4067 109.06 26.94C108.18 26.46 107.493 25.8067 107 24.98C106.52 24.1533 106.28 23.2133 106.28 22.16C106.28 21.0933 106.513 20.1533 106.98 19.34C107.46 18.5133 108.113 17.8667 108.94 17.4C109.78 16.9333 110.733 16.7 111.8 16.7C112.84 16.7 113.766 16.9267 114.58 17.38C115.393 17.8333 116.033 18.4733 116.5 19.3C116.966 20.1267 117.2 21.1 117.2 22.22C117.2 22.3267 117.193 22.4467 117.18 22.58C117.18 22.7133 117.173 22.84 117.16 22.96H108.26V21.3H115.84L114.86 21.82C114.873 21.2067 114.746 20.6667 114.48 20.2C114.213 19.7333 113.846 19.3667 113.38 19.1C112.926 18.8333 112.4 18.7 111.8 18.7C111.186 18.7 110.646 18.8333 110.18 19.1C109.726 19.3667 109.366 19.74 109.1 20.22C108.846 20.6867 108.72 21.24 108.72 21.88V22.28C108.72 22.92 108.866 23.4867 109.16 23.98C109.453 24.4733 109.866 24.8533 110.4 25.12C110.933 25.3867 111.546 25.52 112.24 25.52C112.84 25.52 113.38 25.4267 113.86 25.24C114.34 25.0533 114.766 24.76 115.14 24.36L116.48 25.9C116 26.46 115.393 26.8933 114.66 27.2C113.94 27.4933 113.113 27.64 112.18 27.64ZM124.501 27.64C123.381 27.64 122.381 27.4067 121.501 26.94C120.634 26.46 119.954 25.8067 119.461 24.98C118.968 24.1533 118.721 23.2133 118.721 22.16C118.721 21.0933 118.968 20.1533 119.461 19.34C119.954 18.5133 120.634 17.8667 121.501 17.4C122.381 16.9333 123.381 16.7 124.501 16.7C125.541 16.7 126.454 16.9133 127.241 17.34C128.041 17.7533 128.648 18.3667 129.061 19.18L127.141 20.3C126.821 19.7933 126.428 19.42 125.961 19.18C125.508 18.94 125.014 18.82 124.481 18.82C123.868 18.82 123.314 18.9533 122.821 19.22C122.328 19.4867 121.941 19.8733 121.661 20.38C121.381 20.8733 121.241 21.4667 121.241 22.16C121.241 22.8533 121.381 23.4533 121.661 23.96C121.941 24.4533 122.328 24.8333 122.821 25.1C123.314 25.3667 123.868 25.5 124.481 25.5C125.014 25.5 125.508 25.38 125.961 25.14C126.428 24.9 126.821 24.5267 127.141 24.02L129.061 25.14C128.648 25.94 128.041 26.56 127.241 27C126.454 27.4267 125.541 27.64 124.501 27.64ZM135.866 27.64C134.772 27.64 133.799 27.4067 132.946 26.94C132.092 26.46 131.419 25.8067 130.926 24.98C130.432 24.1533 130.186 23.2133 130.186 22.16C130.186 21.0933 130.432 20.1533 130.926 19.34C131.419 18.5133 132.092 17.8667 132.946 17.4C133.799 16.9333 134.772 16.7 135.866 16.7C136.972 16.7 137.952 16.9333 138.806 17.4C139.672 17.8667 140.346 18.5067 140.826 19.32C141.319 20.1333 141.566 21.08 141.566 22.16C141.566 23.2133 141.319 24.1533 140.826 24.98C140.346 25.8067 139.672 26.46 138.806 26.94C137.952 27.4067 136.972 27.64 135.866 27.64ZM135.866 25.5C136.479 25.5 137.026 25.3667 137.506 25.1C137.986 24.8333 138.359 24.4467 138.626 23.94C138.906 23.4333 139.046 22.84 139.046 22.16C139.046 21.4667 138.906 20.8733 138.626 20.38C138.359 19.8733 137.986 19.4867 137.506 19.22C137.026 18.9533 136.486 18.82 135.886 18.82C135.272 18.82 134.726 18.9533 134.246 19.22C133.779 19.4867 133.406 19.8733 133.126 20.38C132.846 20.8733 132.706 21.4667 132.706 22.16C132.706 22.84 132.846 23.4333 133.126 23.94C133.406 24.4467 133.779 24.8333 134.246 25.1C134.726 25.3667 135.266 25.5 135.866 25.5ZM146.503 27.5L141.923 16.82H144.523L148.463 26.24H147.183L151.263 16.82H153.663L149.083 27.5H146.503ZM159.953 27.64C158.766 27.64 157.726 27.4067 156.833 26.94C155.953 26.46 155.266 25.8067 154.773 24.98C154.293 24.1533 154.053 23.2133 154.053 22.16C154.053 21.0933 154.286 20.1533 154.753 19.34C155.233 18.5133 155.886 17.8667 156.713 17.4C157.553 16.9333 158.506 16.7 159.573 16.7C160.613 16.7 161.54 16.9267 162.353 17.38C163.166 17.8333 163.806 18.4733 164.273 19.3C164.74 20.1267 164.973 21.1 164.973 22.22C164.973 22.3267 164.966 22.4467 164.953 22.58C164.953 22.7133 164.946 22.84 164.933 22.96H156.033V21.3H163.613L162.633 21.82C162.646 21.2067 162.52 20.6667 162.253 20.2C161.986 19.7333 161.62 19.3667 161.153 19.1C160.7 18.8333 160.173 18.7 159.573 18.7C158.96 18.7 158.42 18.8333 157.953 19.1C157.5 19.3667 157.14 19.74 156.873 20.22C156.62 20.6867 156.493 21.24 156.493 21.88V22.28C156.493 22.92 156.64 23.4867 156.933 23.98C157.226 24.4733 157.64 24.8533 158.173 25.12C158.706 25.3867 159.32 25.52 160.013 25.52C160.613 25.52 161.153 25.4267 161.633 25.24C162.113 25.0533 162.54 24.76 162.913 24.36L164.253 25.9C163.773 26.46 163.166 26.8933 162.433 27.2C161.713 27.4933 160.886 27.64 159.953 27.64ZM167.374 27.5V16.82H169.754V19.76L169.474 18.9C169.794 18.18 170.294 17.6333 170.974 17.26C171.668 16.8867 172.528 16.7 173.554 16.7V19.08C173.448 19.0533 173.348 19.04 173.254 19.04C173.161 19.0267 173.068 19.02 172.974 19.02C172.028 19.02 171.274 19.3 170.714 19.86C170.154 20.4067 169.874 21.2267 169.874 22.32V27.5H167.374Z" fill="#0064FA"/>
</svg>
