<svg width="20" height="20" viewBox="0 0 20 20" fill="none" xmlns="http://www.w3.org/2000/svg">
<path d="M10.4221 17.262C10.2906 17.5812 10.4429 17.9465 10.762 18.0779C11.0812 18.2094 11.4465 18.0571 11.5779 17.738L10.4221 17.262ZM14.5 9L15.0779 8.76203C14.9815 8.52784 14.7533 8.375 14.5 8.375C14.2467 8.375 14.0185 8.52784 13.9221 8.76203L14.5 9ZM17.4221 17.738C17.5535 18.0571 17.9188 18.2094 18.238 18.0779C18.5571 17.9465 18.7094 17.5812 18.5779 17.262L17.4221 17.738ZM16.5588 14L17.1367 13.762L16.5588 14ZM12.4412 14L11.8633 13.762L12.4412 14ZM13.9221 9.23797L15.9809 14.238L17.1367 13.762L15.0779 8.76203L13.9221 9.23797ZM15.9809 14.238L17.4221 17.738L18.5779 17.262L17.1367 13.762L15.9809 14.238ZM11.5779 17.738L13.0191 14.238L11.8633 13.762L10.4221 17.262L11.5779 17.738ZM13.0191 14.238L15.0779 9.23797L13.9221 8.76203L11.8633 13.762L13.0191 14.238ZM16.5588 13.375H12.4412V14.625H16.5588V13.375Z" fill="#0064FA"/>
<path d="M10 12.5C9 11.8333 6.6 9.8 5 7M2.5 13.5C4.66667 12.8333 9.4 10.1 11 4.5M11 4.5H13M11 4.5H7.5M2 4.5H7.5M7.5 4.5V2" stroke="#0064FA" stroke-width="1.25" stroke-linecap="round" stroke-linejoin="bevel"/>
</svg>
