<svg width="20" height="20" viewBox="0 0 20 20" fill="none" xmlns="http://www.w3.org/2000/svg">
<path d="M15.8333 9.16699H4.16667C3.24619 9.16699 2.5 9.91318 2.5 10.8337V16.667C2.5 17.5875 3.24619 18.3337 4.16667 18.3337H15.8333C16.7538 18.3337 17.5 17.5875 17.5 16.667V10.8337C17.5 9.91318 16.7538 9.16699 15.8333 9.16699Z" stroke="#0064FA" stroke-width="1.25" stroke-linecap="round" stroke-linejoin="round"/>
<path d="M5.83203 9.16699V5.83366C5.83203 4.72859 6.27102 3.66878 7.05242 2.88738C7.83382 2.10598 8.89363 1.66699 9.9987 1.66699C11.1038 1.66699 12.1636 2.10598 12.945 2.88738C13.7264 3.66878 14.1654 4.72859 14.1654 5.83366V9.16699" stroke="#0064FA" stroke-width="1.25" stroke-linecap="round" stroke-linejoin="round"/>
<path d="M10 14.5V13" stroke="#0064FA" stroke-linecap="round"/>
</svg>
