<svg width="20" height="20" viewBox="0 0 20 20" fill="none" xmlns="http://www.w3.org/2000/svg">
<g clip-path="url(#clip0_5544_52565)">
<rect width="20" height="20" fill="white"/>
<path d="M8.15833 11.833C4.20833 11.833 1 14.4413 1 17.6663" stroke="#0064FA" stroke-width="1.25" stroke-linecap="round" stroke-linejoin="round"/>
<path d="M8.15495 9.33333C10.4561 9.33333 12.3216 7.46785 12.3216 5.16667C12.3216 2.86548 10.4561 1 8.15495 1C5.85376 1 3.98828 2.86548 3.98828 5.16667C3.98828 7.46785 5.85376 9.33333 8.15495 9.33333Z" stroke="#0064FA" stroke-width="1.25" stroke-linecap="round" stroke-linejoin="round"/>
<path d="M10 14.7295V13.9228C10 13.4462 10.3896 13.052 10.8708 13.052C11.7004 13.052 12.0396 12.4653 11.6225 11.7457C11.3842 11.3332 11.5263 10.797 11.9433 10.5587L12.7362 10.1049C13.0983 9.8895 13.5658 10.0178 13.7813 10.3799L13.8317 10.467C14.2442 11.1866 14.9225 11.1866 15.3396 10.467L15.39 10.3799C15.6054 10.0178 16.0729 9.8895 16.435 10.1049L17.2279 10.5587C17.645 10.797 17.7871 11.3332 17.5488 11.7457C17.1317 12.4653 17.4708 13.052 18.3004 13.052C18.7771 13.052 19.1713 13.4416 19.1713 13.9228V14.7295C19.1713 15.2062 18.7817 15.6003 18.3004 15.6003C17.4708 15.6003 17.1317 16.187 17.5488 16.9066C17.7871 17.3237 17.645 17.8553 17.2279 18.0937L16.435 18.5474C16.0729 18.7628 15.6054 18.6345 15.39 18.2724L15.3396 18.1853C14.9271 17.4657 14.2488 17.4657 13.8317 18.1853L13.7813 18.2724C13.5658 18.6345 13.0983 18.7628 12.7362 18.5474L11.9433 18.0937C11.5263 17.8553 11.3842 17.3191 11.6225 16.9066C12.0396 16.187 11.7004 15.6003 10.8708 15.6003C10.3896 15.6003 10 15.2062 10 14.7295Z" fill="white"/>
<path d="M10 14.7295V13.9228C10 13.4462 10.3896 13.052 10.8708 13.052C11.7004 13.052 12.0396 12.4653 11.6225 11.7457C11.3842 11.3332 11.5263 10.797 11.9433 10.5587L12.7362 10.1049C13.0983 9.8895 13.5658 10.0178 13.7813 10.3799L13.8317 10.467C14.2442 11.1866 14.9225 11.1866 15.3396 10.467L15.39 10.3799C15.6054 10.0178 16.0729 9.8895 16.435 10.1049L17.2279 10.5587C17.645 10.797 17.7871 11.3332 17.5488 11.7457C17.1317 12.4653 17.4708 13.052 18.3004 13.052C18.7771 13.052 19.1713 13.4416 19.1713 13.9228V14.7295C19.1713 15.2062 18.7817 15.6003 18.3004 15.6003C17.4708 15.6003 17.1317 16.187 17.5488 16.9066C17.7871 17.3237 17.645 17.8553 17.2279 18.0937L16.435 18.5474C16.0729 18.7628 15.6054 18.6345 15.39 18.2724L15.3396 18.1853C14.9271 17.4657 14.2488 17.4657 13.8317 18.1853L13.7813 18.2724C13.5658 18.6345 13.0983 18.7628 12.7362 18.5474L11.9433 18.0937C11.5263 17.8553 11.3842 17.3191 11.6225 16.9066C12.0396 16.187 11.7004 15.6003 10.8708 15.6003C10.3896 15.6003 10 15.2062 10 14.7295Z" stroke="#0064FA" stroke-width="1.25" stroke-miterlimit="10" stroke-linecap="round" stroke-linejoin="round"/>
<path d="M14.5859 15.75C15.2763 15.75 15.8359 15.1904 15.8359 14.5C15.8359 13.8096 15.2763 13.25 14.5859 13.25C13.8956 13.25 13.3359 13.8096 13.3359 14.5C13.3359 15.1904 13.8956 15.75 14.5859 15.75Z" fill="#0064FA"/>
</g>
<defs>
<clipPath id="clip0_5544_52565">
<rect width="20" height="20" fill="white"/>
</clipPath>
</defs>
</svg>
