<svg width="20" height="20" viewBox="0 0 20 20" fill="none" xmlns="http://www.w3.org/2000/svg">
<path d="M15.8333 2.5H4.16667C3.24619 2.5 2.5 3.24619 2.5 4.16667V15.8333C2.5 16.7538 3.24619 17.5 4.16667 17.5H15.8333C16.7538 17.5 17.5 16.7538 17.5 15.8333V4.16667C17.5 3.24619 16.7538 2.5 15.8333 2.5Z" stroke="#0064FA" stroke-width="1.25" stroke-linecap="round" stroke-linejoin="round"/>
<path d="M7.08594 8.33398C7.77629 8.33398 8.33594 7.77434 8.33594 7.08398C8.33594 6.39363 7.77629 5.83398 7.08594 5.83398C6.39558 5.83398 5.83594 6.39363 5.83594 7.08398C5.83594 7.77434 6.39558 8.33398 7.08594 8.33398Z" stroke="#0064FA" stroke-width="1.25" stroke-linecap="round" stroke-linejoin="round"/>
<path d="M17.4974 12.5007L13.3307 8.33398L4.16406 17.5007" stroke="#0064FA" stroke-width="1.25" stroke-linecap="round" stroke-linejoin="round"/>
</svg>
